smi 5 0
<part> smd 21
parasolid 21 1
*
-1
0.027332347347256536 0.0066476851085491302 -0.082027058823529397
0.0668998433817697 0.20925231489145102 0.052084941176470591
1 1007 5 0
0 0 0.027332347347256536 0.0066476851085491302 -0.082027058823529397
0.0668998433817697 0.20925231489145102 0.052084941176470591
_sim_empty
0 
0 0 0 0

0
1 61 154 90
0 0 0 0
105
666 4 3025
685 4 3025
3025 0 5 0 0 0 2
666 685 
_sim_empty
3025 
0.057628843269256505 0.1001060602338068 -0.034852268310168501
668 4 3022
703 4 3022
3022 0 5 0 0 0 2
668 703 
_sim_empty
3022 
0.057628843269256505 0.094892442542452896 -0.031851714316093897
222 4 3019
253 4 3019
3019 0 5 0 0 0 2
222 253 
_sim_empty
3019 
0.0668998433817697 0.094892442542452896 -0.031851714316093897
224 4 3016
251 4 3016
3016 0 5 0 0 0 2
224 251 
_sim_empty
3016 
0.0668998433817697 0.1001060602338068 -0.034852268310168501
670 4 3003
701 4 3003
3003 0 5 0 0 0 2
670 701 
_sim_empty
3003 
0.057628843269256505 0.092682180914696294 -0.031077883771086449
672 4 3000
699 4 3000
3000 0 5 0 0 0 2
672 699 
_sim_empty
3000 
0.057628843269256602 0.058581140832154002 -0.0258781235046542
218 4 2997
237 4 2997
2997 0 5 0 0 0 2
218 237 
_sim_empty
2997 
0.0668998433817697 0.058581140832154002 -0.0258781235046542
220 4 2994
255 4 2994
2994 0 5 0 0 0 2
220 255 
_sim_empty
2994 
0.0668998433817697 0.092682180914696391 -0.031077883771086449
674 4 2981
697 4 2981
2981 0 5 0 0 0 2
674 697 
_sim_empty
2981 
0.057628843269256505 0.053382141499422199 -0.036880982431617998
676 4 2978
695 4 2978
2978 0 5 0 0 0 2
676 695 
_sim_empty
2978 
0.057628843269256505 0.069325284095844902 -0.051192475113926106
234 4 2975
241 4 2975
2975 0 5 0 0 0 2
234 241 
_sim_empty
2975 
0.0668998433817697 0.069325284095844902 -0.051192475113926106
236 4 2972
239 4 2972
2972 0 5 0 0 0 2
236 239 
_sim_empty
2972 
0.0668998433817697 0.053382141499422199 -0.036880982431617998
678 4 2959
693 4 2959
2959 0 5 0 0 0 2
678 693 
_sim_empty
2959 
0.057628843269256505 0.073567092776402401 -0.052817058823529398
680 4 2956
691 4 2956
2956 0 5 0 0 0 2
680 691 
_sim_empty
2956 
0.057628843269256505 0.087888028666521095 -0.052817058823529398
230 4 2953
245 4 2953
2953 0 5 0 0 0 2
230 245 
_sim_empty
2953 
0.0668998433817697 0.087888028666521095 -0.052817058823529398
232 4 2950
243 4 2950
2950 0 5 0 0 0 2
232 243 
_sim_empty
2950 
0.0668998433817697 0.073567092776402401 -0.052817058823529398
682 4 2937
689 4 2937
2937 0 5 0 0 0 2
682 689 
_sim_empty
2937 
0.057628843269256505 0.091441495122585009 -0.051729698479218301
684 4 2934
687 4 2934
2934 0 5 0 0 0 2
684 687 
_sim_empty
2934 
0.057628843269256505 0.10049207440993981 -0.0456185200574169
226 4 2931
249 4 2931
2931 0 5 0 0 0 2
226 249 
_sim_empty
2931 
0.0668998433817697 0.10049207440993981 -0.0456185200574169
228 4 2928
247 4 2928
2928 0 5 0 0 0 2
228 247 
_sim_empty
2928 
0.0668998433817697 0.091441495122585009 -0.051729698479218301
638 4 2413
653 4 2413
2413 0 5 0 0 0 2
638 653 
_sim_empty
2413 
0.057628843269256602 0.17980970204792399 -0.0146906426060075
640 4 2410
651 4 2410
2410 0 5 0 0 0 2
640 651 
_sim_empty
2410 
0.057628843269256602 0.17468694671774201 -0.015369802509651051
158 4 2407
173 4 2407
2407 0 5 0 0 0 2
158 173 
_sim_empty
2407 
0.0668998433817697 0.17468694671774201 -0.015369802509651051
160 4 2404
171 4 2404
2404 0 5 0 0 0 2
160 171 
_sim_empty
2404 
0.0668998433817697 0.17980970204792399 -0.014690642606007519
642 4 2391
649 4 2391
2391 0 5 0 0 0 2
642 649 
_sim_empty
2391 
0.057628843269256602 0.16997128820352098 -0.018579668461267951
644 4 2388
647 4 2388
2388 0 5 0 0 0 2
644 647 
_sim_empty
2388 
0.057628843269256505 0.15304425557430801 -0.035433441405006899
154 4 2385
177 4 2385
2385 0 5 0 0 0 2
154 177 
_sim_empty
2385 
0.0668998433817697 0.15304425557430801 -0.035433441405006899
156 4 2382
175 4 2382
2382 0 5 0 0 0 2
156 175 
_sim_empty
2382 
0.0668998433817697 0.16997128820352098 -0.018579668461267951
626 4 2369
645 4 2369
2369 0 5 0 0 0 2
626 645 
_sim_empty
2369 
0.057628843269256505 0.15285920998998898 -0.046454646333242998
628 4 2366
663 4 2366
2366 0 5 0 0 0 2
628 663 
_sim_empty
2366 
0.057628843269256505 0.16419162269506452 -0.053194714591197595
150 4 2363
181 4 2363
2363 0 5 0 0 0 2
150 181 
_sim_empty
2363 
0.0668998433817697 0.16419162269506452 -0.053194714591197595
152 4 2360
179 4 2360
2360 0 5 0 0 0 2
152 179 
_sim_empty
2360 
0.0668998433817697 0.15285920998998898 -0.046454646333242998
630 4 2347
661 4 2347
2347 0 5 0 0 0 2
630 661 
_sim_empty
2347 
0.057628843269256505 0.16743761923259151 -0.054087058823529398
632 4 2344
659 4 2344
2344 0 5 0 0 0 2
632 659 
_sim_empty
2344 
0.057628843269256505 0.17001822197693398 -0.054087058823529398
146 4 2341
165 4 2341
2341 0 5 0 0 0 2
146 165 
_sim_empty
2341 
0.0668998433817697 0.17001822197693398 -0.054087058823529398
148 4 2338
183 4 2338
2338 0 5 0 0 0 2
148 183 
_sim_empty
2338 
0.0668998433817697 0.16743761923259151 -0.054087058823529398
634 4 2325
657 4 2325
2325 0 5 0 0 0 2
634 657 
_sim_empty
2325 
0.057628843269256505 0.17591970347328648 -0.0500812039018486
636 4 2322
655 4 2322
2322 0 5 0 0 0 2
636 655 
_sim_empty
2322 
0.057628843269256602 0.18654574548755948 -0.023329706775373351
162 4 2319
169 4 2319
2319 0 5 0 0 0 2
162 169 
_sim_empty
2319 
0.0668998433817697 0.18654574548755948 -0.023329706775373351
164 4 2316
167 4 2316
2316 0 5 0 0 0 2
164 167 
_sim_empty
2316 
0.0668998433817697 0.17591970347328648 -0.0500812039018486
198 4 1220
205 4 1220
1220 0 5 0 0 0 2
198 205 
_sim_empty
1220 
0.0668998433817697 0.081713007399819002 0.017237931889398952
200 4 1217
203 4 1217
1217 0 5 0 0 0 2
200 203 
_sim_empty
1217 
0.0668998433817697 0.083265609137818997 -0.0054140938134042407
364 4 1214
376 4 1214
1214 0 5 0 0 0 2
364 376 
_sim_empty
1214 
0.02733234734725655 0.081713007399819002 0.017237931889398952
361 4 1211
377 4 1211
1211 0 5 0 0 0 2
361 377 
_sim_empty
1211 
0.02733234734725655 0.083265609137818997 -0.0054140938134042199
194 4 1198
209 4 1198
1198 0 5 0 0 0 2
194 209 
_sim_empty
1198 
0.0668998433817697 0.055114107071679602 0.01726231908948175
196 4 1195
207 4 1195
1195 0 5 0 0 0 2
196 207 
_sim_empty
1195 
0.0668998433817697 0.073153004121623302 0.024390246794991449
368 4 1192
372 4 1192
1192 0 5 0 0 0 2
368 372 
_sim_empty
1192 
0.02733234734725655 0.055114107071679602 0.017262319089481802
365 4 1189
373 4 1189
1189 0 5 0 0 0 2
365 373 
_sim_empty
1189 
0.02733234734725655 0.073153004121623302 0.024390246794991501
190 4 1176
213 4 1176
1176 0 5 0 0 0 2
190 213 
_sim_empty
1176 
0.0668998433817697 0.051097685108549201 -0.004476480957299165
192 4 1173
211 4 1173
1173 0 5 0 0 0 2
192 211 
_sim_empty
1173 
0.0668998433817697 0.051097685108549097 0.011356651172485381
356 4 1170
384 4 1170
1170 0 5 0 0 0 2
356 384 
_sim_empty
1170 
0.02733234734725655 0.051097685108549201 -0.0044764809572991502
353 4 1167
369 4 1167
1167 0 5 0 0 0 2
353 369 
_sim_empty
1167 
0.02733234734725655 0.051097685108549097 0.011356651172485402
186 4 1154
201 4 1154
1154 0 5 0 0 0 2
186 201 
_sim_empty
1154 
0.0668998433817697 0.076310317029318606 -0.0137760697117874
188 4 1151
215 4 1151
1151 0 5 0 0 0 2
188 215 
_sim_empty
1151 
0.0668998433817697 0.056490494456374898 -0.010753923593866241
360 4 1148
380 4 1148
1148 0 5 0 0 0 2
360 380 
_sim_empty
1148 
0.02733234734725655 0.076310317029318606 -0.01377606971178736
357 4 1145
381 4 1145
1145 0 5 0 0 0 2
357 381 
_sim_empty
1145 
0.02733234734725655 0.056490494456374898 -0.01075392359386622
4 4 672
15 4 672
672 0 5 0 0 0 2
4 15 
_sim_empty
672 
0.057628843269256602 0.0066476851085491302 -0.015408879961800549
38 4 656
46 4 656
656 0 5 0 0 0 2
38 46 
_sim_empty
656 
0.057628843269256602 0.20925231489145102 -0.00056772003819945908
82 4 61
113 4 61
61 0 5 0 0 0 2
82 113 
_sim_empty
61 
0.066899843269256604 0.0066476851085491302 -0.015408879961800549
6 4 62
13 4 62
62 0 5 0 0 0 2
6 13 
_sim_empty
62 
0.02733234734725655 0.0066476851085491302 -0.015408879961800549
260 4 63
272 4 63
63 0 5 0 0 0 2
260 272 
_sim_empty
63 
0.02733234734725655 0.0066476851085491302 0.016341120038199451
112 4 64
116 4 64
64 0 5 0 0 0 2
112 116 
_sim_empty
64 
0.066899843269256604 0.0066476851085491302 0.016341120038199451
293 4 311
1597 4 311
311 0 5 0 0 0 2
293 1597 
_sim_empty
311 
0.027332347459769698 0.20925231489145102 0.029912279961800552
94 4 313
134 4 313
313 0 5 0 0 0 2
94 134 
_sim_empty
313 
0.0668998433817697 0.20925231489145102 0.029912279961800552
91 4 314
135 4 314
314 0 5 0 0 0 2
91 135 
_sim_empty
314 
0.0668998433817697 0.20925231489145102 -0.00056772003819946298
35 4 310
48 4 310
310 0 5 0 0 0 2
35 48 
_sim_empty
310 
0.027332347459769698 0.20925231489145102 -0.00056772003819944401
495 4 773
499 4 773
773 0 5 0 0 0 2
495 499 
_sim_empty
773 
0.057628843269256505 0.077241382638884901 -0.078777891404322897
511 4 775
515 4 775
775 0 5 0 0 0 2
511 515 
_sim_empty
775 
0.057628843269256505 0.096043749999999997 -0.0767306659469187
527 4 777
531 4 777
777 0 5 0 0 0 2
527 531 
_sim_empty
777 
0.057628843269256505 0.15795624999999999 -0.0767306659469187
543 4 779
547 4 779
779 0 5 0 0 0 2
543 547 
_sim_empty
779 
0.057628843269256505 0.18007796299270501 -0.074015348980167706
84 4 776
143 4 776
776 0 5 0 0 0 2
84 143 
_sim_empty
776 
0.066899843269256506 0.077241382638884901 -0.078777891404322897
86 4 778
141 4 778
778 0 5 0 0 0 2
86 141 
_sim_empty
778 
0.066899843269256506 0.096043749999999997 -0.0767306659469187
88 4 780
139 4 780
780 0 5 0 0 0 2
88 139 
_sim_empty
780 
0.066899843269256506 0.15795624999999999 -0.0767306659469187
90 4 782
137 4 782
782 0 5 0 0 0 2
90 137 
_sim_empty
782 
0.066899843269256506 0.18007796299270501 -0.074015348980167803
705 4 3026
712 4 3026
3026 0 5 0 0 0 2
705 712 
_sim_empty
6989 
0.027332347347256543 0.15584680022774583 -0.023225644199779918
711 4 3027
714 4 3027
3027 0 5 0 0 0 2
711 714 
_sim_empty
7014 
0.057628843269256512 0.15584680022774539 -0.02322564419978029
1154 4 3028
2064 4 3028
3028 0 5 0 0 0 2
1154 2064 
_sim_empty
7037 
0.027332347347256574 0.10159999999999993 0.043824167972034027
999 4 3029
1015 4 3029
3029 0 5 0 0 0 2
999 1015 
_sim_empty
7062 
0.066899843269256618 0.10159999999999995 0.043824167972034034
1302 4 3030
1608 4 3030
3030 0 5 0 0 0 2
1302 1608 
_sim_empty
7102 
0.066899843269256631 0.1523999999999999 0.043824167972034131
1459 4 3031
1481 4 3031
3031 0 5 0 0 0 2
1459 1481 
_sim_empty
7127 
0.027332347347256574 0.15239999999999992 0.043824167972034145
1591 4 3032
1613 4 3032
3032 0 5 0 0 0 2
1591 1613 
_sim_empty
7167 
0.027332347347256571 0.18385231489145093 0.029912279961800514
1584 4 3033
1592 4 3033
3033 0 5 0 0 0 2
1584 1592 
_sim_empty
7192 
0.066899843269256618 0.18385231489145082 0.029912279961800532
2036 4 3034
2045 4 3034
3034 0 5 0 0 0 2
2036 2045 
_sim_empty
7232 
0.027332347347256557 0.032047685108549176 0.016341120038199475
1896 4 3035
1904 4 3035
3035 0 5 0 0 0 2
1896 1904 
_sim_empty
7257 
0.066899843269256604 0.032047685108549155 0.016341120038199451
2165 4 3036
2173 4 3036
3036 0 5 0 0 0 2
2165 2173 
_sim_empty
7297 
0.057628843269256491 0.10159999999999998 -0.026014285619092921
2162 4 3037
2174 4 3037
3037 0 5 0 0 0 2
2162 2174 
_sim_empty
7305 
0.027332347347256553 0.10160000000000001 -0.026014285619092921
2415 4 3038
2418 4 3038
3038 0 5 0 0 0 2
2415 2418 
_sim_empty
7345 
0.057628843269256519 0.032047685108548885 -0.015408879961800548
2409 4 3039
2416 4 3039
3039 0 5 0 0 0 2
2409 2416 
_sim_empty
7353 
0.02733234734725655 0.032047685108549218 -0.015408879961800549
2653 4 3040
2661 4 3040
3040 0 5 0 0 0 2
2653 2661 
_sim_empty
7393 
0.057628843269256526 0.18385231489145085 -0.00056772003819939576
2650 4 3041
2662 4 3041
3041 0 5 0 0 0 2
2650 2662 
_sim_empty
7401 
0.027332347347256553 0.18385231489145082 -0.00056772003819944401
118 5 3094 222 220 
135 5 3094 253 255 
3094 1 5 0 1 0 2 3019 2994
118 135 
_sim_empty
3094 
1 2.8048215160100751 0.066899843269256506 0.093823292732958086 -0.031362027921630786
0
394 5 3090 670 668 
411 5 3090 701 703 
3090 1 5 0 1 0 2 3003 3022
394 411 
_sim_empty
3090 
1 0.33677113757971078 0.057628843269256505 0.093823292732958044 -0.031362027921630765
0
120 5 3081 226 224 
133 5 3081 249 251 
3081 1 5 0 1 0 2 2931 3016
120 133 
_sim_empty
3081 
1 1.6066350665473892 0.066899843269256506 0.10328453037187345 -0.040128353118185474
0
402 5 3077 666 684 
403 5 3077 685 687 
3077 1 5 0 1 0 2 3025 2934
402 403 
_sim_empty
3077 
1 1.5349575870424079 0.057628843269256505 0.10328453037187345 -0.040128353118185453
0
126 5 3068 218 236 
127 5 3068 237 239 
3068 1 5 0 1 0 2 2997 2972
126 127 
_sim_empty
3068 
1 4.2709713625638708 0.066899843269256506 0.051882617143152739 -0.029442708798816771
0
396 5 3064 674 672 
409 5 3064 697 699 
3064 1 5 0 1 0 2 2981 3000
396 409 
_sim_empty
3064 
1 5.1538065982055095 0.057628843269256505 0.051882617143152739 -0.029442708798816768
0
124 5 3055 234 232 
129 5 3055 241 243 
3055 1 5 0 1 0 2 2975 2950
124 129 
_sim_empty
3055 
1 5.9174254162116018 0.066899843269256506 0.071295957976794416 -0.052397020604351405
0
398 5 3051 678 676 
407 5 3051 693 695 
3051 1 5 0 1 0 2 2959 2978
398 407 
_sim_empty
3051 
1 3.5073525445577776 0.057628843269256505 0.07129595797679443 -0.052397020604351405
0
122 5 3042 230 228 
131 5 3042 245 247 
3042 1 5 0 1 0 2 2953 2928
122 131 
_sim_empty
3042 
1 0.29695215047937801 0.066899843269256506 0.089746083857624934 -0.052539136796251107
0
400 5 3038 682 680 
405 5 3038 689 691 
3038 1 5 0 1 0 2 2937 2956
400 405 
_sim_empty
3038 
1 2.8446405031104152 0.057628843269256505 0.089746083857624934 -0.052539136796251107
0
656 5 3033 224 666 
657 5 3033 251 685 
3033 1 5 0 1 0 2 3016 3025
656 657 
_sim_empty
3033 
1 -0.0046355000562565002 0.062264343325513102 0.1001060602338068 -0.034852268310168501
0
654 5 3028 668 222 
659 5 3028 703 253 
3028 1 5 0 1 0 2 3022 3019
654 659 
_sim_empty
3028 
1 0.0046355000562565973 0.062264343325513102 0.094892442542452896 -0.031851714316093897
0
648 5 3011 672 218 
649 5 3011 699 237 
3011 1 5 0 1 0 2 3000 2997
648 649 
_sim_empty
3011 
1 0.0046355000562565488 0.062264343325513151 0.058581140832154002 -0.025878123504654196
0
646 5 3006 220 670 
651 5 3006 255 701 
3006 1 5 0 1 0 2 2994 3003
646 651 
_sim_empty
3006 
1 -0.0046355000562565002 0.062264343325513102 0.092682180914696391 -0.031077883771086452
0
640 5 2989 676 234 
641 5 2989 695 241 
2989 1 5 0 1 0 2 2978 2975
640 641 
_sim_empty
2989 
1 0.0046355000562565973 0.062264343325513102 0.069325284095844902 -0.051192475113926106
0
638 5 2984 236 674 
643 5 2984 239 697 
2984 1 5 0 1 0 2 2972 2981
638 643 
_sim_empty
2984 
1 -0.0046355000562565973 0.062264343325513102 0.053382141499422199 -0.036880982431617998
0
632 5 2967 680 230 
633 5 2967 691 245 
2967 1 5 0 1 0 2 2956 2953
632 633 
_sim_empty
2967 
1 0.0046355000562565973 0.062264343325513102 0.087888028666521095 -0.052817058823529398
0
630 5 2962 232 678 
635 5 2962 243 693 
2962 1 5 0 1 0 2 2950 2959
630 635 
_sim_empty
2962 
1 -0.0046355000562565973 0.062264343325513102 0.073567092776402401 -0.052817058823529398
0
664 5 2945 228 682 
665 5 2945 247 689 
2945 1 5 0 1 0 2 2928 2937
664 665 
_sim_empty
2945 
1 -0.0046355000562565973 0.062264343325513102 0.091441495122585009 -0.051729698479218301
0
662 5 2940 684 226 
667 5 2940 687 249 
2940 1 5 0 1 0 2 2934 2931
662 667 
_sim_empty
2940 
1 0.0046354999437434041 0.062264343325513102 0.10049207440993981 -0.0456185200574169
0
399 5 2957 680 678 
406 5 2957 691 693 
2957 1 5 0 1 0 2 2956 2959
399 406 
_sim_empty
2957 
1 0.087547439278538253 0.057628843269256505 0.080727560721461755 -0.052817058823529398
0
397 5 2979 676 674 
408 5 2979 695 697 
2979 1 5 0 1 0 2 2978 2981
397 408 
_sim_empty
2979 
1 0.09646052502042779 0.057628843269256519 0.061353712797633506 -0.044036728772771969
0
395 5 3001 672 670 
410 5 3001 699 701 
3001 1 5 0 1 0 2 3000 3003
395 410 
_sim_empty
3001 
1 -0.097742296189128511 0.057628843269256512 0.075631660873425086 -0.028478003637870335
0
393 5 3023 668 666 
412 5 3023 703 685 
3023 1 5 0 1 0 2 3022 3025
393 412 
_sim_empty
3023 
1 -0.079286862276527009 0.057628843269256512 0.097499251388129884 -0.03335199131313122
0
401 5 2935 684 682 
404 5 2935 687 689 
2935 1 5 0 1 0 2 2934 2937
401 404 
_sim_empty
2935 
1 0.048368900387075184 0.057628843269256595 0.095966784766262359 -0.048674109268317556
0
86 5 2482 158 156 
95 5 2482 173 175 
2482 1 5 0 1 0 2 2407 2382
86 95 
_sim_empty
2482 
1 3.7392358223137947 0.066899843269256604 0.17194839077419447 -0.016415404638766857
0
376 5 2478 642 640 
381 5 2478 649 651 
2478 1 5 0 1 0 2 2391 2410
376 381 
_sim_empty
2478 
1 5.6855421384555846 0.057628843269256602 0.17194839077419447 -0.016415404638766857
0
88 5 2469 162 160 
93 5 2469 169 171 
2469 1 5 0 1 0 2 2319 2404
88 93 
_sim_empty
2469 
1 2.2330479584711016 0.066899843269256604 0.18565193569269869 -0.017080984366526084
0
374 5 2465 638 636 
383 5 2465 653 655 
2465 1 5 0 1 0 2 2413 2322
374 383 
_sim_empty
2465 
1 7.1917300022982786 0.057628843269256602 0.18565193569269869 -0.017080984366526088
0
84 5 2456 154 152 
97 5 2456 177 179 
2456 1 5 0 1 0 2 2385 2360
84 97 
_sim_empty
2456 
1 4.6956005983358446 0.066899843269256506 0.14975610137952342 -0.040890389347317473
0
378 5 2452 626 644 
379 5 2452 645 647 
2452 1 5 0 1 0 2 2369 2388
378 379 
_sim_empty
2452 
1 4.7291773624335338 0.057628843269256505 0.14975610137952342 -0.04089038934731748
0
82 5 2443 150 148 
99 5 2443 181 183 
2443 1 5 0 1 0 2 2363 2338
82 99 
_sim_empty
2443 
1 6.0149064011529738 0.066899843269256506 0.16575441011377909 -0.053859910043536852
0
370 5 2439 630 628 
387 5 2439 661 663 
2439 1 5 0 1 0 2 2347 2366
370 387 
_sim_empty
2439 
1 3.4098715596164055 0.057628843269256505 0.16575441011377909 -0.053859910043536852
0
90 5 2430 146 164 
91 5 2430 165 167 
2430 1 5 0 1 0 2 2341 2316
90 91 
_sim_empty
2430 
1 0.59634742790182582 0.066899843269256506 0.17358453511185867 -0.052991001212218447
0
372 5 2426 634 632 
385 5 2426 657 659 
2426 1 5 0 1 0 2 2325 2344
372 385 
_sim_empty
2426 
1 2.5452452256879674 0.057628843269256505 0.17358453511185867 -0.052991001212218447
0
552 5 2421 160 638 
553 5 2421 171 653 
2421 1 5 0 1 0 2 2404 2413
552 553 
_sim_empty
2421 
1 -0.0046355000562565488 0.062264343325513151 0.17980970204792399 -0.014690642606007501
0
550 5 2416 640 158 
555 5 2416 651 173 
2416 1 5 0 1 0 2 2410 2407
550 555 
_sim_empty
2416 
1 -0.0046355000562565488 0.062264343325513151 0.17468694671774201 -0.015369802509651049
0
584 5 2399 644 154 
585 5 2399 647 177 
2399 1 5 0 1 0 2 2388 2385
584 585 
_sim_empty
2399 
1 0.0046355000562565973 0.062264343325513102 0.15304425557430801 -0.035433441405006899
0
582 5 2394 156 642 
587 5 2394 175 649 
2394 1 5 0 1 0 2 2382 2391
582 587 
_sim_empty
2394 
1 0.0046355000562565488 0.062264343325513151 0.16997128820352098 -0.018579668461267948
0
576 5 2377 628 150 
577 5 2377 663 181 
2377 1 5 0 1 0 2 2366 2363
576 577 
_sim_empty
2377 
1 0.0046355000562565973 0.062264343325513102 0.16419162269506452 -0.053194714591197595
0
574 5 2372 152 626 
579 5 2372 179 645 
2372 1 5 0 1 0 2 2360 2369
574 579 
_sim_empty
2372 
1 0.0046355000562565973 0.062264343325513102 0.15285920998998898 -0.046454646333242998
0
568 5 2355 632 146 
569 5 2355 659 165 
2355 1 5 0 1 0 2 2344 2341
568 569 
_sim_empty
2355 
1 0.0046355000562565973 0.062264343325513102 0.17001822197693398 -0.054087058823529398
0
566 5 2350 148 630 
571 5 2350 183 661 
2350 1 5 0 1 0 2 2338 2347
566 571 
_sim_empty
2350 
1 -0.0046355000562565973 0.062264343325513102 0.16743761923259151 -0.054087058823529398
0
560 5 2333 164 634 
561 5 2333 167 657 
2333 1 5 0 1 0 2 2316 2325
560 561 
_sim_empty
2333 
1 -0.0046355000562565973 0.062264343325513102 0.17591970347328648 -0.0500812039018486
0
558 5 2328 636 162 
563 5 2328 655 169 
2328 1 5 0 1 0 2 2322 2319
558 563 
_sim_empty
2328 
1 0.0046355000562565488 0.062264343325513151 0.18654574548755948 -0.023329706775373348
0
375 5 2411 640 638 
382 5 2411 651 653 
2411 1 5 0 1 0 2 2410 2413
375 382 
_sim_empty
2411 
1 0.016031562859159472 0.057628843269256602 0.177248324382833 -0.01503022255782924
0
373 5 2323 636 634 
384 5 2323 655 657 
2323 1 5 0 1 0 2 2322 2325
373 384 
_sim_empty
2323 
1 -0.035100878018046691 0.057628843269256512 0.18123272448042288 -0.036705455338610964
0
371 5 2345 632 630 
386 5 2345 659 661 
2345 1 5 0 1 0 2 2344 2347
371 386 
_sim_empty
2345 
1 -0.00045292060476273543 0.057628843269256505 0.16872792060476274 -0.054087058823529398
0
369 5 2367 628 626 
388 5 2367 663 645 
2367 1 5 0 1 0 2 2366 2369
369 388 
_sim_empty
2367 
1 0.018348743955106529 0.057628843269256505 0.1585254163425267 -0.049824680462220342
0
377 5 2389 644 642 
380 5 2389 647 649 
2389 1 5 0 1 0 2 2388 2391
377 380 
_sim_empty
2389 
1 2.3583631646623768 0.057628843269256595 0.16269637229831593 -0.028200321930010881
0
106 5 1292 198 196 
111 5 1292 205 207 
1292 1 5 0 1 0 2 1220 1195
106 111 
_sim_empty
1292 
1 2.4455473193809003 0.066899843269256604 0.079558125719171147 0.023357466423742278
0
202 5 1284 365 364 
207 5 1284 373 376 
1284 1 5 0 1 0 2 1189 1214
202 207 
_sim_empty
1284 
1 6.9792306413884804 0.02733234734725655 0.079558125719171147 0.023357466423742274
0
108 5 1275 186 200 
109 5 1275 201 203 
1275 1 5 0 1 0 2 1154 1217
108 109 
_sim_empty
1275 
1 7.1601630560440475 0.066899843269256604 0.08214944947397039 -0.011559309817673932
0
200 5 1267 361 360 
209 5 1267 377 380 
1267 1 5 0 1 0 2 1211 1148
200 209 
_sim_empty
1267 
1 2.2646149047253323 0.02733234734725655 0.082149449473970376 -0.011559309817673913
0
104 5 1258 194 192 
113 5 1258 209 211 
1258 1 5 0 1 0 2 1198 1173
104 113 
_sim_empty
1258 
1 4.1151465829810423 0.066899843269256604 0.052196936565049729 0.01492766499672905
0
204 5 1250 353 368 
205 5 1250 369 372 
1250 1 5 0 1 0 2 1167 1192
204 205 
_sim_empty
1250 
1 5.3096313777883406 0.02733234734725655 0.052196936565049742 0.014927664996729068
0
102 5 1241 190 188 
115 5 1241 213 215 
1241 1 5 0 1 0 2 1176 1151
102 115 
_sim_empty
1241 
1 5.4221294169293017 0.066899843269256604 0.052631012987607875 -0.0086143753106323398
0
198 5 1233 357 356 
211 5 1233 381 384 
1233 1 5 0 1 0 2 1145 1170
198 211 
_sim_empty
1233 
1 4.0026485438400776 0.02733234734725655 0.052631012987607882 -0.0086143753106323259
0
432 5 1228 200 361 
433 5 1228 203 377 
1228 1 5 0 1 0 2 1217 1211
432 433 
_sim_empty
1228 
1 0.019783748017256575 0.047116095364513125 0.083265609137818997 -0.0054140938134042329
0
430 5 1223 364 198 
435 5 1223 376 205 
1223 1 5 0 1 0 2 1214 1220
430 435 
_sim_empty
1223 
1 0.019783748017256575 0.047116095364513125 0.081713007399819002 0.017237931889398959
0
424 5 1206 368 194 
425 5 1206 372 209 
1206 1 5 0 1 0 2 1192 1198
424 425 
_sim_empty
1206 
1 0.019783748017256575 0.047116095364513125 0.055114107071679602 0.017262319089481757
0
422 5 1201 196 365 
427 5 1201 207 373 
1201 1 5 0 1 0 2 1195 1189
422 427 
_sim_empty
1201 
1 0.019783748017256575 0.047116095364513125 0.073153004121623302 0.024390246794991494
0
448 5 1184 356 190 
449 5 1184 384 213 
1184 1 5 0 1 0 2 1170 1176
448 449 
_sim_empty
1184 
1 0.019783747904743479 0.047116095364513125 0.051097685108549201 -0.0044764809572991572
0
446 5 1179 192 353 
451 5 1179 211 369 
1179 1 5 0 1 0 2 1173 1167
446 451 
_sim_empty
1179 
1 -0.019783748017256575 0.047116095364513125 0.051097685108549097 0.011356651172485395
0
440 5 1162 188 357 
441 5 1162 215 381 
1162 1 5 0 1 0 2 1151 1145
440 441 
_sim_empty
1162 
1 -0.019783748017256575 0.047116095364513125 0.056490494456374898 -0.010753923593866227
0
438 5 1157 360 186 
443 5 1157 380 201 
1157 1 5 0 1 0 2 1148 1154
438 443 
_sim_empty
1157 
1 -0.019783748017256575 0.047116095364513125 0.076310317029318606 -0.013776069711787393
0
2 5 45 6 4 
7 5 45 13 15 
45 1 5 0 1 0 2 62 672
2 7 
_sim_empty
45 
1 -0.024419247961000028 0.042480595308256576 0.0066476851085491302 -0.015408879961800546
0
155 5 49 260 6 
194 5 49 272 13 
49 1 5 0 1 0 2 63 62
155 194 
_sim_empty
49 
1 -0.015875 0.027332347347256553 0.0066476851085491302 0.00046612003819945097
0
144 5 53 112 260 
149 5 53 116 272 
53 1 5 0 1 0 2 64 63
144 149 
_sim_empty
53 
1 0.019783747961000027 0.047116095308256577 0.0066476851085491302 0.016341120038199465
0
64 5 57 82 112 
65 5 57 113 116 
57 1 5 0 1 0 2 61 64
64 65 
_sim_empty
57 
1 0.015875 0.066899843269256604 0.0066476851085491302 0.00046612003819945097
0
225 5 147 -1 -1 
226 5 147 -1 -1 
147 1 5 0 1 0 2 -1 -1
225 226 
_sim_empty
147 
1 3.1415926535897931 0.0546646946945131 0.028872685108549151 0.004762499999999982
0
223 5 150 -1 -1 
224 5 150 -1 -1 
150 1 5 0 1 0 2 -1 -1
223 224 
_sim_empty
150 
1 3.1415926535897931 0.0546646946945131 0.0066476851085491302 0.004762499999999982
0
250 5 295 94 293 
255 5 295 134 1597 
295 1 5 0 1 0 2 313 311
250 255 
_sim_empty
295 
1 -0.019783747960999999 0.047116095420769694 0.20925231489145102 0.029912279961800542
0
54 5 294 91 94 
75 5 294 135 134 
294 1 5 0 1 0 2 314 313
54 75 
_sim_empty
294 
1 0.015240000000000007 0.066899843381769714 0.20925231489145102 0.014672279961800544
0
22 5 293 35 38 
27 5 293 48 46 
293 1 5 0 1 0 2 310 656
22 27 
_sim_empty
293 
1 0.015148247904743452 0.042480595364513152 0.20925231489145102 -0.00056772003819945127
0
165 5 292 293 35 
184 5 292 1597 48 
292 1 5 0 1 0 2 311 310
165 184 
_sim_empty
292 
1 -0.015239999999999998 0.027332347459769705 0.20925231489145102 0.014672279961800554
0
269 5 297 -1 -1 
270 5 297 -1 -1 
297 1 5 0 1 0 2 -1 -1
269 270 
_sim_empty
297 
1 3.1415926535897931 0.039567496034513143 0.18702731489145102 0.0103759
0
267 5 296 -1 -1 
268 5 296 -1 -1 
296 1 5 0 1 0 2 -1 -1
267 268 
_sim_empty
296 
1 3.1415926535897931 0.039567496034513143 0.20925231489145102 0.0103759
0
195 5 488 -1 -1 
196 5 488 -1 -1 
488 1 5 0 1 0 2 -1 -1
195 196 
_sim_empty
488 
1 3.1415926535897931 0.027332347347256564 0.127 0.046395341176470588
0
137 5 567 -1 -1 
138 5 567 -1 -1 
567 1 5 0 1 0 2 -1 -1
137 138 
_sim_empty
567 
1 3.1415926535897931 0.06689984326925659 0.127 -0.02858545882352944
0
217 5 704 4 82 
218 5 704 15 113 
704 1 5 0 1 0 2 672 61
217 218 
_sim_empty
704 
1 0.0046355000000000007 0.062264343269256603 0.0066476851085491302 -0.015408879961800551
0
304 5 708 495 84 
305 5 708 499 143 
708 1 5 0 1 0 2 773 776
304 305 
_sim_empty
708 
1 0.0046355000000000007 0.062264343269256506 0.077241382638884901 -0.078777891404322897
0
312 5 712 511 86 
313 5 712 515 141 
712 1 5 0 1 0 2 775 778
312 313 
_sim_empty
712 
1 0.0046355000000000007 0.062264343269256506 0.096043749999999997 -0.0767306659469187
0
320 5 716 527 88 
321 5 716 531 139 
716 1 5 0 1 0 2 777 780
320 321 
_sim_empty
716 
1 0.0046355000000000007 0.062264343269256506 0.15795624999999999 -0.0767306659469187
0
328 5 720 543 90 
329 5 720 547 137 
720 1 5 0 1 0 2 779 782
328 329 
_sim_empty
720 
1 0.0046355000000000007 0.062264343269256506 0.18007796299270501 -0.074015348980167706
0
260 5 684 38 91 
263 5 684 46 135 
684 1 5 0 1 0 2 656 314
260 263 
_sim_empty
684 
1 0.0046355000562565488 0.062264343325513151 0.20925231489145102 -0.00056772003819946222
0
303 5 701 495 4 
306 5 701 499 15 
701 1 5 0 1 0 2 773 672
303 306 
_sim_empty
701 
1 -0.047431797726332998 0.057628843269256595 0.041944533873717063 -0.047093385683061741
0
311 5 705 511 495 
314 5 705 515 499 
705 1 5 0 1 0 2 775 773
311 314 
_sim_empty
705 
1 6.1747312790276343 0.057628843269256505 0.087099667584885937 -0.0819524415516317
0
319 5 709 527 511 
322 5 709 531 515 
709 1 5 0 1 0 2 777 775
319 322 
_sim_empty
709 
1 3.1415926535897931 0.057628843269256512 0.127 -0.060841487317086405
0
327 5 713 543 527 
330 5 713 547 531 
713 1 5 0 1 0 2 779 777
327 330 
_sim_empty
713 
1 3.0194591448079007 0.057628843269256505 0.16982224225944423 -0.081932456135418857
0
335 5 717 38 543 
338 5 717 46 547 
717 1 5 0 1 0 2 656 779
335 338 
_sim_empty
717 
1 0.039514861147133339 0.057628843269256595 0.19466513894207818 -0.03729153450918362
0
49 5 742 84 82 
80 5 742 143 113 
742 1 5 0 1 0 2 776 61
49 80 
_sim_empty
742 
1 -0.047431797726332998 0.06689984326925659 0.041944533873717063 -0.047093385683061741
0
50 5 739 86 84 
79 5 739 141 143 
739 1 5 0 1 0 2 778 776
50 79 
_sim_empty
739 
1 6.1747312790276343 0.066899843269256506 0.087099667584885937 -0.0819524415516317
0
51 5 736 88 86 
78 5 736 139 141 
736 1 5 0 1 0 2 780 778
51 78 
_sim_empty
736 
1 3.1415926535897931 0.06689984326925652 0.127 -0.060841487317086405
0
52 5 733 90 88 
77 5 733 137 139 
733 1 5 0 1 0 2 782 780
52 77 
_sim_empty
733 
1 3.0194591448079042 0.066899843269256506 0.16982224225944417 -0.081932456135418857
0
53 5 730 91 90 
76 5 730 135 137 
730 1 5 0 1 0 2 314 782
53 76 
_sim_empty
730 
1 0.039514861147133387 0.06689984326925659 0.19466513894207815 -0.037291534509183669
0
391 5 724 -1 -1 
392 5 724 -1 -1 
724 1 5 0 1 0 2 -1 -1
391 392 
_sim_empty
724 
1 3.1415926535897931 0.057628843269256505 0.16827500000000001 -0.074280058823529393
0
141 5 757 -1 -1 
142 5 757 -1 -1 
757 1 5 0 1 0 2 -1 -1
141 142 
_sim_empty
757 
1 3.1415926535897931 0.066899843269256506 0.16827500000000001 -0.074280058823529393
0
389 5 721 -1 -1 
390 5 721 -1 -1 
721 1 5 0 1 0 2 -1 -1
389 390 
_sim_empty
721 
1 3.1415926535897931 0.057628843269256505 0.085724999999999996 -0.074280058823529393
0
139 5 760 -1 -1 
140 5 760 -1 -1 
760 1 5 0 1 0 2 -1 -1
139 140 
_sim_empty
760 
1 3.1415926535897931 0.066899843269256506 0.085724999999999996 -0.074280058823529393
0
107 5 1218 200 198 
110 5 1218 203 205 
1218 1 5 0 1 0 2 1217 1220
107 110 
_sim_empty
1218 
1 1.5023619512802959 0.0668998433817697 0.080973771250354765 0.0058080419967233114
0
101 5 1152 188 186 
116 5 1152 215 201 
1152 1 5 0 1 0 2 1151 1154
101 116 
_sim_empty
1152 
1 -0.022269702111992806 0.0668998433817697 0.066400405742846738 -0.012264996652826833
0
103 5 1174 192 190 
114 5 1174 211 213 
1174 1 5 0 1 0 2 1173 1176
103 114 
_sim_empty
1174 
1 0.012235176563203241 0.0668998433817697 0.051097685108549104 0.003440085107593107
0
105 5 1196 196 194 
112 5 1196 207 209 
1196 1 5 0 1 0 2 1195 1198
105 112 
_sim_empty
1196 
1 -0.014016666491052999 0.0668998433817697 0.064133555596651445 0.020826282942236637
0
201 5 1212 361 364 
208 5 1212 377 376 
1212 1 5 0 1 0 2 1211 1214
201 208 
_sim_empty
1212 
1 1.5023619512802957 0.02733234734725655 0.080973771250354765 0.0058080419967233236
0
199 5 1146 357 360 
210 5 1146 381 380 
1146 1 5 0 1 0 2 1145 1148
199 210 
_sim_empty
1146 
1 -0.022269702111992806 0.027332347347256553 0.066400405742846738 -0.012264996652826782
0
197 5 1168 353 356 
212 5 1168 369 384 
1168 1 5 0 1 0 2 1167 1170
197 212 
_sim_empty
1168 
1 0.012235176563203224 0.027332347347256546 0.051097685108549104 0.0034400851075931244
0
203 5 1190 365 368 
206 5 1190 373 372 
1190 1 5 0 1 0 2 1189 1192
203 206 
_sim_empty
1190 
1 -0.014016666491053018 0.027332347347256553 0.064133555596651459 0.020826282942236644
0
89 5 2317 164 162 
92 5 2317 167 169 
2317 1 5 0 1 0 2 2316 2319
89 92 
_sim_empty
2317 
1 -0.025219026654509921 0.066899843381769686 0.18123272448042302 -0.036705455338610977
0
81 5 2339 148 146 
100 5 2339 183 165 
2339 1 5 0 1 0 2 2338 2341
81 100 
_sim_empty
2339 
1 -0.0056006052794857486 0.0668998433817697 0.16872792060476274 -0.054087058823529398
0
83 5 2361 152 150 
98 5 2361 179 181 
2361 1 5 0 1 0 2 2360 2363
83 98 
_sim_empty
2361 
1 -0.0083383029776525688 0.0668998433817697 0.15852541634252673 -0.049824680462220328
0
85 5 2383 156 154 
96 5 2383 175 177 
2383 1 5 0 1 0 2 2382 2385
85 96 
_sim_empty
2383 
1 5.4999558182521699 0.066899843381769686 0.16269637229831596 -0.028200321930010881
0
87 5 2405 160 158 
94 5 2405 171 173 
2405 1 5 0 1 0 2 2404 2407
87 94 
_sim_empty
2405 
1 -0.0059158089343617215 0.0668998433817697 0.177248324382833 -0.015030222557829253
0
125 5 2973 236 234 
128 5 2973 239 241 
2973 1 5 0 1 0 2 2972 2975
125 128 
_sim_empty
2973 
1 0.031983491076734399 0.066899843381769686 0.061353712797633561 -0.044036728772772073
0
117 5 2995 220 218 
136 5 2995 255 237 
2995 1 5 0 1 0 2 2994 2997
117 136 
_sim_empty
2995 
1 0.018438930410301091 0.0668998433817697 0.075631660873425183 -0.028478003637870335
0
119 5 3017 224 222 
134 5 3017 251 253 
3017 1 5 0 1 0 2 3016 3019
119 134 
_sim_empty
3017 
1 -0.0041990371875043168 0.0668998433817697 0.097499251388129843 -0.033351991313131213
0
121 5 2929 228 226 
132 5 2929 247 249 
2929 1 5 0 1 0 2 2928 2931
121 132 
_sim_empty
2929 
1 -0.015632375966252433 0.0668998433817697 0.095966784766262414 -0.048674109268317604
0
123 5 2951 232 230 
130 5 2951 243 245 
2951 1 5 0 1 0 2 2950 2953
123 130 
_sim_empty
2951 
1 0.0095924745094441502 0.0668998433817697 0.080727560721461755 -0.052817058823529398
0
9 5 3298 -1 -1 
10 5 3298 -1 -1 
3298 1 5 0 1 0 2 -1 -1
9 10 
_sim_empty
3298 
1 3.1415926535897931 0.036857347347256549 0.021379685108549151 -0.015408879961800549
0
151 5 3302 -1 -1 
152 5 3302 -1 -1 
3302 1 5 0 1 0 2 -1 -1
151 152 
_sim_empty
3302 
1 3.1415926535897931 0.036857347347256549 0.021379685108549151 0.016341120038199448
0
11 5 3342 -1 -1 
12 5 3342 -1 -1 
3342 1 5 0 1 0 2 -1 -1
11 12 
_sim_empty
3342 
1 3.1415926535897931 0.048287347347256496 0.016807685108549152 -0.015408879961800549
0
153 5 3346 -1 -1 
154 5 3346 -1 -1 
3346 1 5 0 1 0 2 -1 -1
153 154 
_sim_empty
3346 
1 3.1415926535897931 0.0482873473472566 0.016807685108549152 0.016341120038199448
0
717 5 3392 -1 -1 
718 5 3392 -1 -1 
3392 1 5 0 1 0 2 -1 -1
717 718 
_sim_empty
3392 
1 3.1415926535897931 0.03956749603451315 0.17432731489145101 0.0117649625
0
275 5 3395 -1 -1 
276 5 3395 -1 -1 
3395 1 5 0 1 0 2 -1 -1
275 276 
_sim_empty
3395 
1 3.1415926535897931 0.03956749603451315 0.18702731489145102 0.0117649625
0
723 5 3433 -1 -1 
724 5 3433 -1 -1 
3433 1 5 0 1 0 2 -1 -1
723 724 
_sim_empty
3433 
1 3.1415926535897931 0.0546646946945131 0.041572685108549147 0.0033734374999999824
0
231 5 3436 -1 -1 
232 5 3436 -1 -1 
3436 1 5 0 1 0 2 -1 -1
231 232 
_sim_empty
3436 
1 3.1415926535897931 0.0546646946945131 0.028872685108549151 0.0033734374999999824
0
728 5 3437 705 711 
729 5 3437 712 714 
3437 1 5 0 1 0 2 3026 3027
728 729 
_sim_empty
7017 
1 0.13727973109502734 0.042480595308256527 0.15584680022774541 -0.023225644199780317
0
962 5 3438 1154 999 
963 5 3438 2064 1015 
3438 1 5 0 1 0 2 3028 3029
962 963 
_sim_empty
7087 
1 0.14191523109502738 0.047116095308256598 0.10159999999999984 0.043824167972033971
0
1038 5 1616 1302 999 
1047 5 1616 1608 1015 
1616 1 5 0 1 0 2 3030 3029
1038 1047 
_sim_empty
1616 
1 6.2831853071795845 0.066899843381769727 0.12699999999999992 0.052084941176470563
0
1129 5 1610 1459 1154 
1132 5 1610 1481 2064 
1610 1 5 0 1 0 2 3031 3028
1129 1132 
_sim_empty
1610 
1 3.1415926535897953 0.027332347459769722 0.12699999999999992 0.052084941176470591
0
1122 5 3439 1302 1459 
1123 5 3439 1608 1481 
3439 1 5 0 1 0 2 3030 3031
1122 1123 
_sim_empty
7152 
1 0.14191523109502741 0.047116095308256625 0.1524000000000002 0.04382416797203393
0
1189 5 1657 1591 293 
1192 5 1657 1613 1597 
1657 1 5 0 1 0 2 3032 311
1189 1192 
_sim_empty
1657 
1 0.012699999999999961 0.027332347459769698 0.19655231489145097 0.029912279961800552
0
1197 5 1638 1591 1459 
1200 5 1638 1613 1481 
1638 1 5 0 1 0 2 3032 3031
1197 1200 
_sim_empty
1638 
1 -0.13884311696042731 0.027332347459769677 0.16812615744572534 0.036868223966917357
0
1187 5 1654 1584 94 
1194 5 1654 1592 134 
1654 1 5 0 1 0 2 3033 313
1187 1194 
_sim_empty
1654 
1 0.012699999999999906 0.0668998433817697 0.19655231489145092 0.029912279961800552
0
1195 5 1632 1584 1302 
1202 5 1632 1592 1608 
1632 1 5 0 1 0 2 3033 3030
1195 1202 
_sim_empty
1632 
1 -0.13884311696042725 0.066899843381769672 0.16812615744572523 0.03686822396691735
0
1190 5 3440 1584 1591 
1191 5 3440 1592 1613 
3440 1 5 0 1 0 2 3033 3032
1190 1191 
_sim_empty
7217 
1 -0.019783747848486893 0.047116095308256584 0.18385231489145101 0.029912279961800542
0
1350 5 1583 1896 999 
1355 5 1583 1904 1015 
1583 1 5 0 1 0 2 3035 3029
1350 1355 
_sim_empty
1583 
1 0.037392654460779398 0.066899843269256604 0.066823842554274565 0.030082644005116746
0
1351 5 1602 1896 112 
1354 5 1602 1904 116 
1602 1 5 0 1 0 2 3035 64
1351 1354 
_sim_empty
1602 
1 0.012700000000000006 0.066899843269256604 0.019347685108549142 0.016341120038199451
0
1427 5 1599 2036 260 
1434 5 1599 2045 272 
1599 1 5 0 1 0 2 3034 63
1427 1434 
_sim_empty
1599 
1 0.012699999999999996 0.02733234734725655 0.019347685108549152 0.016341120038199451
0
1441 5 1577 2036 1154 
1444 5 1577 2045 2064 
1577 1 5 0 1 0 2 3034 3028
1441 1444 
_sim_empty
1577 
1 0.037392654460779405 0.027332347459769705 0.066823842554274579 0.030082644005116749
0
1430 5 3441 1896 2036 
1431 5 3441 1904 2045 
3441 1 5 0 1 0 2 3035 3034
1430 1431 
_sim_empty
7282 
1 0.11834811314730839 0.047116095308256584 0.032047685108549065 0.016341120038199423
0
1503 5 1537 2162 705 
1510 5 1537 2174 712 
1537 1 5 0 1 0 2 3037 3026
1503 1510 
_sim_empty
1537 
1 6.3345466564550277 0.027332347459769674 0.12921680810939382 -0.034218117177571582
0
1505 5 1500 2165 711 
1508 5 1500 2173 714 
1500 1 5 0 1 0 2 3036 3027
1505 1508 
_sim_empty
1500 
1 6.3345466564550206 0.057628843269256588 0.12921680810939351 -0.034218117177571616
0
1496 5 3442 2162 2165 
1501 5 3442 2174 2173 
3442 1 5 0 1 0 2 3037 3036
1496 1501 
_sim_empty
7330 
1 0.13727973109502734 0.042480595308256527 0.10159999999999998 -0.0260142856190929
0
1627 5 1469 2415 2165 
1630 5 1469 2418 2173 
1469 1 5 0 1 0 2 3038 3036
1627 1630 
_sim_empty
1469 
1 0.035178115128284046 0.057628843269256602 0.066823842554274454 -0.020711582790446714
0
1635 5 1529 2409 6 
1638 5 1529 2416 13 
1529 1 5 0 1 0 2 3039 62
1635 1638 
_sim_empty
1529 
1 0.012699999999999975 0.02733234734725655 0.019347685108549173 -0.015408879961800549
0
1633 5 697 4 2415 
1640 5 697 15 2418 
697 1 5 0 1 0 2 672 3038
1633 1640 
_sim_empty
697 
1 0.012699999999999878 0.057628843269256602 0.019347685108549006 -0.015408879961800551
0
1625 5 1475 2162 2409 
1632 5 1475 2174 2416 
1475 1 5 0 1 0 2 3037 3039
1625 1632 
_sim_empty
1475 
1 -0.035178115128284226 0.027332347459769646 0.066823842554274634 -0.020711582790446739
0
1628 5 3443 2409 2415 
1629 5 3443 2416 2418 
3443 1 5 0 1 0 2 3039 3038
1628 1629 
_sim_empty
7378 
1 -0.11371261314730835 0.042480595308256541 0.032047685108548961 -0.015408879961800515
0
1755 5 1553 2650 705 
1762 5 1553 2662 712 
1553 1 5 0 1 0 2 3041 3026
1755 1762 
_sim_empty
1553 
1 -0.12456240818258257 0.027332347459769677 0.1698495575595983 -0.011896682118989615
0
1765 5 1491 2653 38 
1768 5 1491 2661 46 
1491 1 5 0 1 0 2 3040 656
1765 1768 
_sim_empty
1491 
1 0.01269999999999992 0.057628843269256602 0.19655231489145092 -0.00056772003819946103
0
1763 5 1569 2650 35 
1770 5 1569 2662 48 
1569 1 5 0 1 0 2 3041 310
1763 1770 
_sim_empty
1569 
1 0.012699999999999906 0.027332347459769698 0.19655231489145092 -0.00056772003819944401
0
1757 5 1494 711 2653 
1760 5 1494 714 2661 
1494 1 5 0 1 0 2 3027 3040
1757 1760 
_sim_empty
1494 
1 0.018011734917068929 0.057628843269256602 0.16984955755959807 -0.011896682118989801
0
1756 5 3444 2650 2653 
1761 5 3444 2662 2661 
3444 1 5 0 1 0 2 3041 3040
1756 1761 
_sim_empty
7426 
1 -0.015148247848486842 0.042480595308256541 0.18385231489145101 -0.00056772003819945127
0
45 6 43 1 0 46
5 57 64 1 53 144 1 49 155 1 45 2 1 704 217 1 47 6 43 1 0 48
1 150 223 1 46 6 43 0 0 45
5 704 218 0 45 7 0 49 194 0 53 149 0 57 65 0 48 6 43 0 0 47
1 150 224 0 43 2 5 0 2 0
2 45 47 
0

  2 46 48 
0

0
_sim_empty
43 
1 -0.015405311589458947 -0.010509741923643328 0.044154952770869768 0.0066476851085491302 -0.015405311589458957
0
49 6 153 1 0 50
1 147 225 1 51 6 153 1 0 52
1 150 223 0 50 6 153 0 0 49
1 147 226 0 52 6 153 0 0 51
1 150 224 1 153 2 5 0 2 0
2 49 51 
0

  2 50 52 
0

0
_sim_empty
153 
1 0.00070616518637188442 0.009449230911070132 0.05466805780593368 0.019423454197479019 -0.0047624988125438677
0
53 6 158 1 0 54
1 147 225 0 55 6 158 1 0 56
1 3436 231 1 54 6 158 0 0 53
1 147 226 1 56 6 158 0 0 55
1 3436 232 0 158 2 5 0 2 0
2 53 55 
0

  2 54 56 
0

0
_sim_empty
158 
1 0.0044301637630057115 0.00056450404872198344 0.055229198743235085 0.028872685108549151 -0.0044301637630057298
0
63 6 344 1 0 64
5 292 165 0 295 250 0 294 54 0 684 260 0 293 22 0 65 6 344 1 0 66
1 296 267 1 64 6 344 0 0 63
5 293 27 1 684 263 1 294 75 1 295 255 1 292 184 1 66 6 344 0 0 65
1 296 268 0 344 2 5 0 2 0
2 63 65 
0

  2 64 66 
0

0
_sim_empty
344 
1 -0.029908854324352637 -0.010509741811130211 0.044154952883382906 0.20925231489145102 0.029908854324352627
0
67 6 348 1 0 68
1 297 269 1 69 6 348 1 0 70
1 296 267 0 68 6 348 0 0 67
1 297 270 0 70 6 348 0 0 69
1 296 268 1 348 2 5 0 2 0
2 67 69 
0

  2 68 70 
0

0
_sim_empty
348 
1 0.00070616518637188442 0.0094492309110701198 0.039570859145933737 0.19647654580252114 0.019900898812543848
0
71 6 352 1 0 72
1 297 269 0 73 6 352 1 0 74
1 3395 275 1 72 6 352 0 0 71
1 297 270 1 74 6 352 0 0 73
1 3395 276 0 352 2 5 0 2 0
2 71 73 
0

  2 72 74 
0

0
_sim_empty
352 
1 0.0044301637630057107 0.00056450404872198344 0.040132000083235135 0.18702731489145102 0.019568563763005711
0
93 6 803 1 0 94
4 742 49 1 704 217 0 701 303 0 708 304 1 94 6 803 0 0 93
4 708 305 0 701 306 1 704 218 1 742 80 0 803 2 5 0 2 0
1 93 
0

  1 94 
0

0
_sim_empty
803 
1 1.0661689141364717e-05 0.0039416791800463424 0.061570522449302945 0.0066556191116281466 -0.015416001984721692
0
95 6 807 1 0 96
4 739 50 1 708 304 0 705 311 0 712 312 1 96 6 807 0 0 95
4 712 313 0 705 314 1 708 305 1 739 79 0 807 2 5 0 2 0
1 95 
0

  1 96 
0

0
_sim_empty
807 
1 3.6120720454497133 0.0091786788343995278 0.066807522103656036 0.091482083277558426 -0.080647217485635553
0
97 6 811 1 0 98
4 736 51 1 712 312 0 709 319 0 716 320 1 98 6 811 0 0 97
4 716 321 0 709 322 1 712 313 1 736 78 0 811 2 5 0 2 0
1 97 
0

  1 98 
0

0
_sim_empty
811 
1 0.00070616518637188442 0.0039416791800463893 0.061570522449302903 0.12697309510863533 -0.060841496816735612
0
99 6 815 1 0 100
4 733 52 1 716 320 0 713 327 0 720 328 1 100 6 815 0 0 99
4 720 329 0 713 330 1 716 321 1 733 77 0 815 2 5 0 2 0
1 99 
0

  1 100 
0

0
_sim_empty
815 
1 3.6120720454497133 0.0091786788343995278 0.066807522103656036 0.17403208327755845 -0.080647217485635553
0
101 6 819 1 0 102
4 730 53 1 720 328 0 717 335 0 684 260 1 102 6 819 0 0 101
4 684 263 0 717 338 1 720 329 1 730 76 0 819 2 5 0 2 0
1 101 
0

  1 102 
0

0
_sim_empty
819 
1 -0.07902084016906355 0.0039416792278827118 0.061570522497139263 0.18008124188878091 -0.07400709422465053
0
113 6 833 1 0 114
1 724 391 1 115 6 833 1 0 116
1 757 141 0 114 6 833 0 0 113
1 724 392 0 116 6 833 0 0 115
1 757 142 1 833 2 5 0 2 0
2 113 115 
0

  2 114 116 
0

0
_sim_empty
833 
1 0.00070616518637188442 0.0039416791800463936 0.061570522449302896 0.16827150236412261 -0.064374060058483784
0
117 6 838 1 0 118
1 721 389 1 119 6 838 1 0 120
1 760 139 0 118 6 838 0 0 117
1 721 390 0 120 6 838 0 0 119
1 760 140 1 838 2 5 0 2 0
2 117 119 
0

  2 118 120 
0

0
_sim_empty
838 
1 0.00070616518637188442 0.0039416791800463936 0.061570522449302896 0.085721502364122584 -0.064374060058483784
0
121 6 1071 1 0 122
4 1190 203 0 1201 422 0 1196 105 1 1206 424 0 122 6 1071 0 0 121
4 1206 425 1 1196 112 0 1201 427 1 1190 206 1 1071 2 5 0 2 0
1 121 
0

  1 122 
0

0
_sim_empty
1071 
1 -0.023712542560974784 -0.022744890563063624 0.044154952818706066 0.07315097673575538 0.024389445689477273
0
123 6 1075 1 0 124
4 1218 107 1 1223 430 0 1212 201 0 1228 432 0 124 6 1075 0 0 123
4 1228 433 1 1212 208 1 1223 435 1 1218 110 0 1075 2 5 0 2 0
1 123 
0

  1 124 
0

0
_sim_empty
1075 
1 1.2363221653326137 0.019783748017256568 0.047116095364513125 0.083265602572364317 -0.0054140749217445692
0
125 6 1079 1 0 126
4 1152 101 1 1157 438 0 1146 199 0 1162 440 0 126 6 1079 0 0 125
4 1162 441 1 1146 210 1 1157 443 1 1152 116 0 1079 2 5 0 2 0
1 125 
0

  1 126 
0

0
_sim_empty
1079 
1 -0.032291903095762332 -0.02274489056306362 0.044154952818706066 0.056492721999892512 -0.010754263251901503
0
127 6 1083 1 0 128
4 1168 197 0 1179 446 0 1174 103 1 1184 448 0 128 6 1083 0 0 127
4 1184 449 1 1174 114 0 1179 451 1 1168 212 1 1083 2 5 0 2 0
1 127 
0

  1 128 
0

0
_sim_empty
1083 
1 0.0043203899789652309 -0.022744890563063606 0.044154952818706093 0.051097685108549104 0.011354871691831133
0
129 6 1360 1 0 130
4 1241 102 1 1162 440 1 1233 198 1 1184 448 1 130 6 1360 0 0 129
4 1184 449 0 1233 211 0 1162 441 0 1241 115 0 1360 2 5 0 2 0
1 129 
0

  1 130 
0

0
_sim_empty
1360 
1 1.9762554724417292 -0.011175354250573741 0.055724489131195959 0.051612534292886245 -0.006981179533668766
0
131 6 1381 1 0 132
4 1258 104 1 1179 446 1 1250 204 1 1206 424 1 132 6 1381 0 0 131
4 1206 425 0 1250 205 0 1179 451 0 1258 113 0 1381 2 5 0 2 0
1 131 
0

  1 132 
0

0
_sim_empty
1381 
1 0.37631468159389692 -0.019783748017256578 0.047116095364513125 0.055114088471162295 0.017262311739600404
0
133 6 1402 1 0 134
4 1275 108 1 1228 432 1 1267 200 1 1157 438 1 134 6 1402 0 0 133
4 1157 443 0 1267 209 0 1228 433 0 1275 109 0 1402 2 5 0 2 0
1 133 
0

  1 134 
0

0
_sim_empty
1402 
1 0.00070616518637188442 0.01682260547144954 0.050077237910320163 0.077263023532932018 -0.013848625491945436
0
135 6 1423 1 0 136
4 1292 106 1 1201 422 1 1284 202 1 1223 430 1 136 6 1423 0 0 135
4 1223 435 0 1284 207 0 1201 427 0 1292 111 0 1423 2 5 0 2 0
1 135 
0

  1 136 
0

0
_sim_empty
1423 
1 3.6120720454497133 0.039173480571909503 0.027726362809860201 0.078365123797271924 0.024144658209048195
0
153 6 2201 1 0 154
4 2405 87 1 2416 550 0 2411 375 1 2421 552 0 154 6 2201 0 0 153
4 2421 553 1 2411 382 0 2416 555 1 2405 94 0 2201 2 5 0 2 0
1 153 
0

  1 154 
0

0
_sim_empty
2201 
1 -0.0084990180206817416 -0.0053293208846303822 0.061570522497139318 0.17980912630309145 -0.014690718936571761
0
155 6 2205 1 0 156
4 2317 89 1 2328 558 0 2323 373 1 2333 560 0 156 6 2205 0 0 155
4 2333 561 1 2323 384 0 2328 563 1 2317 92 0 2205 2 5 0 2 0
1 155 
0

  1 156 
0

0
_sim_empty
2205 
1 -0.039608110407217345 -0.005329320884630364 0.061570522497139311 0.17592089773074882 -0.050078197309645724
0
157 6 2209 1 0 158
4 2345 371 1 2350 566 0 2339 81 1 2355 568 0 158 6 2209 0 0 157
4 2355 569 1 2339 100 0 2350 571 1 2345 386 0 2209 2 5 0 2 0
1 157 
0

  1 158 
0

0
_sim_empty
2209 
1 -0.0092699581477768012 0.0054074787654037493 0.0576298852339929 0.16892104711884473 -0.054087058823529391
0
159 6 2213 1 0 160
4 2367 369 1 2372 574 0 2361 83 1 2377 576 0 160 6 2213 0 0 159
4 2377 577 1 2361 98 0 2372 579 1 2367 388 0 2213 2 5 0 2 0
1 159 
0

  1 160 
0

0
_sim_empty
2213 
1 -0.014929470360928563 -0.0053293208846304464 0.061570522497139249 0.15286048363622709 -0.046455403847358002
0
161 6 2217 1 0 162
4 2389 377 1 2394 582 0 2383 85 1 2399 584 0 162 6 2217 0 0 161
4 2399 585 1 2383 96 0 2394 587 1 2389 380 0 2217 2 5 0 2 0
1 161 
0

  1 162 
0

0
_sim_empty
2217 
1 5.2764839943603405 0.0087930694797180992 0.058106773902051594 0.16872003252434234 -0.020687548346496585
0
163 6 2544 1 0 164
4 2430 90 1 2333 560 1 2426 372 1 2355 568 1 164 6 2544 0 0 163
4 2355 569 0 2426 385 0 2333 561 0 2430 91 0 2544 2 5 0 2 0
1 163 
0

  1 164 
0

0
_sim_empty
2544 
1 3.6120720454497133 -9.2321166720886472e-05 0.06680752221504882 0.17289676361571318 -0.053397138154582482
0
165 6 2565 1 0 166
4 2443 82 1 2350 566 1 2439 370 1 2377 576 1 166 6 2565 0 0 165
4 2377 577 0 2439 387 0 2350 571 0 2443 99 0 2565 2 5 0 2 0
1 165 
0

  1 166 
0

0
_sim_empty
2565 
1 2.8132261535284182 -0.0018361248952406912 0.065063718486529004 0.16538976177988593 -0.053747780897739642
0
167 6 2586 1 0 168
4 2456 84 1 2372 574 1 2452 378 1 2399 584 1 168 6 2586 0 0 167
4 2399 585 0 2452 379 0 2372 579 0 2456 97 0 2586 2 5 0 2 0
1 167 
0

  1 168 
0

0
_sim_empty
2586 
1 1.9762554724417292 0.0066525197713748043 0.060247323610394893 0.15027005571185303 -0.038492291989205188
0
169 6 2607 1 0 170
4 2469 88 1 2421 552 1 2465 374 1 2328 558 1 170 6 2607 0 0 169
4 2328 563 0 2465 383 0 2421 553 0 2469 93 0 2607 2 5 0 2 0
1 169 
0

  1 170 
0

0
_sim_empty
2607 
1 0.00070616518637188442 -0.0053293208846303831 0.061570522497139318 0.1806397798426457 -0.014635563280329066
0
171 6 2628 1 0 172
4 2482 86 1 2394 582 1 2478 376 1 2416 550 1 172 6 2628 0 0 171
4 2416 555 0 2478 381 0 2394 587 0 2482 95 0 2628 2 5 0 2 0
1 171 
0

  1 172 
0

0
_sim_empty
2628 
1 2.8132261535284182 0.0074348752172724254 0.059464968164497277 0.1734736512083189 -0.015653999526487512
0
173 6 2813 1 0 174
4 2957 399 1 2962 630 0 2951 123 1 2967 632 0 174 6 2813 0 0 173
4 2967 633 1 2951 130 0 2962 635 1 2957 406 0 2813 2 5 0 2 0
1 173 
0

  1 174 
0

0
_sim_empty
2813 
1 -0.0092699581477768012 -0.010664221190685136 0.0576298852339929 0.081799307402702734 -0.052817058823529391
0
175 6 2817 1 0 176
4 2979 397 1 2984 638 0 2973 125 1 2989 640 0 176 6 2817 0 0 175
4 2989 641 1 2973 128 0 2984 643 1 2979 408 0 2817 2 5 0 2 0
1 175 
0

  1 176 
0

0
_sim_empty
2817 
1 0.02127372575242319 -0.0053293208846304299 0.061570522497139249 0.053383933344117632 -0.036882590895701617
0
177 6 2821 1 0 178
4 3001 395 1 3006 646 0 2995 117 1 3011 648 0 178 6 2821 0 0 177
4 3011 649 1 2995 136 0 3006 651 1 3001 410 0 2821 2 5 0 2 0
1 177 
0

  1 178 
0

0
_sim_empty
2821 
1 0.0011952100790519346 -0.0053293208846303883 0.061570522497139304 0.092678348309712125 -0.031077299371693765
0
179 6 2825 1 0 180
4 3017 119 1 3028 654 0 3023 393 1 3033 656 0 180 6 2825 0 0 179
4 3033 657 1 3023 412 0 3028 659 1 3017 134 0 2825 2 5 0 2 0
1 179 
0

  1 180 
0

0
_sim_empty
2825 
1 -0.0072060651300432195 -0.0053293208846304342 0.06157052249713927 0.10010547427698255 -0.034851931078865146
0
181 6 2829 1 0 182
4 2929 121 1 2940 662 0 2935 401 1 2945 664 0 182 6 2829 0 0 181
4 2945 665 1 2935 404 0 2940 667 1 2929 132 0 2829 2 5 0 2 0
1 181 
0

  1 182 
0

0
_sim_empty
2829 
1 -0.021091448209387079 -0.0053293208846304334 0.061570522497139249 0.091442512314295371 -0.051729011645830721
0
183 6 3156 1 0 184
4 3042 122 1 2945 664 1 3038 400 1 2967 632 1 184 6 3156 0 0 183
4 2967 633 0 3038 405 0 2945 665 0 3042 131 0 3156 2 5 0 2 0
1 183 
0

  1 184 
0

0
_sim_empty
3156 
1 3.6120720454497133 -9.2321166720886472e-05 0.06680752221504882 0.090766570305300318 -0.052127138154582482
0
185 6 3177 1 0 186
4 3055 124 1 2962 630 1 3051 398 1 2989 640 1 186 6 3177 0 0 185
4 2989 641 0 3051 407 0 2962 635 0 3055 129 0 3177 2 5 0 2 0
1 185 
0

  1 186 
0

0
_sim_empty
3177 
1 2.8132261535284182 -0.0018361248952406912 0.065063718486529004 0.07151923532369682 -0.052477780897739641
0
187 6 3198 1 0 188
4 3068 126 1 2984 638 1 3064 396 1 3011 648 1 188 6 3198 0 0 187
4 3011 649 0 3064 409 0 2984 643 0 3068 127 0 3198 2 5 0 2 0
1 187 
0

  1 188 
0

0
_sim_empty
3198 
1 0.00070616518637188442 -0.0053293208846304368 0.061570522497139263 0.057619466031419028 -0.025805567724496162
0
189 6 3219 1 0 190
4 3081 120 1 3033 656 1 3077 402 1 2940 662 1 190 6 3219 0 0 189
4 2940 667 0 3077 403 0 3033 657 0 3081 133 0 3219 2 5 0 2 0
1 189 
0

  1 190 
0

0
_sim_empty
3219 
1 5.2764839943603405 -0.0004779306327950799 0.066421912748974618 0.10230482022326529 -0.036960844926235255
0
191 6 3240 1 0 192
4 3094 118 1 3006 646 1 3090 394 1 3028 654 1 192 6 3240 0 0 191
4 3028 659 0 3090 411 0 3006 651 0 3094 135 0 3240 2 5 0 2 0
1 191 
0

  1 192 
0

0
_sim_empty
3240 
1 6.0293064776347878 -0.0040925646668387309 0.06280727871493097 0.093319858388659679 -0.031208872498265552
0
193 6 3305 1 0 194
1 3302 151 0 195 6 3305 1 0 196
1 3298 9 1 194 6 3305 0 0 193
1 3302 152 1 196 6 3305 0 0 195
1 3298 10 0 3305 2 5 0 2 0
2 193 195 
0

  2 194 196 
0

0
_sim_empty
3305 
1 0.00070616518637188442 0.080117080163257609 0.030507348138893987 0.021377443034268764 -0.0019099786602717861
0
197 6 3349 1 0 198
1 3346 153 0 199 6 3349 1 0 200
1 3342 11 1 198 6 3349 0 0 197
1 3346 154 1 200 6 3349 0 0 199
1 3342 12 0 3349 2 5 0 2 0
2 197 199 
0

  2 198 200 
0

0
_sim_empty
3349 
1 0.00070616518637188442 0.080117080163257609 0.041937348138893986 0.016805443034268765 -0.0019099786602717861
0
201 6 3398 1 0 202
1 3392 717 1 203 6 3398 1 0 204
1 3395 275 0 202 6 3398 0 0 201
1 3392 718 0 204 6 3398 0 0 203
1 3395 276 1 3398 2 5 0 2 0
2 201 203 
0

  2 202 204 
0

0
_sim_empty
3398 
1 0.00070616518637188442 0.0053995605206115056 0.039569878238436065 0.1797268754120625 0.018511836658885228
0
205 6 3403 1 0 206
1 3392 717 0 206 6 3403 0 0 205
1 3392 718 1 3403 2 5 0 2 0
1 205 
0

  1 206 
0

0
_sim_empty
3403 
1 -0.0012663533727861171 0.0014854797413426093 0.04105297577585576 0.17432731489145101 0.013872046627213881
0
207 6 3439 1 0 208
1 3433 723 1 209 6 3439 1 0 210
1 3436 231 0 208 6 3439 0 0 207
1 3433 724 0 210 6 3439 0 0 209
1 3436 232 1 3439 2 5 0 2 0
2 207 209 
0

  2 208 210 
0

0
_sim_empty
3439 
1 0.00070616518637188442 0.0053995605206114969 0.054667076898436008 0.036173124587937651 -0.0033734366588852446
0
211 6 3444 1 0 212
1 3433 723 0 212 6 3444 0 0 211
1 3433 724 1 3444 2 5 0 2 0
1 211 
0

  1 212 
0

0
_sim_empty
3444 
1 -0.0012663533727861171 0.0014854797413426093 0.05615017443585571 0.041572685108549147 0.0012663533727860982
0
213 6 497 1 0 214
1 488 195 0 215 6 497 1 0 216
1 567 137 0 214 6 497 0 0 213
1 488 196 1 216 6 497 0 0 215
1 567 138 1 497 2 5 0 2 0
2 213 215 
0

  2 214 216 
0

0
_sim_empty
497 
1 0.00070616518637188442 -0.0047362904983867804 0.050077237845643364 0.12697352558689717 -0.028585449475874606
0
277 6 323 1 0 278
4 1616 1038 0 3439 1122 1 1610 1129 1 3438 962 1 278 6 323 0 0 277
4 3438 963 0 1610 1132 0 3439 1123 0 1616 1047 1 323 2 5 0 2 0
1 277 
0

  1 278 
0

0
_sim_empty
323 
1 0.00070616518637188442 0.13895408855764058 0.04415495277086981 0.12696950778978672 0.052084930410201485
0
285 6 332 1 0 286
4 1654 1187 1 295 250 1 1657 1189 0 3440 1190 0 286 6 332 0 0 285
4 3440 1191 1 1657 1192 1 295 255 0 1654 1194 0 332 2 5 0 2 0
1 285 
0

  1 286 
0

0
_sim_empty
332 
1 -0.03956304883127984 -0.014600878958776924 0.066895396291049541 0.19845319385022794 0.029912279961800532
0
287 6 358 1 0 288
4 1632 1195 0 3440 1190 1 1638 1197 1 3439 1122 0 288 6 358 0 0 287
4 3439 1123 1 1638 1200 0 3440 1191 0 1632 1202 1 358 2 5 0 2 0
1 287 
0

  1 288 
0

0
_sim_empty
358 
1 -0.15603509958903442 -0.096805172978080861 0.04415495277086999 0.18384877997584323 0.029913843514442984
0
309 6 85 1 0 310
12 742 49 0 739 50 0 736 51 0 733 52 0 730 53 0 294 54 1 1654 1187 0 1632 1195 1 1616 1038 1 1583 1350 0 1602 1351 1 57 64 0 311 6 85 1 0 312
10 2339 81 0 2443 82 0 2361 83 0 2456 84 0 2383 85 0 2482 86 0 2405 87 0 2469 88 0 2317 89 0 2430 90 0 313 6 85 1 0 314
8 1152 101 0 1241 102 0 1174 103 0 1258 104 0 1196 105 0 1292 106 0 1218 107 0 1275 108 0 315 6 85 1 0 316
10 2995 117 0 3094 118 0 3017 119 0 3081 120 0 2929 121 0 3042 122 0 2951 123 0 3055 124 0 2973 125 0 3068 126 0 317 6 85 1 0 318
1 567 137 1 319 6 85 1 0 320
1 760 139 1 321 6 85 1 0 322
1 757 141 1 310 6 85 0 0 309
12 57 65 1 1602 1354 0 1583 1355 1 1616 1047 0 1632 1202 0 1654 1194 1 294 75 0 730 76 1 733 77 1 736 78 1 739 79 1 742 80 1 312 6 85 0 0 311
10 2430 91 1 2317 92 1 2469 93 1 2405 94 1 2482 95 1 2383 96 1 2456 97 1 2361 98 1 2443 99 1 2339 100 1 314 6 85 0 0 313
8 1275 109 1 1218 110 1 1292 111 1 1196 112 1 1258 113 1 1174 114 1 1241 115 1 1152 116 1 316 6 85 0 0 315
10 3068 127 1 2973 128 1 3055 129 1 2951 130 1 3042 131 1 2929 132 1 3081 133 1 3017 134 1 3094 135 1 2995 136 1 318 6 85 0 0 317
1 567 138 0 320 6 85 0 0 319
1 760 140 0 322 6 85 0 0 321
1 757 142 0 85 2 5 0 2 0
7 309 311 313 315 317 319 321 
0

  7 310 312 314 316 318 320 322 
0

0
_sim_empty
85 
1 -0.0075307748765575805 -0.014725919547051491 0.066899843269256604 0.04677360465560064 -0.0078781050852429688
0
323 6 83 1 0 324
4 1599 1427 1 53 144 0 1602 1351 0 3441 1430 1 325 6 83 1 0 326
1 3302 151 1 327 6 83 1 0 328
1 3346 153 1 324 6 83 0 0 323
4 3441 1431 0 1602 1354 1 53 149 1 1599 1434 0 326 6 83 0 0 325
1 3302 152 0 328 6 83 0 0 327
1 3346 154 0 83 2 5 0 2 0
3 323 325 327 
0

  3 324 326 328 
0

0
_sim_empty
83 
1 -0.039563048943792978 0.010799121041222989 0.027336794325463626 0.02124856406732616 0.016341120038199475
0
329 6 222 1 0 330
4 1583 1350 1 3438 962 0 1577 1441 0 3441 1430 0 330 6 222 0 0 329
4 3441 1431 1 1577 1444 1 3438 963 1 1583 1355 0 222 2 5 0 2 0
1 329 
0

  1 330 
0

0
_sim_empty
222 
1 -0.074776903824616617 0.11538697060992165 0.044154952770869907 0.10159218303758255 0.043821079161069941
0
339 6 646 1 0 340
4 1537 1503 1 3437 728 1 1500 1505 0 3442 1496 0 340 6 646 0 0 339
4 3442 1501 1 1500 1508 1 3437 729 0 1537 1510 0 646 2 5 0 2 0
1 339 
0

  1 340 
0

0
_sim_empty
646 
1 3.6120720454497133 0.15212628476014459 0.057327148973373765 0.14657408314369869 -0.029583598274690367
0
357 6 670 1 0 358
4 1475 1625 0 3442 1496 1 1469 1627 0 3443 1628 0 358 6 670 0 0 357
4 3443 1629 1 1469 1630 1 3442 1501 0 1475 1632 1 670 2 5 0 2 0
1 357 
0

  1 358 
0

0
_sim_empty
670 
1 7.9073142081608401e-06 0.11144529142987511 0.040213273590823259 0.032055502070966642 -0.015410071899949182
0
359 6 678 1 0 360
4 697 1633 0 45 2 0 1529 1635 0 3443 1628 1 361 6 678 1 0 362
1 3298 9 0 363 6 678 1 0 364
1 3342 11 0 360 6 678 0 0 359
4 3443 1629 0 1529 1638 1 45 7 1 697 1640 1 362 6 678 0 0 361
1 3298 10 1 364 6 678 0 0 363
1 3342 12 1 678 2 5 0 2 0
3 359 361 363 
0

  3 360 362 364 
0

0
_sim_empty
678 
1 0.0092744050134833268 0.010799121041222966 0.057625438255773279 0.021248564067326184 -0.015408879961800548
0
381 6 654 1 0 382
4 1553 1755 0 3444 1756 1 1494 1757 0 3437 728 0 382 6 654 0 0 381
4 3437 729 1 1494 1760 1 3444 1761 0 1553 1762 1 654 2 5 0 2 0
1 381 
0

  1 382 
0

0
_sim_empty
654 
1 -0.14257009443340174 -0.10074685215812751 0.040213273590823301 0.18384916736061807 -0.00057026655504654241
0
383 6 662 1 0 384
4 1569 1763 1 293 22 1 1491 1765 0 3444 1756 0 384 6 662 0 0 383
4 3444 1761 1 1491 1768 1 293 27 0 1569 1770 0 662 2 5 0 2 0
1 383 
0

  1 384 
0

0
_sim_empty
662 
1 3.4049009701800671e-06 -0.014600878958776924 0.027335752360739877 0.19845319385022794 -0.00056772003819944401
0
385 6 81 1 0 386
12 49 155 0 1599 1427 0 1577 1441 1 1610 1129 0 1638 1197 0 1657 1189 1 292 165 1 1569 1763 0 1553 1755 1 1537 1503 0 1475 1625 1 1529 1635 1 387 6 81 1 0 388
1 488 195 1 389 6 81 1 0 390
8 1168 197 1 1233 198 0 1146 199 1 1267 200 0 1212 201 1 1284 202 0 1190 203 1 1250 204 0 386 6 81 0 0 385
12 1529 1638 0 1475 1632 0 1537 1510 1 1553 1762 0 1569 1770 1 292 184 0 1657 1192 0 1638 1200 1 1610 1132 1 1577 1444 0 1599 1434 1 49 194 1 388 6 81 0 0 387
1 488 196 0 390 6 81 0 0 389
8 1250 205 1 1190 206 0 1284 207 1 1212 208 0 1267 209 1 1146 210 0 1233 211 1 1168 212 0 81 2 5 0 2 0
3 385 387 389 
0

  3 386 388 390 
0

0
_sim_empty
81 
1 0.030857980744293047 0.023382451129585813 0.02733234734725656 0.0086652339789633354 0.015449100782492498
0
391 6 823 1 0 392
10 1469 1627 1 1500 1505 1 1494 1757 1 1491 1765 1 717 335 1 713 327 1 709 319 1 705 311 1 701 303 1 697 1633 1 393 6 823 1 0 394
10 2367 369 0 2439 370 0 2345 371 0 2426 372 0 2323 373 0 2465 374 0 2411 375 0 2478 376 0 2389 377 0 2452 378 0 395 6 823 1 0 396
1 721 389 0 397 6 823 1 0 398
1 724 391 0 399 6 823 1 0 400
10 3023 393 0 3090 394 0 3001 395 0 3064 396 0 2979 397 0 3051 398 0 2957 399 0 3038 400 0 2935 401 0 3077 402 0 392 6 823 0 0 391
10 697 1640 0 701 306 0 705 314 0 709 322 0 713 330 0 717 338 0 1491 1768 0 1494 1760 0 1500 1508 0 1469 1630 0 394 6 823 0 0 393
10 2452 379 1 2389 380 1 2478 381 1 2411 382 1 2465 383 1 2323 384 1 2426 385 1 2345 386 1 2439 387 1 2367 388 1 396 6 823 0 0 395
1 721 390 1 398 6 823 0 0 397
1 724 392 1 400 6 823 0 0 399
10 3077 403 1 2935 404 1 3038 405 1 2957 406 1 3051 407 1 2979 408 1 3064 409 1 3001 410 1 3090 411 1 3023 412 1 823 2 5 0 2 0
5 391 393 395 397 399 
0

  5 392 394 396 398 400 
0

0
_sim_empty
823 
1 0.012586446022091953 0.10493307011315903 0.057628843269256505 0.063341929886840981 -0.05674061280143744
0
28 8 95 61
678 0 670 0 662 0 654 0 646 0 85 0 83 0 81 0 43 0 153 0 158 0 222 0 323 0 332 0 344 0 348 0 352 0 358 0 497 0 803 0 807 0 811 0 815 0 819 0 823 0 833 0 838 0 1071 0 1075 0 1079 0 1083 0 1360 0 1381 0 1402 0 1423 0 2201 0 2205 0 2209 0 2213 0 2217 0 2544 0 2565 0 2586 0 2607 0 2628 0 2813 0 2817 0 2821 0 2825 0 2829 0 3156 0 3177 0 3198 0 3219 0 3240 0 3305 0 3349 0 3398 0 3403 0 3439 0 3444 0 95 3 5 0 3 0 1 
28 
0
0
_sim_empty
95 
0 -1
30 8 105 61
43 1 153 1 158 1 3439 1 3444 1 803 1 807 1 811 1 815 1 819 1 344 1 348 1 352 1 3398 1 3403 1 662 1 654 1 646 1 670 1 678 1 3349 1 83 1 3305 1 222 1 81 1 1381 1 1071 1 85 1 833 1 823 1 3219 1 2829 1 3156 1 2813 1 3177 1 2817 1 3198 1 2821 1 3240 1 2825 1 838 1 2586 1 2217 1 2628 1 2201 1 2607 1 2205 1 2544 1 2209 1 2565 1 2213 1 497 1 1402 1 1079 1 1360 1 1083 1 1075 1 1423 1 323 1 358 1 332 1 105 3 8 0 303 0 1 
30 
0
0
_sim_empty
-1
0
0 -1
0 -1
0 -1
<part> auxmm 3
0
0
<part> attributes 10
AttDBVersion 10 8
0 1 0 17 21
1 2 7
0 
16 FixIntersections
0 
0 0 1
0
0
1 1
0 
1
1 2 3
0 
18 MeshRepresentation
0 
0 0 1
0
0
1 1
0 
0
1 2 4
0 
9 Smoothing
0 
0 0 1
0
0
1 1
0 
2
1 2 5
0 
13 SmoothingType
0 
0 0 1
0
0
1 1
0 
0
1 2 6
0 
12 Optimization
0 
0 0 1
0
0
1 1
0 
1
1 2 8
0 
16 EnforceGradation
0 
0 0 1
0
0
1 1
0 
0
1 3 9
0 
17 FaceRotationLimit
0 
0 0 1
0
0
2 1
0 
15
1 2 10
0 
12 DiscreteSnap
0 
0 0 1
0
0
1 1
0 
0
1 7 2
0 
13 SurfaceMesher
0 
0 0 1
0
8 3 4 5 6 7 8 9 10
1 2 15
0 
12 Optimization
0 
0 0 1
0
0
1 1
0 
1
1 2 12
0 
11 EnforceSize
0 
0 0 1
0
0
1 1
0 
0
1 2 13
0 
9 Smoothing
0 
0 0 1
0
0
1 1
0 
1
1 2 14
0 
13 SmoothingType
0 
0 0 1
0
0
1 1
0 
0
1 2 16
0 
8 ModifyBL
0 
0 0 1
0
0
1 1
0 
0
1 7 11
0 
12 VolumeMesher
0 
0 0 1
0
5 12 13 14 15 16
1 3 21
0 
8 MeshSize
8 Absolute
0 0 1
0
0
2 -1
0 
6 0.0075
1 10 17
0 
9 parasolid
0 
0 0 1
0
0
1
4
68 file:///lore/hakimm2/pumi-meshes/upright/no_ring/upright_no_ring.smd27 model.nonmanifold.parasolid6 # 1 0 0 3 1 1
5 case1
7 Meshing
0 
6 0 1
0
3 2 11 21
17
1 4
4
1
9 1  1 21
<index>
3
smd 8
auxmm 60564
attributes 60583
</index>
<header>
4
68 file:///lore/hakimm2/pumi-meshes/upright/no_ring/upright_no_ring.smd27 model.nonmanifold.parasolid6 # 1 0 0 
1
14 FromVoxelModel0 
1
6 native4
25 ./upright_no_ring_nat.x_t21 nativeModel.parasolid6 # 1 0 0 
</header>
61645 61699                                                                                                                    
