smi 5 0
<part> smd 33
simple 33 1
*
-1
0.027332347347256536 0.0066476851085491284 -0.082027058823529397
0.066899843381769727 0.20925231489145102 0.052084941176470591
1 1007 9 0
0 0 0 0
0.027332347347256536 0.0066476851085491284 -0.082027058823529397
0.066899843381769727 0.20925231489145102 0.052084941176470591
_sim_empty
-1
0 0 0 0

0
1 61 154 90
0 0 0 0
0 0 0 0
0 0 0 0
96
33 4 7401
41 4 7401
7401 0 9 0 200 0 2
33 41 
_sim_empty
-1
0.02733234734725655 0.18385231489145101 -0.00056772003819944401
0.02733234734725655 0.18385231489145101 -0.00056772003819944401
0
40 4 7393
43 4 7393
7393 0 9 0 200 0 2
40 43 
_sim_empty
-1
0.057628843269256505 0.18385231489145101 -0.00056772003819939598
0.057628843269256505 0.18385231489145101 -0.00056772003819939598
0
7 4 7353
11 4 7353
7353 0 9 0 200 0 2
7 11 
_sim_empty
-1
0.02733234734725655 0.032047685108549204 -0.015408879961800549
0.02733234734725655 0.032047685108549204 -0.015408879961800549
0
2 4 7345
10 4 7345
7345 0 9 0 200 0 2
2 10 
_sim_empty
-1
0.057628843269256505 0.032047685108548898 -0.015408879961800549
0.057628843269256505 0.032047685108548898 -0.015408879961800549
0
19 4 7305
31 4 7305
7305 0 9 0 200 0 2
19 31 
_sim_empty
-1
0.02733234734725655 0.1016 -0.0260142856190929
0.02733234734725655 0.1016 -0.0260142856190929
0
22 4 7297
30 4 7297
7297 0 9 0 200 0 2
22 30 
_sim_empty
-1
0.057628843269256505 0.1016 -0.0260142856190929
0.057628843269256505 0.1016 -0.0260142856190929
0
101 4 7257
109 4 7257
7257 0 9 0 200 0 2
101 109 
_sim_empty
-1
0.066899843269256604 0.032047685108549148 0.016341120038199451
0.066899843269256604 0.032047685108549148 0.016341120038199451
0
241 4 7232
250 4 7232
7232 0 9 0 200 0 2
241 250 
_sim_empty
-1
0.02733234734725655 0.032047685108549204 0.0163411200381995
0.02733234734725655 0.032047685108549204 0.0163411200381995
0
95 4 7192
115 4 7192
7192 0 9 0 200 0 2
95 115 
_sim_empty
-1
0.066899843269256604 0.18385231489145101 0.029912279961800552
0.066899843269256604 0.18385231489145101 0.029912279961800552
0
267 4 7167
295 4 7167
7167 0 9 0 200 0 2
267 295 
_sim_empty
-1
0.02733234734725655 0.18385231489145101 0.0299122799618005
0.02733234734725655 0.18385231489145101 0.0299122799618005
0
266 4 7127
297 4 7127
7127 0 9 0 200 0 2
266 297 
_sim_empty
-1
0.027332347347256602 0.15240000000000001 0.043824167972034152
0.027332347347256602 0.15240000000000001 0.043824167972034152
0
97 4 7102
114 4 7102
7102 0 9 0 200 0 2
97 114 
_sim_empty
-1
0.066899843269256604 0.15240000000000001 0.043824167972034152
0.066899843269256604 0.15240000000000001 0.043824167972034152
0
100 4 7062
112 4 7062
7062 0 9 0 200 0 2
100 112 
_sim_empty
-1
0.066899843269256604 0.1016 0.043824167972034055
0.066899843269256604 0.1016 0.043824167972034055
0
264 4 7037
300 4 7037
7037 0 9 0 200 0 2
264 300 
_sim_empty
-1
0.027332347347256602 0.1016 0.043824167972034055
0.027332347347256602 0.1016 0.043824167972034055
0
56 4 7014
59 4 7014
7014 0 9 0 200 0 2
56 59 
_sim_empty
-1
0.057628843269256505 0.1558468002277455 -0.0232256441997803
0.057628843269256505 0.1558468002277455 -0.0232256441997803
0
50 4 6989
57 4 6989
6989 0 9 0 200 0 2
50 57 
_sim_empty
-1
0.02733234734725655 0.155846800227746 -0.023225644199779901
0.02733234734725655 0.155846800227746 -0.023225644199779901
0
602 4 3025
621 4 3025
3025 0 9 0 200 0 2
602 621 
_sim_empty
-1
0.057628843269256505 0.1001060602338068 -0.034852268310168501
0.057628843269256505 0.1001060602338068 -0.034852268310168501
0
604 4 3022
639 4 3022
3022 0 9 0 200 0 2
604 639 
_sim_empty
-1
0.057628843269256505 0.094892442542452896 -0.031851714316093897
0.057628843269256505 0.094892442542452896 -0.031851714316093897
0
206 4 3019
237 4 3019
3019 0 9 0 200 0 2
206 237 
_sim_empty
-1
0.0668998433817697 0.094892442542452896 -0.031851714316093897
0.0668998433817697 0.094892442542452896 -0.031851714316093897
0
208 4 3016
235 4 3016
3016 0 9 0 200 0 2
208 235 
_sim_empty
-1
0.0668998433817697 0.1001060602338068 -0.034852268310168501
0.0668998433817697 0.1001060602338068 -0.034852268310168501
0
606 4 3003
637 4 3003
3003 0 9 0 200 0 2
606 637 
_sim_empty
-1
0.057628843269256505 0.092682180914696294 -0.031077883771086449
0.057628843269256505 0.092682180914696294 -0.031077883771086449
0
608 4 3000
635 4 3000
3000 0 9 0 200 0 2
608 635 
_sim_empty
-1
0.057628843269256602 0.058581140832154002 -0.0258781235046542
0.057628843269256602 0.058581140832154002 -0.0258781235046542
0
202 4 2997
221 4 2997
2997 0 9 0 200 0 2
202 221 
_sim_empty
-1
0.0668998433817697 0.058581140832154002 -0.0258781235046542
0.0668998433817697 0.058581140832154002 -0.0258781235046542
0
204 4 2994
239 4 2994
2994 0 9 0 200 0 2
204 239 
_sim_empty
-1
0.0668998433817697 0.092682180914696391 -0.031077883771086449
0.0668998433817697 0.092682180914696391 -0.031077883771086449
0
610 4 2981
633 4 2981
2981 0 9 0 200 0 2
610 633 
_sim_empty
-1
0.057628843269256505 0.053382141499422199 -0.036880982431617998
0.057628843269256505 0.053382141499422199 -0.036880982431617998
0
612 4 2978
631 4 2978
2978 0 9 0 200 0 2
612 631 
_sim_empty
-1
0.057628843269256505 0.069325284095844902 -0.051192475113926106
0.057628843269256505 0.069325284095844902 -0.051192475113926106
0
218 4 2975
225 4 2975
2975 0 9 0 200 0 2
218 225 
_sim_empty
-1
0.0668998433817697 0.069325284095844902 -0.051192475113926106
0.0668998433817697 0.069325284095844902 -0.051192475113926106
0
220 4 2972
223 4 2972
2972 0 9 0 200 0 2
220 223 
_sim_empty
-1
0.0668998433817697 0.053382141499422199 -0.036880982431617998
0.0668998433817697 0.053382141499422199 -0.036880982431617998
0
614 4 2959
629 4 2959
2959 0 9 0 200 0 2
614 629 
_sim_empty
-1
0.057628843269256505 0.073567092776402401 -0.052817058823529398
0.057628843269256505 0.073567092776402401 -0.052817058823529398
0
616 4 2956
627 4 2956
2956 0 9 0 200 0 2
616 627 
_sim_empty
-1
0.057628843269256505 0.087888028666521095 -0.052817058823529398
0.057628843269256505 0.087888028666521095 -0.052817058823529398
0
214 4 2953
229 4 2953
2953 0 9 0 200 0 2
214 229 
_sim_empty
-1
0.0668998433817697 0.087888028666521095 -0.052817058823529398
0.0668998433817697 0.087888028666521095 -0.052817058823529398
0
216 4 2950
227 4 2950
2950 0 9 0 200 0 2
216 227 
_sim_empty
-1
0.0668998433817697 0.073567092776402401 -0.052817058823529398
0.0668998433817697 0.073567092776402401 -0.052817058823529398
0
618 4 2937
625 4 2937
2937 0 9 0 200 0 2
618 625 
_sim_empty
-1
0.057628843269256505 0.091441495122585009 -0.051729698479218301
0.057628843269256505 0.091441495122585009 -0.051729698479218301
0
620 4 2934
623 4 2934
2934 0 9 0 200 0 2
620 623 
_sim_empty
-1
0.057628843269256505 0.10049207440993981 -0.0456185200574169
0.057628843269256505 0.10049207440993981 -0.0456185200574169
0
210 4 2931
233 4 2931
2931 0 9 0 200 0 2
210 233 
_sim_empty
-1
0.0668998433817697 0.10049207440993981 -0.0456185200574169
0.0668998433817697 0.10049207440993981 -0.0456185200574169
0
212 4 2928
231 4 2928
2928 0 9 0 200 0 2
212 231 
_sim_empty
-1
0.0668998433817697 0.091441495122585009 -0.051729698479218301
0.0668998433817697 0.091441495122585009 -0.051729698479218301
0
574 4 2413
589 4 2413
2413 0 9 0 200 0 2
574 589 
_sim_empty
-1
0.057628843269256602 0.17980970204792399 -0.0146906426060075
0.057628843269256602 0.17980970204792399 -0.0146906426060075
0
576 4 2410
587 4 2410
2410 0 9 0 200 0 2
576 587 
_sim_empty
-1
0.057628843269256602 0.17468694671774201 -0.015369802509651051
0.057628843269256602 0.17468694671774201 -0.015369802509651051
0
142 4 2407
157 4 2407
2407 0 9 0 200 0 2
142 157 
_sim_empty
-1
0.0668998433817697 0.17468694671774201 -0.015369802509651051
0.0668998433817697 0.17468694671774201 -0.015369802509651051
0
144 4 2404
155 4 2404
2404 0 9 0 200 0 2
144 155 
_sim_empty
-1
0.0668998433817697 0.17980970204792399 -0.014690642606007519
0.0668998433817697 0.17980970204792399 -0.014690642606007519
0
578 4 2391
585 4 2391
2391 0 9 0 200 0 2
578 585 
_sim_empty
-1
0.057628843269256602 0.16997128820352098 -0.018579668461267951
0.057628843269256602 0.16997128820352098 -0.018579668461267951
0
580 4 2388
583 4 2388
2388 0 9 0 200 0 2
580 583 
_sim_empty
-1
0.057628843269256505 0.15304425557430801 -0.035433441405006899
0.057628843269256505 0.15304425557430801 -0.035433441405006899
0
138 4 2385
161 4 2385
2385 0 9 0 200 0 2
138 161 
_sim_empty
-1
0.0668998433817697 0.15304425557430801 -0.035433441405006899
0.0668998433817697 0.15304425557430801 -0.035433441405006899
0
140 4 2382
159 4 2382
2382 0 9 0 200 0 2
140 159 
_sim_empty
-1
0.0668998433817697 0.16997128820352098 -0.018579668461267951
0.0668998433817697 0.16997128820352098 -0.018579668461267951
0
562 4 2369
581 4 2369
2369 0 9 0 200 0 2
562 581 
_sim_empty
-1
0.057628843269256505 0.15285920998998898 -0.046454646333242998
0.057628843269256505 0.15285920998998898 -0.046454646333242998
0
564 4 2366
599 4 2366
2366 0 9 0 200 0 2
564 599 
_sim_empty
-1
0.057628843269256505 0.16419162269506452 -0.053194714591197595
0.057628843269256505 0.16419162269506452 -0.053194714591197595
0
134 4 2363
165 4 2363
2363 0 9 0 200 0 2
134 165 
_sim_empty
-1
0.0668998433817697 0.16419162269506452 -0.053194714591197595
0.0668998433817697 0.16419162269506452 -0.053194714591197595
0
136 4 2360
163 4 2360
2360 0 9 0 200 0 2
136 163 
_sim_empty
-1
0.0668998433817697 0.15285920998998898 -0.046454646333242998
0.0668998433817697 0.15285920998998898 -0.046454646333242998
0
566 4 2347
597 4 2347
2347 0 9 0 200 0 2
566 597 
_sim_empty
-1
0.057628843269256505 0.16743761923259151 -0.054087058823529398
0.057628843269256505 0.16743761923259151 -0.054087058823529398
0
568 4 2344
595 4 2344
2344 0 9 0 200 0 2
568 595 
_sim_empty
-1
0.057628843269256505 0.17001822197693398 -0.054087058823529398
0.057628843269256505 0.17001822197693398 -0.054087058823529398
0
130 4 2341
149 4 2341
2341 0 9 0 200 0 2
130 149 
_sim_empty
-1
0.0668998433817697 0.17001822197693398 -0.054087058823529398
0.0668998433817697 0.17001822197693398 -0.054087058823529398
0
132 4 2338
167 4 2338
2338 0 9 0 200 0 2
132 167 
_sim_empty
-1
0.0668998433817697 0.16743761923259151 -0.054087058823529398
0.0668998433817697 0.16743761923259151 -0.054087058823529398
0
570 4 2325
593 4 2325
2325 0 9 0 200 0 2
570 593 
_sim_empty
-1
0.057628843269256505 0.17591970347328648 -0.0500812039018486
0.057628843269256505 0.17591970347328648 -0.0500812039018486
0
572 4 2322
591 4 2322
2322 0 9 0 200 0 2
572 591 
_sim_empty
-1
0.057628843269256602 0.18654574548755948 -0.023329706775373351
0.057628843269256602 0.18654574548755948 -0.023329706775373351
0
146 4 2319
153 4 2319
2319 0 9 0 200 0 2
146 153 
_sim_empty
-1
0.0668998433817697 0.18654574548755948 -0.023329706775373351
0.0668998433817697 0.18654574548755948 -0.023329706775373351
0
148 4 2316
151 4 2316
2316 0 9 0 200 0 2
148 151 
_sim_empty
-1
0.0668998433817697 0.17591970347328648 -0.0500812039018486
0.0668998433817697 0.17591970347328648 -0.0500812039018486
0
182 4 1220
189 4 1220
1220 0 9 0 200 0 2
182 189 
_sim_empty
-1
0.0668998433817697 0.081713007399819002 0.017237931889398952
0.0668998433817697 0.081713007399819002 0.017237931889398952
0
184 4 1217
187 4 1217
1217 0 9 0 200 0 2
184 187 
_sim_empty
-1
0.0668998433817697 0.083265609137818997 -0.0054140938134042407
0.0668998433817697 0.083265609137818997 -0.0054140938134042407
0
316 4 1214
328 4 1214
1214 0 9 0 200 0 2
316 328 
_sim_empty
-1
0.02733234734725655 0.081713007399819002 0.017237931889398952
0.02733234734725655 0.081713007399819002 0.017237931889398952
0
313 4 1211
329 4 1211
1211 0 9 0 200 0 2
313 329 
_sim_empty
-1
0.02733234734725655 0.083265609137818997 -0.0054140938134042199
0.02733234734725655 0.083265609137818997 -0.0054140938134042199
0
178 4 1198
193 4 1198
1198 0 9 0 200 0 2
178 193 
_sim_empty
-1
0.0668998433817697 0.055114107071679602 0.01726231908948175
0.0668998433817697 0.055114107071679602 0.01726231908948175
0
180 4 1195
191 4 1195
1195 0 9 0 200 0 2
180 191 
_sim_empty
-1
0.0668998433817697 0.073153004121623302 0.024390246794991449
0.0668998433817697 0.073153004121623302 0.024390246794991449
0
320 4 1192
324 4 1192
1192 0 9 0 200 0 2
320 324 
_sim_empty
-1
0.02733234734725655 0.055114107071679602 0.017262319089481802
0.02733234734725655 0.055114107071679602 0.017262319089481802
0
317 4 1189
325 4 1189
1189 0 9 0 200 0 2
317 325 
_sim_empty
-1
0.02733234734725655 0.073153004121623302 0.024390246794991501
0.02733234734725655 0.073153004121623302 0.024390246794991501
0
174 4 1176
197 4 1176
1176 0 9 0 200 0 2
174 197 
_sim_empty
-1
0.0668998433817697 0.051097685108549201 -0.004476480957299165
0.0668998433817697 0.051097685108549201 -0.004476480957299165
0
176 4 1173
195 4 1173
1173 0 9 0 200 0 2
176 195 
_sim_empty
-1
0.0668998433817697 0.051097685108549097 0.011356651172485381
0.0668998433817697 0.051097685108549097 0.011356651172485381
0
308 4 1170
336 4 1170
1170 0 9 0 200 0 2
308 336 
_sim_empty
-1
0.02733234734725655 0.051097685108549201 -0.0044764809572991502
0.02733234734725655 0.051097685108549201 -0.0044764809572991502
0
305 4 1167
321 4 1167
1167 0 9 0 200 0 2
305 321 
_sim_empty
-1
0.02733234734725655 0.051097685108549097 0.011356651172485402
0.02733234734725655 0.051097685108549097 0.011356651172485402
0
170 4 1154
185 4 1154
1154 0 9 0 200 0 2
170 185 
_sim_empty
-1
0.0668998433817697 0.076310317029318606 -0.0137760697117874
0.0668998433817697 0.076310317029318606 -0.0137760697117874
0
172 4 1151
199 4 1151
1151 0 9 0 200 0 2
172 199 
_sim_empty
-1
0.0668998433817697 0.056490494456374898 -0.010753923593866241
0.0668998433817697 0.056490494456374898 -0.010753923593866241
0
312 4 1148
332 4 1148
1148 0 9 0 200 0 2
312 332 
_sim_empty
-1
0.02733234734725655 0.076310317029318606 -0.01377606971178736
0.02733234734725655 0.076310317029318606 -0.01377606971178736
0
309 4 1145
333 4 1145
1145 0 9 0 200 0 2
309 333 
_sim_empty
-1
0.02733234734725655 0.056490494456374898 -0.01075392359386622
0.02733234734725655 0.056490494456374898 -0.01075392359386622
0
4 4 672
15 4 672
672 0 9 0 200 0 2
4 15 
_sim_empty
-1
0.057628843269256602 0.0066476851085491302 -0.015408879961800549
0.057628843269256602 0.0066476851085491302 -0.015408879961800549
0
38 4 656
46 4 656
656 0 9 0 200 0 2
38 46 
_sim_empty
-1
0.057628843269256602 0.20925231489145102 -0.00056772003819945908
0.057628843269256602 0.20925231489145102 -0.00056772003819945908
0
82 4 61
105 4 61
61 0 9 0 200 0 2
82 105 
_sim_empty
-1
0.066899843269256604 0.0066476851085491302 -0.015408879961800549
0.066899843269256604 0.0066476851085491302 -0.015408879961800549
0
6 4 62
13 4 62
62 0 9 0 200 0 2
6 13 
_sim_empty
-1
0.02733234734725655 0.0066476851085491302 -0.015408879961800549
0.02733234734725655 0.0066476851085491302 -0.015408879961800549
0
244 4 63
256 4 63
63 0 9 0 200 0 2
244 256 
_sim_empty
-1
0.02733234734725655 0.0066476851085491302 0.016341120038199451
0.02733234734725655 0.0066476851085491302 0.016341120038199451
0
104 4 64
108 4 64
64 0 9 0 200 0 2
104 108 
_sim_empty
-1
0.066899843269256604 0.0066476851085491302 0.016341120038199451
0.066899843269256604 0.0066476851085491302 0.016341120038199451
0
269 4 311
294 4 311
311 0 9 0 200 0 2
269 294 
_sim_empty
-1
0.027332347459769698 0.20925231489145102 0.029912279961800552
0.027332347459769698 0.20925231489145102 0.029912279961800552
0
94 4 313
118 4 313
313 0 9 0 200 0 2
94 118 
_sim_empty
-1
0.0668998433817697 0.20925231489145102 0.029912279961800552
0.0668998433817697 0.20925231489145102 0.029912279961800552
0
91 4 314
119 4 314
314 0 9 0 200 0 2
91 119 
_sim_empty
-1
0.0668998433817697 0.20925231489145102 -0.00056772003819946298
0.0668998433817697 0.20925231489145102 -0.00056772003819946298
0
35 4 310
48 4 310
310 0 9 0 200 0 2
35 48 
_sim_empty
-1
0.027332347459769698 0.20925231489145102 -0.00056772003819944401
0.027332347459769698 0.20925231489145102 -0.00056772003819944401
0
447 4 773
451 4 773
773 0 9 0 200 0 2
447 451 
_sim_empty
-1
0.057628843269256505 0.077241382638884901 -0.078777891404322897
0.057628843269256505 0.077241382638884901 -0.078777891404322897
0
463 4 775
467 4 775
775 0 9 0 200 0 2
463 467 
_sim_empty
-1
0.057628843269256505 0.096043749999999997 -0.0767306659469187
0.057628843269256505 0.096043749999999997 -0.0767306659469187
0
479 4 777
483 4 777
777 0 9 0 200 0 2
479 483 
_sim_empty
-1
0.057628843269256505 0.15795624999999999 -0.0767306659469187
0.057628843269256505 0.15795624999999999 -0.0767306659469187
0
495 4 779
499 4 779
779 0 9 0 200 0 2
495 499 
_sim_empty
-1
0.057628843269256505 0.18007796299270501 -0.074015348980167706
0.057628843269256505 0.18007796299270501 -0.074015348980167706
0
84 4 776
127 4 776
776 0 9 0 200 0 2
84 127 
_sim_empty
-1
0.066899843269256506 0.077241382638884901 -0.078777891404322897
0.066899843269256506 0.077241382638884901 -0.078777891404322897
0
86 4 778
125 4 778
778 0 9 0 200 0 2
86 125 
_sim_empty
-1
0.066899843269256506 0.096043749999999997 -0.0767306659469187
0.066899843269256506 0.096043749999999997 -0.0767306659469187
0
88 4 780
123 4 780
780 0 9 0 200 0 2
88 123 
_sim_empty
-1
0.066899843269256506 0.15795624999999999 -0.0767306659469187
0.066899843269256506 0.15795624999999999 -0.0767306659469187
0
90 4 782
121 4 782
782 0 9 0 200 0 2
90 121 
_sim_empty
-1
0.066899843269256506 0.18007796299270501 -0.074015348980167803
0.066899843269256506 0.18007796299270501 -0.074015348980167803
0
24 5 7426 33 40 
25 5 7426 41 43 
7426 1 9 0 210 0 2 7401 7393
24 25 
_sim_empty
-1
1 0.5 0.042480595308256527 0.18385231489145101 -0.00056772003819945127
1e-08
-1 0
0 1
0.057628843269256505 0.18385231489145101 -0.00056772003819945854
0.02733234734725655 0.18385231489145101 -0.00056772003819944401
4 5 7378 7 2 
5 5 7378 11 10 
7378 1 9 0 210 0 2 7353 7345
4 5 
_sim_empty
-1
1 0.5 0.04248059530825652 0.032047685108548954 -0.015408879961800515
1e-08
-1 0
0 1
0.057628843269256491 0.032047685108548933 -0.015408879961800518
0.02733234734725655 0.032047685108548982 -0.015408879961800513
14 5 7330 19 22 
19 5 7330 31 30 
7330 1 9 0 210 0 2 7305 7297
14 19 
_sim_empty
-1
1 0.5 0.04248059530825652 0.1016 -0.02601428561909289
1e-08
1 0
0 1
0.02733234734725655 0.1016 -0.026014285619092879
0.057628843269256491 0.1016 -0.0260142856190929
134 5 7282 101 241 
135 5 7282 109 250 
7282 1 9 0 210 0 2 7257 7232
134 135 
_sim_empty
-1
1 0.5 0.047116095308256577 0.032047685108549065 0.016341120038199423
1e-08
-1 0
0 1
0.02733234734725655 0.032047685108549079 0.016341120038199434
0.066899843269256604 0.032047685108549051 0.01634112003819941
224 5 7217 95 267 
225 5 7217 115 295 
7217 1 9 0 210 0 2 7192 7167
224 225 
_sim_empty
-1
1 0.5 0.047116095308256577 0.18385231489145104 0.029912279961800542
1e-08
1 0
0 1
0.066899843269256604 0.18385231489145104 0.029912279961800532
0.02733234734725655 0.18385231489145101 0.029912279961800552
214 5 7152 97 266 
219 5 7152 114 297 
7152 1 9 0 210 0 2 7102 7127
214 219 
_sim_empty
-1
1 0.5 0.047116095308256604 0.15240000000000001 0.043824167972033909
1e-08
-1 0
0 1
0.027332347347256605 0.15240000000000001 0.043824167972033916
0.066899843269256604 0.15240000000000001 0.043824167972033895
206 5 7087 264 100 
211 5 7087 300 112 
7087 1 9 0 210 0 2 7037 7062
206 211 
_sim_empty
-1
1 0.5 0.047116095308256604 0.1016 0.043824167972033964
1e-08
1 0
0 1
0.027332347347256605 0.1016 0.043824167972033971
0.066899843269256604 0.1016 0.043824167972033951
32 5 7017 50 56 
33 5 7017 57 59 
7017 1 9 0 210 0 2 6989 7014
32 33 
_sim_empty
-1
1 0.5 0.04248059530825652 0.1558468002277455 -0.023225644199780342
1e-08
1 0
0 1
0.02733234734725655 0.1558468002277455 -0.023225644199780331
0.057628843269256491 0.1558468002277455 -0.023225644199780352
106 5 3094 206 204 
123 5 3094 237 239 
3094 1 9 0 210 0 2 3019 2994
106 123 
_sim_empty
-1
1 2.8048215160100751 0.066899843269256506 0.093823292732958086 -0.031362027921630786
1e-08
1 3
2.6193658321360296 2.9902771998841202
0.066899843269256506 0.091724990262522094 -0.037355326407653502
0.0063499999999999997 6.2831853071795862
1 0 -3.2782175923971104e-16
-3.2782175923971104e-16 0 -1
346 5 3090 606 604 
363 5 3090 637 639 
3090 1 9 0 210 0 2 3003 3022
346 363 
_sim_empty
-1
1 0.33677113757971078 0.057628843269256505 0.093823292732958044 -0.031362027921630765
1e-08
1 3
0.15131545370565802 0.52222682145376353
0.057628843269256505 0.091724990262522094 -0.037355326407653502
0.0063499999999999997 6.2831853071795862
-1 0 2.4586631942978349e-16
2.4586631942978349e-16 0 1
108 5 3081 210 208 
121 5 3081 233 235 
3081 1 9 0 210 0 2 2931 3016
108 121 
_sim_empty
-1
1 1.6066350665473892 0.066899843269256506 0.10328453037187345 -0.040128353118185474
1e-08
1 3
0.59390430095876279 2.6193658321360158
0.066899843269256506 0.096938607953875905 -0.040355880401728099
0.0063499999999999997 6.2831853071795862
1 0 -3.2782175923971104e-16
-3.2782175923971104e-16 0 -1
354 5 3077 602 620 
355 5 3077 621 623 
3077 1 9 0 210 0 2 3025 2934
354 355 
_sim_empty
-1
1 1.5349575870424079 0.057628843269256505 0.10328453037187345 -0.040128353118185453
1e-08
1 3
0.52222682145378119 2.5476883526310345
0.057628843269256505 0.096938607953875905 -0.04035588040172805
0.0063499999999999997 6.2831853071795862
-1 0 2.4586631942978349e-16
2.4586631942978349e-16 0 1
114 5 3068 202 220 
115 5 3068 221 223 
3068 1 9 0 210 0 2 2997 2972
114 115 
_sim_empty
-1
1 4.2709713625638708 0.066899843269256506 0.051882617143152739 -0.029442708798816771
1e-08
1 3
2.9902771998841362 5.5516655252436049
0.066899843269256506 0.057623950179979802 -0.032155566141221295
0.0063499999999999997 6.2831853071795862
1 0 -3.2782175923971104e-16
-3.2782175923971104e-16 0 -1
348 5 3064 610 608 
361 5 3064 633 635 
3064 1 9 0 210 0 2 2981 3000
348 361 
_sim_empty
-1
1 5.1538065982055095 0.057628843269256505 0.051882617143152739 -0.029442708798816768
1e-08
1 3
3.8731124355257744 6.4345007608852436
0.057628843269256505 0.057623950179979802 -0.032155566141221295
0.0063499999999999997 6.2831853071795862
-1 0 2.4586631942978349e-16
2.4586631942978349e-16 0 1
112 5 3055 218 216 
117 5 3055 225 227 
3055 1 9 0 210 0 2 2975 2950
112 117 
_sim_empty
-1
1 5.9174254162116018 0.066899843269256506 0.071295957976794416 -0.052397020604351405
1e-08
1 3
5.5516655252436173 6.2831853071795862
0.066899843269256506 0.073567092776402401 -0.046467058823529403
0.0063499999999999997 6.2831853071795862
1 0 -3.2782175923971104e-16
-3.2782175923971104e-16 0 -1
350 5 3051 614 612 
359 5 3051 629 631 
3051 1 9 0 210 0 2 2959 2978
350 359 
_sim_empty
-1
1 3.5073525445577776 0.057628843269256505 0.07129595797679443 -0.052397020604351405
1e-08
1 3
3.1415926535897931 3.873112435525762
0.057628843269256505 0.073567092776402401 -0.046467058823529403
0.0063499999999999997 6.2831853071795862
-1 0 2.4586631942978349e-16
2.4586631942978349e-16 0 1
110 5 3042 214 212 
119 5 3042 229 231 
3042 1 9 0 210 0 2 2953 2928
110 119 
_sim_empty
-1
1 0.29695215047937801 0.066899843269256506 0.089746083857624934 -0.052539136796251107
1e-08
1 3
0 0.59390430095875602
0.066899843269256506 0.087888028666521095 -0.046467058823529403
0.0063499999999999997 6.2831853071795862
1 0 -3.2782175923971104e-16
-3.2782175923971104e-16 0 -1
352 5 3038 618 616 
357 5 3038 625 627 
3038 1 9 0 210 0 2 2937 2956
352 357 
_sim_empty
-1
1 2.8446405031104152 0.057628843269256505 0.089746083857624934 -0.052539136796251107
1e-08
1 3
2.5476883526310372 3.1415926535897931
0.057628843269256505 0.087888028666521095 -0.046467058823529403
0.0063499999999999997 6.2831853071795862
-1 0 2.4586631942978349e-16
2.4586631942978349e-16 0 1
544 5 3033 208 602 
545 5 3033 235 621 
3033 1 9 0 210 0 2 3016 3025
544 545 
_sim_empty
-1
1 0.5 0.062264343325513102 0.1001060602338068 -0.034852268310168508
1e-08
1 0
0 1
0.0668998433817697 0.1001060602338068 -0.034852268310168508
0.057628843269256505 0.1001060602338068 -0.034852268310168501
542 5 3028 604 206 
547 5 3028 639 237 
3028 1 9 0 210 0 2 3022 3019
542 547 
_sim_empty
-1
1 0.5 0.062264343325513102 0.094892442542452896 -0.03185171431609389
1e-08
-1 0
0 1
0.0668998433817697 0.094892442542452896 -0.031851714316093897
0.057628843269256505 0.094892442542452896 -0.03185171431609389
536 5 3011 608 202 
537 5 3011 635 221 
3011 1 9 0 210 0 2 3000 2997
536 537 
_sim_empty
-1
1 0.5 0.062264343325513151 0.058581140832154002 -0.025878123504654196
1e-08
-1 0
0 1
0.0668998433817697 0.058581140832154002 -0.0258781235046542
0.057628843269256602 0.058581140832154002 -0.025878123504654196
534 5 3006 204 606 
539 5 3006 239 637 
3006 1 9 0 210 0 2 2994 3003
534 539 
_sim_empty
-1
1 0.5 0.062264343325513102 0.092682180914696391 -0.031077883771086452
1e-08
1 0
0 1
0.0668998433817697 0.092682180914696391 -0.031077883771086452
0.057628843269256505 0.092682180914696391 -0.031077883771086449
528 5 2989 612 218 
529 5 2989 631 225 
2989 1 9 0 210 0 2 2978 2975
528 529 
_sim_empty
-1
1 0.5 0.062264343325513102 0.069325284095844902 -0.051192475113926106
1e-08
-1 0
0 1
0.0668998433817697 0.069325284095844902 -0.051192475113926106
0.057628843269256505 0.069325284095844902 -0.051192475113926099
526 5 2984 220 610 
531 5 2984 223 633 
2984 1 9 0 210 0 2 2972 2981
526 531 
_sim_empty
-1
1 0.5 0.062264343325513102 0.053382141499422199 -0.036880982431617998
1e-08
1 0
0 1
0.0668998433817697 0.053382141499422199 -0.036880982431618005
0.057628843269256505 0.053382141499422199 -0.036880982431617998
520 5 2967 616 214 
521 5 2967 627 229 
2967 1 9 0 210 0 2 2956 2953
520 521 
_sim_empty
-1
1 0.5 0.062264343325513102 0.087888028666521095 -0.052817058823529398
1e-08
-1 0
0 1
0.0668998433817697 0.087888028666521095 -0.052817058823529398
0.057628843269256505 0.087888028666521095 -0.052817058823529391
518 5 2962 216 614 
523 5 2962 227 629 
2962 1 9 0 210 0 2 2950 2959
518 523 
_sim_empty
-1
1 0.5 0.062264343325513102 0.073567092776402401 -0.052817058823529398
1e-08
1 0
0 1
0.0668998433817697 0.073567092776402401 -0.052817058823529404
0.057628843269256505 0.073567092776402401 -0.052817058823529398
552 5 2945 212 618 
553 5 2945 231 625 
2945 1 9 0 210 0 2 2928 2937
552 553 
_sim_empty
-1
1 0.5 0.062264343325513102 0.091441495122585009 -0.051729698479218308
1e-08
1 0
0 1
0.0668998433817697 0.091441495122585009 -0.051729698479218308
0.057628843269256505 0.091441495122585009 -0.051729698479218301
550 5 2940 620 210 
555 5 2940 623 233 
2940 1 9 0 210 0 2 2934 2931
550 555 
_sim_empty
-1
1 0.5 0.062264343325513102 0.10049207440993981 -0.0456185200574169
1e-08
-1 0
0 1
0.0668998433817697 0.10049207440993981 -0.0456185200574169
0.057628843269256505 0.10049207440993981 -0.045618520057416893
351 5 2957 616 614 
358 5 2957 627 629 
2957 1 9 0 210 0 2 2956 2959
351 358 
_sim_empty
-1
1 0.5 0.057628843269256505 0.080727560721461755 -0.052817058823529398
1e-08
1 0
0 1
0.057628843269256505 0.087888028666521095 -0.052817058823529398
0.057628843269256505 0.073567092776402401 -0.052817058823529398
349 5 2979 612 610 
360 5 2979 631 633 
2979 1 9 0 210 0 2 2978 2981
349 360 
_sim_empty
-1
1 0.5 0.057628843269256519 0.061353712797633499 -0.044036728772771969
1e-08
1 0
0 1
0.057628843269256519 0.069325284095844847 -0.051192475113926043
0.057628843269256526 0.05338214149942215 -0.036880982431617901
347 5 3001 608 606 
362 5 3001 635 637 
3001 1 9 0 210 0 2 3000 3003
347 362 
_sim_empty
-1
1 0.5 0.057628843269256505 0.075631660873425072 -0.028478003637870335
1e-08
1 0
0 1
0.057628843269256512 0.058581140832153919 -0.025878123504654228
0.057628843269256505 0.092682180914696238 -0.031077883771086445
345 5 3023 604 602 
364 5 3023 639 621 
3023 1 9 0 210 0 2 3022 3025
345 364 
_sim_empty
-1
1 0.5 0.057628843269256512 0.097499251388129871 -0.033351991313131227
1e-08
1 0
0 1
0.057628843269256512 0.094892442542452923 -0.031851714316093918
0.057628843269256512 0.10010606023380683 -0.034852268310168528
353 5 2935 620 618 
356 5 2935 623 625 
2935 1 9 0 210 0 2 2934 2937
353 356 
_sim_empty
-1
1 0.5 0.057628843269256595 0.095966784766262372 -0.048674109268317556
1e-08
1 0
0 1
0.057628843269256595 0.10049207440993979 -0.045618520057416879
0.057628843269256595 0.091441495122584954 -0.051729698479218225
74 5 2482 142 140 
83 5 2482 157 159 
2482 1 9 0 210 0 2 2407 2382
74 83 
_sim_empty
-1
1 3.7392358223137947 0.066899843269256604 0.17194839077419447 -0.016415404638766857
1e-08
1 3
3.2734010611385109 4.2050705834890785
0.066899843269256604 0.17552150866102448 -0.02166472160069775
0.0063499999999999997 6.2831853071795862
1 0 -3.2782175923971104e-16
-3.2782175923971104e-16 0 -1
328 5 2478 578 576 
333 5 2478 585 587 
2478 1 9 0 210 0 2 2391 2410
328 333 
_sim_empty
-1
1 5.6855421384555846 0.057628843269256602 0.17194839077419447 -0.016415404638766857
1e-08
1 3
5.2197073772803009 6.1513768996308684
0.057628843269256602 0.17552150866102448 -0.02166472160069775
0.0063499999999999997 6.2831853071795862
-1 0 2.4586631942978349e-16
2.4586631942978349e-16 0 1
76 5 2469 146 144 
81 5 2469 153 155 
2469 1 9 0 210 0 2 2319 2404
76 81 
_sim_empty
-1
1 2.2330479584711016 0.066899843269256604 0.18565193569269869 -0.017080984366526084
1e-08
1 3
1.1926948558036876 3.2734010611385154
0.066899843269256604 0.18064426399120648 -0.020985561697054202
0.0063499999999999997 6.2831853071795862
1 0 -3.2782175923971104e-16
-3.2782175923971104e-16 0 -1
326 5 2465 574 572 
335 5 2465 589 591 
2465 1 9 0 210 0 2 2413 2322
326 335 
_sim_empty
-1
1 7.1917300022982786 0.057628843269256602 0.18565193569269869 -0.017080984366526084
1e-08
1 3
6.151376899630864 8.2320831049656924
0.057628843269256602 0.18064426399120648 -0.020985561697054202
0.0063499999999999997 6.2831853071795862
-1 0 2.4586631942978349e-16
2.4586631942978349e-16 0 1
72 5 2456 138 136 
85 5 2456 161 163 
2456 1 9 0 210 0 2 2385 2360
72 85 
_sim_empty
-1
1 4.6956005983358446 0.066899843269256506 0.14975610137952342 -0.040890389347317473
1e-08
1 3
3.644573701545331 5.7466274951263587
0.066899843269256506 0.156105206527516 -0.040996990565574799
0.0063499999999999997 6.2831853071795862
1 0 -3.2782175923971104e-16
-3.2782175923971104e-16 0 -1
330 5 2452 562 580 
331 5 2452 581 583 
2452 1 9 0 210 0 2 2369 2388
330 331 
_sim_empty
-1
1 4.7291773624335338 0.057628843269256505 0.14975610137952342 -0.04089038934731748
1e-08
1 3
3.6781504656430206 5.7802042592240479
0.057628843269256505 0.156105206527516 -0.040996990565574799
0.0063499999999999997 6.2831853071795862
-1 0 2.4586631942978349e-16
2.4586631942978349e-16 0 1
70 5 2443 134 132 
87 5 2443 165 167 
2443 1 9 0 210 0 2 2363 2338
70 87 
_sim_empty
-1
1 6.0149064011529738 0.066899843269256506 0.16575441011377909 -0.053859910043536852
1e-08
1 3
5.7466274951263614 6.2831853071795862
0.066899843269256506 0.16743761923259151 -0.047737058823529403
0.0063499999999999997 6.2831853071795862
1 0 -3.2782175923971104e-16
-3.2782175923971104e-16 0 -1
322 5 2439 566 564 
339 5 2439 597 599 
2439 1 9 0 210 0 2 2347 2366
322 339 
_sim_empty
-1
1 3.4098715596164055 0.057628843269256505 0.16575441011377909 -0.053859910043536852
1e-08
1 3
3.1415926535897931 3.6781504656430175
0.057628843269256505 0.16743761923259151 -0.047737058823529403
0.0063499999999999997 6.2831853071795862
-1 0 2.4586631942978349e-16
2.4586631942978349e-16 0 1
78 5 2430 130 148 
79 5 2430 149 151 
2430 1 9 0 210 0 2 2341 2316
78 79 
_sim_empty
-1
1 0.59634742790182582 0.066899843269256506 0.17358453511185867 -0.052991001212218447
1e-08
1 3
0 1.1926948558036516
0.066899843269256506 0.17001822197693398 -0.047737058823529403
0.0063499999999999997 6.2831853071795862
1 0 -3.2782175923971104e-16
-3.2782175923971104e-16 0 -1
324 5 2426 570 568 
337 5 2426 593 595 
2426 1 9 0 210 0 2 2325 2344
324 337 
_sim_empty
-1
1 2.5452452256879674 0.057628843269256505 0.17358453511185867 -0.052991001212218447
1e-08
1 3
1.9488977977861417 3.1415926535897931
0.057628843269256505 0.17001822197693398 -0.047737058823529403
0.0063499999999999997 6.2831853071795862
-1 0 2.4586631942978349e-16
2.4586631942978349e-16 0 1
440 5 2421 144 574 
441 5 2421 155 589 
2421 1 9 0 210 0 2 2404 2413
440 441 
_sim_empty
-1
1 0.5 0.062264343325513151 0.17980970204792399 -0.014690642606007501
1e-08
1 0
0 1
0.0668998433817697 0.17980970204792399 -0.014690642606007503
0.057628843269256602 0.17980970204792399 -0.0146906426060075
438 5 2416 576 142 
443 5 2416 587 157 
2416 1 9 0 210 0 2 2410 2407
438 443 
_sim_empty
-1
1 0.5 0.062264343325513151 0.17468694671774201 -0.015369802509651049
1e-08
1 0
0 1
0.057628843269256602 0.17468694671774201 -0.015369802509651047
0.0668998433817697 0.17468694671774201 -0.015369802509651051
472 5 2399 580 138 
473 5 2399 583 161 
2399 1 9 0 210 0 2 2388 2385
472 473 
_sim_empty
-1
1 0.5 0.062264343325513102 0.15304425557430801 -0.035433441405006899
1e-08
-1 0
0 1
0.0668998433817697 0.15304425557430801 -0.035433441405006899
0.057628843269256505 0.15304425557430801 -0.035433441405006892
470 5 2394 140 578 
475 5 2394 159 585 
2394 1 9 0 210 0 2 2382 2391
470 475 
_sim_empty
-1
1 0.5 0.062264343325513151 0.16997128820352098 -0.018579668461267948
1e-08
1 0
0 1
0.0668998433817697 0.16997128820352098 -0.018579668461267951
0.057628843269256602 0.16997128820352098 -0.018579668461267948
464 5 2377 564 134 
465 5 2377 599 165 
2377 1 9 0 210 0 2 2366 2363
464 465 
_sim_empty
-1
1 0.5 0.062264343325513102 0.16419162269506452 -0.053194714591197595
1e-08
-1 0
0 1
0.0668998433817697 0.16419162269506452 -0.053194714591197595
0.057628843269256505 0.16419162269506452 -0.053194714591197588
462 5 2372 136 562 
467 5 2372 163 581 
2372 1 9 0 210 0 2 2360 2369
462 467 
_sim_empty
-1
1 0.5 0.062264343325513102 0.15285920998998898 -0.046454646333243005
1e-08
-1 0
0 1
0.057628843269256505 0.15285920998998898 -0.046454646333242998
0.0668998433817697 0.15285920998998898 -0.046454646333243005
456 5 2355 568 130 
457 5 2355 595 149 
2355 1 9 0 210 0 2 2344 2341
456 457 
_sim_empty
-1
1 0.5 0.062264343325513102 0.17001822197693398 -0.054087058823529391
1e-08
-1 0
0 1
0.0668998433817697 0.17001822197693398 -0.054087058823529398
0.057628843269256505 0.17001822197693398 -0.054087058823529391
454 5 2350 132 566 
459 5 2350 167 597 
2350 1 9 0 210 0 2 2338 2347
454 459 
_sim_empty
-1
1 0.5 0.062264343325513102 0.16743761923259151 -0.054087058823529405
1e-08
1 0
0 1
0.0668998433817697 0.16743761923259151 -0.054087058823529405
0.057628843269256505 0.16743761923259151 -0.054087058823529398
448 5 2333 148 570 
449 5 2333 151 593 
2333 1 9 0 210 0 2 2316 2325
448 449 
_sim_empty
-1
1 0.5 0.062264343325513102 0.17591970347328648 -0.0500812039018486
1e-08
1 0
0 1
0.0668998433817697 0.17591970347328648 -0.050081203901848607
0.057628843269256505 0.17591970347328648 -0.0500812039018486
446 5 2328 572 146 
451 5 2328 591 153 
2328 1 9 0 210 0 2 2322 2319
446 451 
_sim_empty
-1
1 0.5 0.062264343325513151 0.18654574548755948 -0.023329706775373348
1e-08
-1 0
0 1
0.0668998433817697 0.18654574548755948 -0.023329706775373351
0.057628843269256602 0.18654574548755948 -0.023329706775373348
327 5 2411 576 574 
334 5 2411 587 589 
2411 1 9 0 210 0 2 2410 2413
327 334 
_sim_empty
-1
1 0.5 0.057628843269256602 0.177248324382833 -0.01503022255782924
1e-08
1 0
0 1
0.057628843269256602 0.17468694671774201 -0.015369802509651006
0.057628843269256602 0.17980970204792399 -0.014690642606007477
325 5 2323 572 570 
336 5 2323 591 593 
2323 1 9 0 210 0 2 2322 2325
325 336 
_sim_empty
-1
1 0.5 0.057628843269256519 0.18123272448042288 -0.036705455338610964
1e-08
1 0
0 1
0.057628843269256519 0.18654574548755928 -0.023329706775373313
0.057628843269256512 0.17591970347328648 -0.050081203901848614
323 5 2345 568 566 
338 5 2345 595 597 
2345 1 9 0 210 0 2 2344 2347
323 338 
_sim_empty
-1
1 0.5 0.057628843269256505 0.16872792060476274 -0.054087058823529398
1e-08
1 0
0 1
0.057628843269256505 0.17001822197693398 -0.054087058823529398
0.057628843269256505 0.16743761923259151 -0.054087058823529398
321 5 2367 564 562 
340 5 2367 599 581 
2367 1 9 0 210 0 2 2366 2369
321 340 
_sim_empty
-1
1 0.5 0.057628843269256505 0.1585254163425267 -0.049824680462220342
1e-08
1 0
0 1
0.057628843269256505 0.16419162269506443 -0.053194714591197692
0.057628843269256505 0.15285920998998895 -0.046454646333242991
329 5 2389 580 578 
332 5 2389 583 585 
2389 1 9 0 210 0 2 2388 2391
329 332 
_sim_empty
-1
1 2.3583631646623768 0.057628843269256595 0.16269637229831593 -0.028200321930010881
1e-08
-1 3
2.0781147236904811 2.638611605634273
0.057628843269256602 0.13222978909249458 0.002398692886854775
0.043180000000000003 6.2831853071795862
-1 0 2.4586631942978349e-16
2.4586631942978349e-16 0 1
94 5 1292 182 180 
99 5 1292 189 191 
1292 1 9 0 210 0 2 1220 1195
94 99 
_sim_empty
-1
1 2.4455473193809003 0.066899843269256604 0.079558125719171147 0.023357466423742278
1e-08
1 3
1.3731904531844237 3.5179041855773767
0.066899843269256604 0.075486582158492702 0.018484578877995102
0.0063499999999999997 6.2831853071795862
1 0 -3.2782175923971104e-16
-3.2782175923971104e-16 0 -1
174 5 1284 317 316 
179 5 1284 325 328 
1284 1 9 0 210 0 2 1189 1214
174 179 
_sim_empty
-1
1 6.9792306413884804 0.02733234734725655 0.079558125719171147 0.023357466423742274
1e-08
1 3
5.9068737751920057 8.051587507584955
0.02733234734725655 0.075486582158492702 0.018484578877995102
0.0063499999999999997 6.2831853071795862
-1 0 3.2782175923971154e-16
3.2782175923971154e-16 0 1
96 5 1275 170 184 
97 5 1275 185 187 
1275 1 9 0 210 0 2 1154 1217
96 97 
_sim_empty
-1
1 7.1601630560440475 0.066899843269256604 0.082149449473970376 -0.011559309817673932
1e-08
1 3
6.1318698534739315 8.1884562586141634
0.066899843269256604 0.077267507681492792 -0.0074986270752203099
0.0063499999999999997 6.2831853071795862
1 0 -3.2782175923971104e-16
-3.2782175923971104e-16 0 -1
172 5 1267 313 312 
181 5 1267 329 332 
1267 1 9 0 210 0 2 1211 1148
172 181 
_sim_empty
-1
1 2.2646149047253323 0.02733234734725655 0.082149449473970376 -0.011559309817673913
1e-08
1 3
1.2363217021552164 3.2929081072954483
0.02733234734725655 0.077267507681492792 -0.00749862707522029
0.0063499999999999997 6.2831853071795862
-1 0 3.2782175923971154e-16
3.2782175923971154e-16 0 1
92 5 1258 178 176 
101 5 1258 193 195 
1258 1 9 0 210 0 2 1198 1173
92 101 
_sim_empty
-1
1 4.1151465829810423 0.066899843269256604 0.052196936565049729 0.01492766499672905
1e-08
1 3
3.5179041855773905 4.7123889803846932
0.066899843269256604 0.057447685108549099 0.011356651172485402
0.0063499999999999997 6.2831853071795862
1 0 -3.2782175923971104e-16
-3.2782175923971104e-16 0 -1
176 5 1250 305 320 
177 5 1250 321 324 
1250 1 9 0 210 0 2 1167 1192
176 177 
_sim_empty
-1
1 5.3096313777883406 0.02733234734725655 0.052196936565049742 0.014927664996729068
1e-08
1 3
4.7123889803846897 5.9068737751919915
0.02733234734725655 0.057447685108549099 0.011356651172485402
0.0063499999999999997 6.2831853071795862
-1 0 3.2782175923971154e-16
3.2782175923971154e-16 0 1
90 5 1241 174 172 
103 5 1241 197 199 
1241 1 9 0 210 0 2 1176 1151
90 103 
_sim_empty
-1
1 5.4221294169293017 0.066899843269256604 0.052631012987607875 -0.0086143753106323398
1e-08
1 3
4.7123889803846906 6.1318698534739129
0.066899843269256604 0.057447685108549203 -0.0044764809572991606
0.0063499999999999997 6.2831853071795862
1 0 -3.2782175923971104e-16
-3.2782175923971104e-16 0 -1
170 5 1233 309 308 
183 5 1233 333 336 
1233 1 9 0 210 0 2 1145 1170
170 183 
_sim_empty
-1
1 4.0026485438400776 0.02733234734725655 0.052631012987607882 -0.0086143753106323259
1e-08
1 3
3.2929081072954669 4.7123889803846888
0.02733234734725655 0.057447685108549203 -0.004476480957299145
0.0063499999999999997 6.2831853071795862
-1 0 3.2782175923971154e-16
3.2782175923971154e-16 0 1
384 5 1228 184 313 
385 5 1228 187 329 
1228 1 9 0 210 0 2 1217 1211
384 385 
_sim_empty
-1
1 0.5 0.047116095364513125 0.083265609137818997 -0.0054140938134042329
1e-08
1 0
0 1
0.0668998433817697 0.083265609137818997 -0.0054140938134042407
0.02733234734725655 0.083265609137818997 -0.0054140938134042259
382 5 1223 316 182 
387 5 1223 328 189 
1223 1 9 0 210 0 2 1214 1220
382 387 
_sim_empty
-1
1 0.5 0.047116095364513125 0.081713007399819002 0.017237931889398959
1e-08
-1 0
0 1
0.0668998433817697 0.081713007399819002 0.017237931889398952
0.02733234734725655 0.081713007399819002 0.017237931889398966
376 5 1206 320 178 
377 5 1206 324 193 
1206 1 9 0 210 0 2 1192 1198
376 377 
_sim_empty
-1
1 0.5 0.047116095364513125 0.055114107071679602 0.017262319089481757
1e-08
-1 0
0 1
0.0668998433817697 0.055114107071679602 0.01726231908948175
0.02733234734725655 0.055114107071679602 0.017262319089481764
374 5 1201 180 317 
379 5 1201 191 325 
1201 1 9 0 210 0 2 1195 1189
374 379 
_sim_empty
-1
1 0.5 0.047116095364513125 0.073153004121623302 0.024390246794991494
1e-08
-1 0
0 1
0.02733234734725655 0.073153004121623302 0.024390246794991501
0.0668998433817697 0.073153004121623302 0.024390246794991487
400 5 1184 308 174 
401 5 1184 336 197 
1184 1 9 0 210 0 2 1170 1176
400 401 
_sim_empty
-1
1 0.5 0.047116095364513125 0.051097685108549201 -0.004476480957299158
1e-08
-1 0
0 1
0.0668998433817697 0.051097685108549201 -0.004476480957299165
0.02733234734725655 0.051097685108549201 -0.0044764809572991502
398 5 1179 176 305 
403 5 1179 195 321 
1179 1 9 0 210 0 2 1173 1167
398 403 
_sim_empty
-1
1 0.5 0.047116095364513125 0.051097685108549097 0.011356651172485393
1e-08
1 0
0 1
0.0668998433817697 0.051097685108549097 0.011356651172485386
0.02733234734725655 0.051097685108549097 0.011356651172485402
392 5 1162 172 309 
393 5 1162 199 333 
1162 1 9 0 210 0 2 1151 1145
392 393 
_sim_empty
-1
1 0.5 0.047116095364513125 0.056490494456374898 -0.010753923593866229
1e-08
1 0
0 1
0.0668998433817697 0.056490494456374898 -0.010753923593866236
0.02733234734725655 0.056490494456374898 -0.01075392359386622
390 5 1157 312 170 
395 5 1157 332 185 
1157 1 9 0 210 0 2 1148 1154
390 395 
_sim_empty
-1
1 0.5 0.047116095364513125 0.076310317029318606 -0.013776069711787391
1e-08
1 0
0 1
0.02733234734725655 0.076310317029318606 -0.013776069711787384
0.0668998433817697 0.076310317029318606 -0.0137760697117874
55 5 1602 101 104 
58 5 1602 109 108 
1602 1 9 0 210 0 2 7257 64
55 58 
_sim_empty
-1
1 0.5 0.066899843269256604 0.019347685108549138 0.016341120038199451
1e-08
1 0
0 1
0.066899843269256604 0.032047685108549148 0.016341120038199451
0.066899843269256604 0.0066476851085491284 0.016341120038199451
131 5 1599 241 244 
138 5 1599 250 256 
1599 1 9 0 210 0 2 7232 63
131 138 
_sim_empty
-1
1 0.5 0.02733234734725655 0.019347685108549166 0.016341120038199451
1e-08
1 0
0 1
0.02733234734725655 0.032047685108549204 0.016341120038199451
0.02733234734725655 0.0066476851085491284 0.016341120038199451
3 5 1529 7 6 
6 5 1529 11 13 
1529 1 9 0 210 0 2 7353 62
3 6 
_sim_empty
-1
1 0.5 0.02733234734725655 0.019347685108549166 -0.015408879961800549
1e-08
1 0
0 1
0.02733234734725655 0.032047685108549204 -0.015408879961800549
0.02733234734725655 0.0066476851085491284 -0.015408879961800549
2 5 45 6 4 
7 5 45 13 15 
45 1 9 0 210 0 2 62 672
2 7 
_sim_empty
-1
1 0.5 0.042480595308256576 0.0066476851085491302 -0.015408879961800546
1e-08
1 0
0 1
0.02733234734725655 0.0066476851085491302 -0.015408879961800544
0.057628843269256602 0.0066476851085491302 -0.015408879961800548
143 5 49 244 6 
166 5 49 256 13 
49 1 9 0 210 0 2 63 62
143 166 
_sim_empty
-1
1 0.5 0.027332347347256557 0.0066476851085491302 0.00046612003819945097
1e-08
1 0
0 1
0.02733234734725656 0.0066476851085491302 0.016341120038199451
0.02733234734725655 0.0066476851085491302 -0.015408879961800549
132 5 53 104 244 
137 5 53 108 256 
53 1 9 0 210 0 2 64 63
132 137 
_sim_empty
-1
1 0.5 0.047116095308256577 0.0066476851085491302 0.016341120038199465
1e-08
1 0
0 1
0.066899843269256604 0.0066476851085491302 0.016341120038199451
0.02733234734725655 0.0066476851085491302 0.016341120038199475
56 5 57 82 104 
57 5 57 105 108 
57 1 9 0 210 0 2 61 64
56 57 
_sim_empty
-1
1 0.5 0.066899843269256604 0.0066476851085491302 0.00046612003819945097
1e-08
1 0
0 1
0.066899843269256604 0.0066476851085491302 -0.015408879961800549
0.066899843269256618 0.0066476851085491302 0.016341120038199451
197 5 147 -1 -1 
198 5 147 -1 -1 
147 1 9 0 210 0 2 -1 -1
197 198 
_sim_empty
-1
1 3.1415926535897931 0.0546646946945131 0.028872685108549151 0.004762499999999982
1e-08
1 3
0 6.2831853071795862
0.0546646946945131 0.028872685108549151 -1.7920276383056999e-17
0.0047625000000000002 6.2831853071795862
0 1 0
-6.5564351847942307e-16 0 -1
195 5 150 -1 -1 
196 5 150 -1 -1 
150 1 9 0 210 0 2 -1 -1
195 196 
_sim_empty
-1
1 3.1415926535897931 0.0546646946945131 0.0066476851085491302 0.004762499999999982
1e-08
1 3
0 6.2831853071795862
0.0546646946945131 0.0066476851085491302 -1.7920276383056999e-17
0.0047625000000000002 6.2831853071795862
0 1 0
-6.5564351847942307e-16 0 -1
13 5 1475 19 7 
20 5 1475 31 11 
1475 1 9 0 210 0 2 7305 7353
13 20 
_sim_empty
-1
1 0.5 0.027332347459769646 0.066823842554274621 -0.020711582790446739
1e-08
1 0
0 1
0.027332347459769642 0.10160000000000004 -0.026014285619092917
0.027332347459769649 0.032047685108549204 -0.015408879961800558
145 5 1577 241 264 
164 5 1577 250 300 
1577 1 9 0 210 0 2 7232 7037
145 164 
_sim_empty
-1
1 0.5 0.027332347459769705 0.066823842554274621 0.030082644005116767
1e-08
1 0
0 1
0.027332347459769698 0.032047685108549211 0.016341120038199475
0.027332347459769712 0.10160000000000004 0.043824167972034062
54 5 1583 101 100 
59 5 1583 109 112 
1583 1 9 0 210 0 2 7257 7062
54 59 
_sim_empty
-1
1 0.5 0.066899843269256604 0.066823842554274593 0.030082644005116756
1e-08
1 0
0 1
0.066899843269256604 0.032047685108549148 0.016341120038199451
0.066899843269256618 0.10160000000000004 0.043824167972034062
148 5 1657 267 269 
161 5 1657 295 294 
1657 1 9 0 210 0 2 7167 311
148 161 
_sim_empty
-1
1 0.5 0.027332347459769698 0.19655231489145103 0.029912279961800552
1e-08
1 0
0 1
0.027332347459769698 0.18385231489145101 0.029912279961800552
0.027332347459769698 0.20925231489145102 0.029912279961800552
51 5 1654 95 94 
62 5 1654 115 118 
1654 1 9 0 210 0 2 7192 313
51 62 
_sim_empty
-1
1 0.5 0.0668998433817697 0.19655231489145103 0.029912279961800552
1e-08
1 0
0 1
0.0668998433817697 0.18385231489145101 0.029912279961800552
0.0668998433817697 0.20925231489145102 0.029912279961800552
21 5 1569 33 35 
28 5 1569 41 48 
1569 1 9 0 210 0 2 7401 310
21 28 
_sim_empty
-1
1 0.5 0.027332347459769698 0.19655231489145103 -0.00056772003819944401
1e-08
1 0
0 1
0.027332347459769698 0.18385231489145101 -0.00056772003819944401
0.027332347459769698 0.20925231489145102 -0.00056772003819944401
222 5 295 94 269 
227 5 295 118 294 
295 1 9 0 210 0 2 313 311
222 227 
_sim_empty
-1
1 0.5 0.047116095420769701 0.20925231489145102 0.029912279961800542
1e-08
1 0
0 1
0.0668998433817697 0.20925231489145102 0.029912279961800532
0.027332347459769698 0.20925231489145102 0.029912279961800552
50 5 294 91 94 
63 5 294 119 118 
294 1 9 0 210 0 2 314 313
50 63 
_sim_empty
-1
1 0.5 0.066899843381769714 0.20925231489145102 0.014672279961800544
1e-08
1 0
0 1
0.0668998433817697 0.20925231489145102 -0.00056772003819946298
0.066899843381769714 0.20925231489145102 0.029912279961800552
22 5 293 35 38 
27 5 293 48 46 
293 1 9 0 210 0 2 310 656
22 27 
_sim_empty
-1
1 0.5 0.042480595364513152 0.20925231489145102 -0.00056772003819945127
1e-08
1 0
0 1
0.027332347459769698 0.20925231489145102 -0.00056772003819944401
0.057628843269256602 0.20925231489145102 -0.00056772003819945854
149 5 292 269 35 
160 5 292 294 48 
292 1 9 0 210 0 2 311 310
149 160 
_sim_empty
-1
1 0.5 0.027332347459769708 0.20925231489145102 0.014672279961800554
1e-08
1 0
0 1
0.027332347459769715 0.20925231489145102 0.029912279961800552
0.027332347459769698 0.20925231489145102 -0.00056772003819944401
241 5 297 -1 -1 
242 5 297 -1 -1 
297 1 9 0 210 0 2 -1 -1
241 242 
_sim_empty
-1
1 3.1415926535897931 0.039567496034513143 0.18702731489145102 0.0103759
1e-08
1 3
0 6.2831853071795862
0.03956749603451315 0.18702731489145102 0.0151384
0.0047625000000000002 6.2831853071795862
0 -1 0
6.5564351847942307e-16 0 1
239 5 296 -1 -1 
240 5 296 -1 -1 
296 1 9 0 210 0 2 -1 -1
239 240 
_sim_empty
-1
1 3.1415926535897931 0.039567496034513143 0.20925231489145102 0.0103759
1e-08
1 3
0 6.2831853071795862
0.03956749603451315 0.20925231489145102 0.0151384
0.0047625000000000002 6.2831853071795862
0 -1 0
6.5564351847942307e-16 0 1
52 5 1632 95 97 
61 5 1632 115 114 
1632 1 9 0 210 0 2 7192 7102
52 61 
_sim_empty
-1
1 0.5 0.066899843381769672 0.16812615744572534 0.036868223966917309
1e-08
1 0
0 1
0.066899843381769672 0.18385231489145082 0.029912279961800514
0.066899843381769672 0.15239999999999984 0.043824167972034103
29 5 1553 33 50 
36 5 1553 41 57 
1553 1 9 0 210 0 2 7401 6989
29 36 
_sim_empty
-1
1 0.5 0.027332347459769677 0.16984955755959844 -0.011896682118989525
1e-08
1 0
0 1
0.027332347459769681 0.18385231489145093 -0.00056772003819925698
0.027332347459769674 0.15584680022774594 -0.023225644199779794
147 5 1638 267 266 
162 5 1638 295 297 
1638 1 9 0 210 0 2 7167 7127
147 162 
_sim_empty
-1
1 0.5 0.027332347459769677 0.1681261574457254 0.036868223966917316
1e-08
1 0
0 1
0.027332347459769674 0.1838523148914509 0.0299122799618005
0.027332347459769681 0.15239999999999992 0.043824167972034138
146 5 1610 266 264 
163 5 1610 297 300 
1610 1 9 0 210 0 2 7127 7037
146 163 
_sim_empty
-1
1 3.141592653589794 0.027332347459769722 0.12699999999999997 0.052084941176470591
1e-08
1 3
2.5127177280947421 3.7704675790848454
0.027332347459769698 0.127 0.0089049411764705894
0.043180000000000003 6.2831853071795862
1 0 -5.4181651874341196e-16
-5.4181651874341196e-16 0 -1
37 5 1537 19 50 
44 5 1537 31 57 
1537 1 9 0 210 0 2 7305 6989
37 44 
_sim_empty
-1
1 6.3345466564550286 0.027332347459769674 0.12921680810939384 -0.034218117177571575
1e-08
1 3
5.6543103816845344 7.0147829312255237
0.027332347459769698 0.127 0.0089049411764705894
0.043180000000000003 6.2831853071795862
1 0 -5.4181651874341196e-16
-5.4181651874341196e-16 0 -1
53 5 1616 97 100 
60 5 1616 114 112 
1616 1 9 0 210 0 2 7102 7062
53 60 
_sim_empty
-1
1 6.2831853071795862 0.066899843381769727 0.127 0.052084941176470563
1e-08
-1 3
5.6543103816845344 6.9120602326746372
0.0668998433817697 0.127 0.0089049411764705599
0.043180000000000003 6.2831853071795862
-1 0 5.4181651874341196e-16
5.4181651874341196e-16 0 1
167 5 488 -1 -1 
168 5 488 -1 -1 
488 1 9 0 210 0 2 -1 -1
167 168 
_sim_empty
-1
1 3.1415926535897931 0.027332347347256564 0.127 0.046395341176470588
1e-08
1 3
0 6.2831853071795862
0.02733234734725655 0.127 0.0089049411764705894
0.0374904 6.2831853071795862
1 0 -3.8245871911299651e-16
-3.8245871911299651e-16 0 -1
125 5 567 -1 -1 
126 5 567 -1 -1 
567 1 9 0 210 0 2 -1 -1
125 126 
_sim_empty
-1
1 3.1415926535897931 0.06689984326925659 0.127 -0.02858545882352944
1e-08
1 3
0 6.2831853071795862
0.066899843269256604 0.127 0.0089049411764705599
0.0374904 6.2831853071795862
-1 0 3.8245871911299651e-16
3.8245871911299651e-16 0 1
189 5 704 4 82 
190 5 704 15 105 
704 1 9 0 210 0 2 672 61
189 190 
_sim_empty
-1
1 0.5 0.062264343269256603 0.0066476851085491302 -0.015408879961800549
1e-08
1 0
0 1
0.057628843269256602 0.0066476851085491302 -0.015408879961800549
0.066899843269256604 0.0066476851085491302 -0.015408879961800551
264 5 708 447 84 
265 5 708 451 127 
708 1 9 0 210 0 2 773 776
264 265 
_sim_empty
-1
1 0.5 0.062264343269256506 0.077241382638884901 -0.078777891404322897
1e-08
1 0
0 1
0.057628843269256505 0.077241382638884901 -0.078777891404322897
0.066899843269256506 0.077241382638884901 -0.078777891404322897
272 5 712 463 86 
273 5 712 467 125 
712 1 9 0 210 0 2 775 778
272 273 
_sim_empty
-1
1 0.5 0.062264343269256506 0.096043749999999997 -0.0767306659469187
1e-08
1 0
0 1
0.057628843269256505 0.096043749999999997 -0.0767306659469187
0.066899843269256506 0.096043749999999997 -0.0767306659469187
280 5 716 479 88 
281 5 716 483 123 
716 1 9 0 210 0 2 777 780
280 281 
_sim_empty
-1
1 0.5 0.062264343269256506 0.15795624999999999 -0.0767306659469187
1e-08
1 0
0 1
0.057628843269256505 0.15795624999999999 -0.0767306659469187
0.066899843269256506 0.15795624999999999 -0.0767306659469187
288 5 720 495 90 
289 5 720 499 121 
720 1 9 0 210 0 2 779 782
288 289 
_sim_empty
-1
1 0.5 0.062264343269256506 0.18007796299270501 -0.074015348980167706
1e-08
1 0
0 1
0.057628843269256505 0.18007796299270501 -0.074015348980167706
0.066899843269256506 0.18007796299270501 -0.074015348980167706
232 5 684 38 91 
235 5 684 46 119 
684 1 9 0 210 0 2 656 314
232 235 
_sim_empty
-1
1 0.5 0.062264343325513151 0.20925231489145102 -0.00056772003819946211
1e-08
1 0
0 1
0.057628843269256602 0.20925231489145102 -0.00056772003819946103
0.0668998433817697 0.20925231489145102 -0.00056772003819946331
31 5 1494 56 40 
34 5 1494 59 43 
1494 1 9 0 210 0 2 7014 7393
31 34 
_sim_empty
-1
1 0.5 0.057628843269256602 0.16984955755959816 -0.011896682118989737
1e-08
1 0
0 1
0.057628843269256602 0.15584680022774541 -0.023225644199780206
0.057628843269256609 0.1838523148914509 -0.00056772003819926739
39 5 1500 22 56 
42 5 1500 30 59 
1500 1 9 0 210 0 2 7297 7014
39 42 
_sim_empty
-1
1 6.3345466564550215 0.057628843269256588 0.12921680810939354 -0.034218117177571616
1e-08
1 3
5.6543103816845335 7.0147829312255094
0.057628843269256602 0.127 0.0089049411764705703
0.043180000000000003 6.2831853071795862
1 0 -2.4586631942978349e-16
-2.4586631942978349e-16 0 -1
15 5 1469 2 22 
18 5 1469 10 30 
1469 1 9 0 210 0 2 7345 7297
15 18 
_sim_empty
-1
1 0.5 0.057628843269256602 0.066823842554274482 -0.020711582790446714
1e-08
1 0
0 1
0.057628843269256602 0.032047685108548905 -0.015408879961800513
0.057628843269256595 0.10160000000000004 -0.026014285619092917
1 5 697 4 2 
8 5 697 15 10 
697 1 9 0 210 0 2 672 7345
1 8 
_sim_empty
-1
1 0.5 0.057628843269256602 0.019347685108549013 -0.015408879961800553
1e-08
1 0
0 1
0.057628843269256602 0.0066476851085491302 -0.015408879961800549
0.057628843269256602 0.032047685108548898 -0.015408879961800554
263 5 701 447 4 
266 5 701 451 15 
701 1 9 0 210 0 2 773 672
263 266 
_sim_empty
-1
1 0.5 0.057628843269256595 0.041944533873717063 -0.047093385683061734
1e-08
1 0
0 1
0.057628843269256588 0.077241382638884998 -0.078777891404322925
0.057628843269256602 0.0066476851085491302 -0.015408879961800549
271 5 705 463 447 
274 5 705 467 451 
705 1 9 0 210 0 2 775 773
271 274 
_sim_empty
-1
1 6.1747312790276343 0.057628843269256505 0.087099667584885937 -0.0819524415516317
1e-08
1 3
5.3347574689397135 7.014705089115556
0.057628843269256505 0.085724999999999996 -0.069327058823529394
0.012699999999999999 6.2831853071795862
-1 0 2.4586631942978349e-16
-2.4586631942978349e-16 0 -1
279 5 709 479 463 
282 5 709 483 467 
709 1 9 0 210 0 2 777 775
279 282 
_sim_empty
-1
1 3.1415926535897931 0.057628843269256512 0.127 -0.060841487317086405
1e-08
1 3
2.1931648153499168 4.0900204918296694
0.057628843269256505 0.127 -0.098941487317086407
0.038100000000000002 6.2831853071795862
1 0 -2.4586631942978349e-16
-2.4586631942978349e-16 0 -1
287 5 713 495 479 
290 5 713 499 483 
713 1 9 0 210 0 2 779 777
287 290 
_sim_empty
-1
1 3.0194591448079007 0.057628843269256505 0.16982224225944423 -0.081932456135418857
1e-08
1 3
1.9488977977861357 4.0900204918296659
0.057628843269256505 0.16827500000000001 -0.069327058823529394
0.012699999999999999 6.2831853071795862
-1 0 2.4586631942978349e-16
2.4586631942978349e-16 0 1
295 5 717 38 495 
298 5 717 46 499 
717 1 9 0 210 0 2 656 779
295 298 
_sim_empty
-1
1 0.5 0.057628843269256588 0.19466513894207818 -0.03729153450918362
1e-08
1 0
0 1
0.057628843269256602 0.20925231489145102 -0.00056772003819945929
0.057628843269256581 0.18007796299270534 -0.074015348980167789
23 5 1491 40 38 
26 5 1491 43 46 
1491 1 9 0 210 0 2 7393 656
23 26 
_sim_empty
-1
1 0.5 0.057628843269256602 0.19655231489145103 -0.00056772003819946103
1e-08
1 0
0 1
0.057628843269256602 0.18385231489145101 -0.00056772003819946103
0.057628843269256602 0.20925231489145102 -0.00056772003819946103
45 5 742 84 82 
68 5 742 127 105 
742 1 9 0 210 0 2 776 61
45 68 
_sim_empty
-1
1 0.5 0.066899843269256604 0.041944533873717063 -0.047093385683061734
1e-08
1 0
0 1
0.06689984326925659 0.077241382638884998 -0.078777891404322925
0.066899843269256604 0.0066476851085491302 -0.015408879961800549
46 5 739 86 84 
67 5 739 125 127 
739 1 9 0 210 0 2 778 776
46 67 
_sim_empty
-1
1 6.1747312790276343 0.066899843269256506 0.087099667584885937 -0.0819524415516317
1e-08
1 3
5.3347574689397135 7.014705089115556
0.066899843269256506 0.085724999999999996 -0.069327058823529394
0.012699999999999999 6.2831853071795862
-1 0 2.4586631942978349e-16
-2.4586631942978349e-16 0 -1
47 5 736 88 86 
66 5 736 123 125 
736 1 9 0 210 0 2 780 778
47 66 
_sim_empty
-1
1 3.1415926535897931 0.06689984326925652 0.127 -0.060841487317086405
1e-08
1 3
2.1931648153499168 4.0900204918296694
0.066899843269256506 0.127 -0.098941487317086407
0.038100000000000002 6.2831853071795862
1 0 -2.4586631942978349e-16
-2.4586631942978349e-16 0 -1
48 5 733 90 88 
65 5 733 121 123 
733 1 9 0 210 0 2 782 780
48 65 
_sim_empty
-1
1 3.0194591448079042 0.066899843269256506 0.16982224225944417 -0.081932456135418857
1e-08
1 3
1.9488977977861428 4.0900204918296659
0.066899843269256506 0.16827500000000001 -0.069327058823529394
0.012699999999999999 6.2831853071795862
-1 0 2.4586631942978349e-16
2.4586631942978349e-16 0 1
49 5 730 91 90 
64 5 730 119 121 
730 1 9 0 210 0 2 314 782
49 64 
_sim_empty
-1
1 0.5 0.066899843269256604 0.19466513894207815 -0.037291534509183669
1e-08
1 0
0 1
0.066899843269256604 0.20925231489145102 -0.00056772003819946298
0.06689984326925659 0.18007796299270531 -0.074015348980167872
343 5 724 -1 -1 
344 5 724 -1 -1 
724 1 9 0 210 0 2 -1 -1
343 344 
_sim_empty
-1
1 3.1415926535897931 0.057628843269256505 0.16827500000000001 -0.074280058823529393
1e-08
1 3
0 6.2831853071795862
0.057628843269256505 0.16827500000000001 -0.069327058823529394
0.0049529999999999999 6.2831853071795862
-1 0 2.4586631942978349e-16
2.4586631942978349e-16 0 1
129 5 757 -1 -1 
130 5 757 -1 -1 
757 1 9 0 210 0 2 -1 -1
129 130 
_sim_empty
-1
1 3.1415926535897931 0.066899843269256506 0.16827500000000001 -0.074280058823529393
1e-08
1 3
0 6.2831853071795862
0.066899843269256506 0.16827500000000001 -0.069327058823529394
0.0049529999999999999 6.2831853071795862
-1 0 2.4586631942978349e-16
2.4586631942978349e-16 0 1
341 5 721 -1 -1 
342 5 721 -1 -1 
721 1 9 0 210 0 2 -1 -1
341 342 
_sim_empty
-1
1 3.1415926535897931 0.057628843269256505 0.085724999999999996 -0.074280058823529393
1e-08
1 3
0 6.2831853071795862
0.057628843269256505 0.085724999999999996 -0.069327058823529394
0.0049529999999999999 6.2831853071795862
-1 0 2.4586631942978349e-16
2.4586631942978349e-16 0 1
127 5 760 -1 -1 
128 5 760 -1 -1 
760 1 9 0 210 0 2 -1 -1
127 128 
_sim_empty
-1
1 3.1415926535897931 0.066899843269256506 0.085724999999999996 -0.074280058823529393
1e-08
1 3
0 6.2831853071795862
0.066899843269256506 0.085724999999999996 -0.069327058823529394
0.0049529999999999999 6.2831853071795862
-1 0 2.4586631942978349e-16
2.4586631942978349e-16 0 1
95 5 1218 184 182 
98 5 1218 187 189 
1218 1 9 0 210 0 2 1217 1220
95 98 
_sim_empty
-1
1 1.5023619512802959 0.0668998433817697 0.080973771250354765 0.0058080419967233114
1e-08
1 3
1.2363217021552169 1.768402200405375
0.0668998433817697 0.1240526990408372 0.0087607323669450198
0.043180000000000003 6.2831853071795862
-1 0 3.8245871911299651e-16
-3.8245871911299651e-16 0 -1
89 5 1152 172 170 
104 5 1152 199 185 
1152 1 9 0 210 0 2 1151 1154
89 104 
_sim_empty
-1
1 0.5 0.0668998433817697 0.066400405742846738 -0.012264996652826833
1e-08
1 0
0 1
0.0668998433817697 0.056490494456374878 -0.010753923593866253
0.0668998433817697 0.076310317029318592 -0.013776069711787412
91 5 1174 176 174 
102 5 1174 195 197 
1174 1 9 0 210 0 2 1173 1176
91 102 
_sim_empty
-1
1 0.5 0.066899843381769686 0.051097685108549104 0.0034400851075931087
1e-08
1 0
0 1
0.0668998433817697 0.051097685108549104 0.011356651172485381
0.066899843381769686 0.051097685108549111 -0.004476480957299165
93 5 1196 180 178 
100 5 1196 191 193 
1196 1 9 0 210 0 2 1195 1198
93 100 
_sim_empty
-1
1 0.5 0.0668998433817697 0.064133555596651445 0.020826282942236637
1e-08
1 0
0 1
0.0668998433817697 0.073153004121623288 0.024390246794991507
0.0668998433817697 0.055114107071679595 0.017262319089481771
173 5 1212 313 316 
180 5 1212 329 328 
1212 1 9 0 210 0 2 1211 1214
173 180 
_sim_empty
-1
1 1.5023619512802957 0.02733234734725655 0.080973771250354765 0.0058080419967233236
1e-08
1 3
1.2363217021552169 1.7684022004053745
0.02733234734725655 0.1240526990408372 0.0087607323669450406
0.043180000000000003 6.2831853071795862
-1 0 3.8245871911299651e-16
-3.8245871911299651e-16 0 -1
171 5 1146 309 312 
182 5 1146 333 332 
1146 1 9 0 210 0 2 1145 1148
171 182 
_sim_empty
-1
1 0.5 0.02733234734725655 0.066400405742846738 -0.012264996652826782
1e-08
1 0
0 1
0.027332347347256553 0.056490494456374878 -0.010753923593866201
0.02733234734725655 0.076310317029318592 -0.013776069711787362
169 5 1168 305 308 
184 5 1168 321 336 
1168 1 9 0 210 0 2 1167 1170
169 184 
_sim_empty
-1
1 0.5 0.027332347347256546 0.051097685108549104 0.0034400851075931261
1e-08
1 0
0 1
0.02733234734725655 0.051097685108549104 0.011356651172485402
0.027332347347256543 0.051097685108549111 -0.0044764809572991511
175 5 1190 317 320 
178 5 1190 325 324 
1190 1 9 0 210 0 2 1189 1192
175 178 
_sim_empty
-1
1 0.5 0.02733234734725655 0.064133555596651459 0.020826282942236644
1e-08
1 0
0 1
0.027332347347256553 0.073153004121623316 0.024390246794991514
0.02733234734725655 0.055114107071679616 0.017262319089481778
77 5 2317 148 146 
80 5 2317 151 153 
2317 1 9 0 210 0 2 2316 2319
77 80 
_sim_empty
-1
1 0.5 0.066899843381769686 0.18123272448042302 -0.036705455338610977
1e-08
1 0
0 1
0.066899843381769686 0.17591970347328661 -0.050081203901848635
0.0668998433817697 0.18654574548755942 -0.02332970677537332
69 5 2339 132 130 
88 5 2339 167 149 
2339 1 9 0 210 0 2 2338 2341
69 88 
_sim_empty
-1
1 0.5 0.0668998433817697 0.16872792060476274 -0.054087058823529398
1e-08
1 0
0 1
0.0668998433817697 0.16743761923259151 -0.054087058823529398
0.0668998433817697 0.17001822197693398 -0.054087058823529398
71 5 2361 136 134 
86 5 2361 163 165 
2361 1 9 0 210 0 2 2360 2363
71 86 
_sim_empty
-1
1 0.5 0.0668998433817697 0.15852541634252673 -0.049824680462220328
1e-08
1 0
0 1
0.0668998433817697 0.152859209989989 -0.046454646333242984
0.0668998433817697 0.16419162269506446 -0.053194714591197678
73 5 2383 140 138 
84 5 2383 159 161 
2383 1 9 0 210 0 2 2382 2385
73 84 
_sim_empty
-1
1 5.4999558182521699 0.066899843381769686 0.16269637229831596 -0.028200321930010881
1e-08
1 3
5.2197073772802742 5.7802042592240657
0.0668998433817697 0.13222978909249458 0.0023986928868547698
0.043180000000000003 6.2831853071795862
-1 0 3.8245871911299651e-16
-3.8245871911299651e-16 0 -1
75 5 2405 144 142 
82 5 2405 155 157 
2405 1 9 0 210 0 2 2404 2407
75 82 
_sim_empty
-1
1 0.5 0.0668998433817697 0.177248324382833 -0.015030222557829253
1e-08
1 0
0 1
0.0668998433817697 0.17980970204792399 -0.014690642606007489
0.0668998433817697 0.17468694671774201 -0.015369802509651016
113 5 2973 220 218 
116 5 2973 223 225 
2973 1 9 0 210 0 2 2972 2975
113 116 
_sim_empty
-1
1 0.5 0.066899843381769686 0.061353712797633568 -0.04403672877277208
1e-08
1 0
0 1
0.0668998433817697 0.05338214149942222 -0.036880982431618005
0.066899843381769686 0.069325284095844916 -0.051192475113926147
105 5 2995 204 202 
124 5 2995 239 221 
2995 1 9 0 210 0 2 2994 2997
105 124 
_sim_empty
-1
1 0.5 0.0668998433817697 0.075631660873425183 -0.028478003637870335
1e-08
1 0
0 1
0.0668998433817697 0.092682180914696391 -0.031077883771086452
0.0668998433817697 0.058581140832153974 -0.025878123504654221
107 5 3017 208 206 
122 5 3017 235 237 
3017 1 9 0 210 0 2 3016 3019
107 122 
_sim_empty
-1
1 0.5 0.0668998433817697 0.097499251388129843 -0.033351991313131213
1e-08
1 0
0 1
0.0668998433817697 0.1001060602338068 -0.034852268310168522
0.0668998433817697 0.094892442542452896 -0.031851714316093904
109 5 2929 212 210 
120 5 2929 231 233 
2929 1 9 0 210 0 2 2928 2931
109 120 
_sim_empty
-1
1 0.5 0.0668998433817697 0.0959667847662624 -0.048674109268317604
1e-08
1 0
0 1
0.0668998433817697 0.091441495122584981 -0.051729698479218281
0.0668998433817697 0.10049207440993982 -0.045618520057416928
111 5 2951 216 214 
118 5 2951 227 229 
2951 1 9 0 210 0 2 2950 2953
111 118 
_sim_empty
-1
1 0.5 0.0668998433817697 0.080727560721461755 -0.052817058823529398
1e-08
1 0
0 1
0.0668998433817697 0.073567092776402401 -0.052817058823529398
0.0668998433817697 0.087888028666521095 -0.052817058823529398
9 5 3298 -1 -1 
10 5 3298 -1 -1 
3298 1 9 0 210 0 2 -1 -1
9 10 
_sim_empty
-1
1 3.1415926535897931 0.036857347347256549 0.021379685108549151 -0.015408879961800549
1e-08
1 3
0 6.2831853071795862
0.033682347347256551 0.021379685108549151 -0.015408879961800549
0.0031749999999999999 6.2831853071795862
-1.2953790510530579e-16 0 -1
-1 0 1.2953790510530579e-16
139 5 3302 -1 -1 
140 5 3302 -1 -1 
3302 1 9 0 210 0 2 -1 -1
139 140 
_sim_empty
-1
1 3.1415926535897931 0.036857347347256549 0.021379685108549151 0.016341120038199448
1e-08
1 3
0 6.2831853071795862
0.033682347347256551 0.021379685108549151 0.016341120038199451
0.0031749999999999999 6.2831853071795862
-6.5564351847942307e-16 0 -1
-1 0 6.5564351847942307e-16
11 5 3342 -1 -1 
12 5 3342 -1 -1 
3342 1 9 0 210 0 2 -1 -1
11 12 
_sim_empty
-1
1 3.1415926535897931 0.048287347347256496 0.016807685108549152 -0.015408879961800549
1e-08
1 3
0 6.2831853071795862
0.045112347347256498 0.016807685108549152 -0.015408879961800549
0.0031749999999999999 6.2831853071795862
-1.2953790510530579e-16 0 -1
-1 0 1.2953790510530579e-16
141 5 3346 -1 -1 
142 5 3346 -1 -1 
3346 1 9 0 210 0 2 -1 -1
141 142 
_sim_empty
-1
1 3.1415926535897931 0.0482873473472566 0.016807685108549152 0.016341120038199448
1e-08
1 3
0 6.2831853071795862
0.045112347347256603 0.016807685108549152 0.016341120038199451
0.0031749999999999999 6.2831853071795862
-6.5564351847942307e-16 0 -1
-1 0 6.5564351847942307e-16
605 5 3392 -1 -1 
606 5 3392 -1 -1 
3392 1 9 0 210 0 2 -1 -1
605 606 
_sim_empty
-1
1 3.1415926535897931 0.03956749603451315 0.17432731489145101 0.0117649625
1e-08
1 3
0 6.2831853071795862
0.03956749603451315 0.17432731489145101 0.0151384
0.0033734375000000001 6.2831853071795862
0 -1 0
6.5564351847942307e-16 0 1
247 5 3395 -1 -1 
248 5 3395 -1 -1 
3395 1 9 0 210 0 2 -1 -1
247 248 
_sim_empty
-1
1 3.1415926535897931 0.03956749603451315 0.18702731489145102 0.0117649625
1e-08
1 3
0 6.2831853071795862
0.03956749603451315 0.18702731489145102 0.0151384
0.0033734375000000001 6.2831853071795862
0 -1 0
6.5564351847942307e-16 0 1
611 5 3433 -1 -1 
612 5 3433 -1 -1 
3433 1 9 0 210 0 2 -1 -1
611 612 
_sim_empty
-1
1 3.1415926535897931 0.0546646946945131 0.041572685108549147 0.0033734374999999824
1e-08
1 3
0 6.2831853071795862
0.0546646946945131 0.041572685108549147 -1.7920276383056999e-17
0.0033734375000000001 6.2831853071795862
0 1 0
-6.5564351847942307e-16 0 -1
203 5 3436 -1 -1 
204 5 3436 -1 -1 
3436 1 9 0 210 0 2 -1 -1
203 204 
_sim_empty
-1
1 3.1415926535897931 0.0546646946945131 0.028872685108549151 0.0033734374999999824
1e-08
1 3
0 6.2831853071795862
0.0546646946945131 0.028872685108549151 -1.7920276383056999e-17
0.0033734375000000001 6.2831853071795862
0 1 0
-6.5564351847942307e-16 0 -1
1 6 678 1 0 2
4 697 1 0 45 2 0 1529 3 0 7378 4 1 3 6 678 1 0 4
1 3298 9 0 5 6 678 1 0 6
1 3342 11 0 2 6 678 0 0 1
4 7378 5 0 1529 6 1 45 7 1 697 8 1 4 6 678 0 0 3
1 3298 10 1 6 6 678 0 0 5
1 3342 12 1 678 2 9 0 203 0
3 1 3 5 
0

  3 2 4 6 
0

0
_sim_empty
-1
0 0 0 0 0 0
0
-1 0
0.066899843269256604 0.032047685108549148 -0.015408879961800549
-1 0 1.3010426069826053e-16
0 -1 0
1 1 1
7 6 670 1 0 8
4 1475 13 0 7330 14 1 1469 15 0 7378 4 0 8 6 670 0 0 7
4 7378 5 1 1469 18 1 7330 19 0 1475 20 1 670 2 9 0 203 0
1 7 
0

  1 8 
0

0
_sim_empty
-1
0 0 0 0 0 0
0
1 0
-0.071232017839051809 0.032047685108549148 -0.015408879961800501
-9.7144514654701173e-17 0.98857364355387056 -0.15073868538177196
1 4.1633363423443389e-17 -3.8857805861880499e-16
1.0000000000000002 0.99999999999999956 1
9 6 662 1 0 10
4 1569 21 1 293 22 1 1491 23 0 7426 24 0 10 6 662 0 0 9
4 7426 25 1 1491 26 1 293 27 0 1569 28 0 662 2 9 0 203 0
1 9 
0

  1 10 
0

0
_sim_empty
-1
0 0 0 0 0 0
0
1 0
0.027332347459769698 0.18385231489145101 -0.00056772003819944401
1 0 -4.8030156241107846e-16
0 -1 0
1 1 1
11 6 654 1 0 12
4 1553 29 0 7426 24 1 1494 31 0 7017 32 0 12 6 654 0 0 11
4 7017 33 1 1494 34 1 7426 25 0 1553 36 1 654 2 9 0 203 0
1 11 
0

  1 12 
0

0
_sim_empty
-1
0 0 0 0 0 0
0
-1 0
0.14096012574895078 0.0730117358570916 -0.090243537959909303
-4.163336342344337e-16 -0.77742412912058201 -0.62897672728098986
1 -1.3877787807814454e-16 -4.8572257327350589e-16
1 1.0000000000000002 1
13 6 646 1 0 14
4 1537 37 1 7017 32 1 1500 39 0 7330 14 0 14 6 646 0 0 13
4 7330 19 1 1500 42 1 7017 33 0 1537 44 0 646 2 9 0 203 0
1 13 
0

  1 14 
0

0
_sim_empty
-1
0 0 0 0 0 0
0
1 2
-0.094799135786770794 0.127 0.0089049411764706692
6.5564351847942307e-16 0 1
1 0 -6.5564351847942307e-16
0.043180000000000003 1 0
15 6 85 1 0 16
12 742 45 0 739 46 0 736 47 0 733 48 0 730 49 0 294 50 1 1654 51 0 1632 52 1 1616 53 1 1583 54 0 1602 55 1 57 56 0 17 6 85 1 0 18
10 2339 69 0 2443 70 0 2361 71 0 2456 72 0 2383 73 0 2482 74 0 2405 75 0 2469 76 0 2317 77 0 2430 78 0 19 6 85 1 0 20
8 1152 89 0 1241 90 0 1174 91 0 1258 92 0 1196 93 0 1292 94 0 1218 95 0 1275 96 0 21 6 85 1 0 22
10 2995 105 0 3094 106 0 3017 107 0 3081 108 0 2929 109 0 3042 110 0 2951 111 0 3055 112 0 2973 113 0 3068 114 0 23 6 85 1 0 24
1 567 125 1 25 6 85 1 0 26
1 760 127 1 27 6 85 1 0 28
1 757 129 1 16 6 85 0 0 15
12 57 57 1 1602 58 0 1583 59 1 1616 60 0 1632 61 0 1654 62 1 294 63 0 730 64 1 733 65 1 736 66 1 739 67 1 742 68 1 18 6 85 0 0 17
10 2430 79 1 2317 80 1 2469 81 1 2405 82 1 2482 83 1 2383 84 1 2456 85 1 2361 86 1 2443 87 1 2339 88 1 20 6 85 0 0 19
8 1275 97 1 1218 98 1 1292 99 1 1196 100 1 1258 101 1 1174 102 1 1241 103 1 1152 104 1 22 6 85 0 0 21
10 3068 115 1 2973 116 1 3055 117 1 2951 118 1 3042 119 1 2929 120 1 3081 121 1 3017 122 1 3094 123 1 2995 124 1 24 6 85 0 0 23
1 567 126 0 26 6 85 0 0 25
1 760 128 0 28 6 85 0 0 27
1 757 130 0 85 2 9 0 203 0
7 15 17 19 21 23 25 27 
0

  7 16 18 20 22 24 26 28 
0

0
_sim_empty
-1
0 0 0 0 0 0
0
-1 0
0.066899843269256604 0.032047685108549148 -0.015408879961800549
-3.3306690738754696e-16 0 -1
0 -1 0
1 1 1
29 6 83 1 0 30
4 1599 131 1 53 132 0 1602 55 0 7282 134 1 31 6 83 1 0 32
1 3302 139 1 33 6 83 1 0 34
1 3346 141 1 30 6 83 0 0 29
4 7282 135 0 1602 58 1 53 137 1 1599 138 0 32 6 83 0 0 31
1 3302 140 0 34 6 83 0 0 33
1 3346 142 0 83 2 9 0 203 0
3 29 31 33 
0

  3 30 32 34 
0

0
_sim_empty
-1
0 0 0 0 0 0
0
-1 0
0.066899843269256604 0.032047685108549148 0.016341120038199451
1 0 -6.5572547391923308e-16
0 -1 0
1 1 1
35 6 81 1 0 36
12 49 143 0 1599 131 0 1577 145 1 1610 146 0 1638 147 0 1657 148 1 292 149 1 1569 21 0 1553 29 1 1537 37 0 1475 13 1 1529 3 1 37 6 81 1 0 38
1 488 167 1 39 6 81 1 0 40
8 1168 169 1 1233 170 0 1146 171 1 1267 172 0 1212 173 1 1284 174 0 1190 175 1 1250 176 0 36 6 81 0 0 35
12 1529 6 0 1475 20 0 1537 44 1 1553 36 0 1569 28 1 292 160 0 1657 161 0 1638 162 1 1610 163 1 1577 164 0 1599 138 1 49 166 1 38 6 81 0 0 37
1 488 168 0 40 6 81 0 0 39
8 1250 177 1 1190 178 0 1284 179 1 1212 180 0 1267 181 1 1146 182 0 1233 183 1 1168 184 0 81 2 9 0 203 0
3 35 37 39 
0

  3 36 38 40 
0

0
_sim_empty
-1
0 0 0 0 0 0
0
-1 0
0.02733234734725655 0.032047685108549148 -0.015408879961800549
3.2612801348363973e-16 0 1
0 -1 0
1 1 1
41 6 43 1 0 42
5 57 56 1 53 132 1 49 143 1 45 2 1 704 189 1 43 6 43 1 0 44
1 150 195 1 42 6 43 0 0 41
5 704 190 0 45 7 0 49 166 0 53 137 0 57 57 0 44 6 43 0 0 43
1 150 196 0 43 2 9 0 203 0
2 41 43 
0

  2 42 44 
0

0
_sim_empty
-1
0 0 0 0 0 0
0
-1 0
0.0546646946945131 0.0066476851085491302 -1.7920276383056999e-17
6.5225602696727947e-16 0 1
1 0 -6.5564351847942307e-16
1 1 1
45 6 153 1 0 46
1 147 197 1 47 6 153 1 0 48
1 150 195 0 46 6 153 0 0 45
1 147 198 0 48 6 153 0 0 47
1 150 196 1 153 2 9 0 203 0
2 45 47 
0

  2 46 48 
0

0
_sim_empty
-1
0 0 0 0 0 0
0
-1 2
0.0546646946945131 0.028872685108549151 -1.7920276383056999e-17
-6.5564351847942307e-16 -0 -1
0 -1 0
0.0047625000000000002 1 0
49 6 158 1 0 50
1 147 197 0 51 6 158 1 0 52
1 3436 203 1 50 6 158 0 0 49
1 147 198 1 52 6 158 0 0 51
1 3436 204 0 158 2 9 0 203 0
2 49 51 
0

  2 50 52 
0

0
_sim_empty
-1
0 0 0 0 0 0
0
1 0
0.0546646946945131 0.028872685108549151 -1.7920276383056999e-17
-6.5225602696727947e-16 0 -1
1 0 -6.5564351847942307e-16
1 1 1
53 6 222 1 0 54
4 1583 54 1 7087 206 0 1577 145 0 7282 134 0 54 6 222 0 0 53
4 7282 135 1 1577 164 1 7087 211 1 1583 59 0 222 2 9 0 203 0
1 53 
0

  1 54 
0

0
_sim_empty
-1
0 0 0 0 0 0
0
1 0
-0.071232017839051809 0.032047685108549148 0.0163411200381995
-2.3592239273284572e-16 -0.93002644362147679 -0.36749260423141594
1 -9.0205620750793932e-17 -4.1980308118638712e-16
1.0000000000000002 1.0000000000000004 1
55 6 323 1 0 56
4 1616 53 0 7152 214 1 1610 146 1 7087 206 1 56 6 323 0 0 55
4 7087 211 0 1610 163 0 7152 219 0 1616 60 1 323 2 9 0 203 0
1 55 
0

  1 56 
0

0
_sim_empty
-1
0 0 0 0 0 0
0
1 2
-0.094799135786770794 0.127 0.0089049411764706692
6.5564351847942307e-16 0 1
1 0 -6.5564351847942307e-16
0.043180000000000003 1 0
57 6 332 1 0 58
4 1654 51 1 295 222 1 1657 148 0 7217 224 0 58 6 332 0 0 57
4 7217 225 1 1657 161 1 295 227 0 1654 62 0 332 2 9 0 203 0
1 57 
0

  1 58 
0

0
_sim_empty
-1
0 0 0 0 0 0
0
1 0
0.027332347459769698 0.18385231489145101 0.029912279961800552
-1 0 5.6898930012039273e-16
0 -1 0
1 1 1
59 6 344 1 0 60
5 292 149 0 295 222 0 294 50 0 684 232 0 293 22 0 61 6 344 1 0 62
1 296 239 1 60 6 344 0 0 59
5 293 27 1 684 235 1 294 63 1 295 227 1 292 160 1 62 6 344 0 0 61
1 296 240 0 344 2 9 0 203 0
2 59 61 
0

  2 60 62 
0

0
_sim_empty
-1
0 0 0 0 0 0
0
-1 0
0.0546646946945131 0.20925231489145102 -1.7920276383056999e-17
-6.5225602696727947e-16 0 -1
1 0 -6.5564351847942307e-16
1 1 1
63 6 348 1 0 64
1 297 241 1 65 6 348 1 0 66
1 296 239 0 64 6 348 0 0 63
1 297 242 0 66 6 348 0 0 65
1 296 240 1 348 2 9 0 203 0
2 63 65 
0

  2 64 66 
0

0
_sim_empty
-1
0 0 0 0 0 0
0
-1 2
0.03956749603451315 0.18702731489145102 0.0151384
6.5564351847942307e-16 -0 1
0 1 0
0.0047625000000000002 1 0
67 6 352 1 0 68
1 297 241 0 69 6 352 1 0 70
1 3395 247 1 68 6 352 0 0 67
1 297 242 1 70 6 352 0 0 69
1 3395 248 0 352 2 9 0 203 0
2 67 69 
0

  2 68 70 
0

0
_sim_empty
-1
0 0 0 0 0 0
0
1 0
0.03956749603451315 0.18702731489145102 0.0151384
6.5225602696727947e-16 0 1
1 0 -6.5572547391923308e-16
1 1 1
71 6 358 1 0 72
4 1632 52 0 7217 224 1 1638 147 1 7152 214 0 72 6 358 0 0 71
4 7152 219 1 1638 162 0 7217 225 0 1632 61 1 358 2 9 0 203 0
1 71 
0

  1 72 
0

0
_sim_empty
-1
0 0 0 0 0 0
0
1 0
0.14096012574895078 0.041149649498272205 0.09303206960409971
2.7755575615628933e-16 -0.91453224853518456 0.40451299903609977
1 1.0408340855860854e-16 -4.3021142204224865e-16
0.99999999999999944 0.99999999999999889 1
73 6 497 1 0 74
1 488 167 0 75 6 497 1 0 76
1 567 125 0 74 6 497 0 0 73
1 488 168 1 76 6 497 0 0 75
1 567 126 1 497 2 9 0 203 0
2 73 75 
0

  2 74 76 
0

0
_sim_empty
-1
0 0 0 0 0 0
0
-1 2
0.045340947347256598 0.127 0.008904941176470579
-3.8245871911299651e-16 0 -1
-1 0 3.8245871911299651e-16
0.0374904 1 0
77 6 803 1 0 78
4 742 45 1 704 189 0 701 263 0 708 264 1 78 6 803 0 0 77
4 708 265 0 701 266 1 704 190 1 742 68 0 803 2 9 0 203 0
1 77 
0

  1 78 
0

0
_sim_empty
-1
0 0 0 0 0 0
0
1 0
0.057628843269256602 0.0066476851085491302 -0.015408879961800549
-4.3715031594615519e-16 0.74416004573176764 -0.66800136701693469
1 2.0383000842727466e-16 -4.2847669856627096e-16
1.0000000000000004 1.0000000000000009 1
79 6 807 1 0 80
4 739 46 1 708 264 0 705 271 0 712 272 1 80 6 807 0 0 79
4 712 273 0 705 274 1 708 265 1 739 67 0 807 2 9 0 203 0
1 79 
0

  1 80 
0

0
_sim_empty
-1
0 0 0 0 0 0
0
1 2
0.057628843269256505 0.085724999999999996 -0.069327058823529394
2.4586631942978349e-16 0 1
1 0 -2.4586631942978349e-16
0.012699999999999999 1 0
81 6 811 1 0 82
4 736 47 1 712 272 0 709 279 0 716 280 1 82 6 811 0 0 81
4 716 281 0 709 282 1 712 273 1 736 66 0 811 2 9 0 203 0
1 81 
0

  1 82 
0

0
_sim_empty
-1
0 0 0 0 0 0
0
-1 2
0.057628843269256505 0.127 -0.098941487317086407
2.4586631942978349e-16 0 1
1 0 -2.4586631942978349e-16
0.038100000000000002 1 0
83 6 815 1 0 84
4 733 48 1 716 280 0 713 287 0 720 288 1 84 6 815 0 0 83
4 720 289 0 713 290 1 716 281 1 733 65 0 815 2 9 0 203 0
1 83 
0

  1 84 
0

0
_sim_empty
-1
0 0 0 0 0 0
0
1 2
0.057628843269256505 0.16827500000000001 -0.069327058823529394
2.4586631942978349e-16 0 1
1 0 -2.4586631942978349e-16
0.012699999999999999 1 0
85 6 819 1 0 86
4 730 49 1 720 288 0 717 295 0 684 232 1 86 6 819 0 0 85
4 684 235 0 717 298 1 720 289 1 730 64 0 819 2 9 0 203 0
1 85 
0

  1 86 
0

0
_sim_empty
-1
0 0 0 0 0 0
0
1 0
0.057628843269256602 0.20925231489145102 -0.00056772003819946103
6.1062266354383639e-16 0.36915670524711169 0.92936716477993642
1 -1.3877787807814467e-16 -5.9978064181898145e-16
0.99999999999999967 0.99999999999999933 1
87 6 823 1 0 88
10 1469 15 1 1500 39 1 1494 31 1 1491 23 1 717 295 1 713 287 1 709 279 1 705 271 1 701 263 1 697 1 1 89 6 823 1 0 90
10 2367 321 0 2439 322 0 2345 323 0 2426 324 0 2323 325 0 2465 326 0 2411 327 0 2478 328 0 2389 329 0 2452 330 0 91 6 823 1 0 92
1 721 341 0 93 6 823 1 0 94
1 724 343 0 95 6 823 1 0 96
10 3023 345 0 3090 346 0 3001 347 0 3064 348 0 2979 349 0 3051 350 0 2957 351 0 3038 352 0 2935 353 0 3077 354 0 88 6 823 0 0 87
10 697 8 0 701 266 0 705 274 0 709 282 0 713 290 0 717 298 0 1491 26 0 1494 34 0 1500 42 0 1469 18 0 90 6 823 0 0 89
10 2452 331 1 2389 332 1 2478 333 1 2411 334 1 2465 335 1 2323 336 1 2426 337 1 2345 338 1 2439 339 1 2367 340 1 92 6 823 0 0 91
1 721 342 1 94 6 823 0 0 93
1 724 344 1 96 6 823 0 0 95
10 3077 355 1 2935 356 1 3038 357 1 2957 358 1 3051 359 1 2979 360 1 3064 361 1 3001 362 1 3090 363 1 3023 364 1 823 2 9 0 203 0
5 87 89 91 93 95 
0

  5 88 90 92 94 96 
0

0
_sim_empty
-1
0 0 0 0 0 0
0
-1 0
0.057628843269256505 0.16827500000000001 -0.069327058823529394
2.4286128663675299e-16 0 1
0 -1 0
1 1 1
97 6 833 1 0 98
1 724 343 1 99 6 833 1 0 100
1 757 129 0 98 6 833 0 0 97
1 724 344 0 100 6 833 0 0 99
1 757 130 1 833 2 9 0 203 0
2 97 99 
0

  2 98 100 
0

0
_sim_empty
-1
0 0 0 0 0 0
0
-1 2
0.057628843269256505 0.16827500000000001 -0.069327058823529394
2.4586631942978349e-16 0 1
1 0 -2.4586631942978349e-16
0.0049529999999999999 1 0
101 6 838 1 0 102
1 721 341 1 103 6 838 1 0 104
1 760 127 0 102 6 838 0 0 101
1 721 342 0 104 6 838 0 0 103
1 760 128 1 838 2 9 0 203 0
2 101 103 
0

  2 102 104 
0

0
_sim_empty
-1
0 0 0 0 0 0
0
-1 2
0.057628843269256505 0.085724999999999996 -0.069327058823529394
2.4586631942978349e-16 0 1
1 0 -2.4586631942978349e-16
0.0049529999999999999 1 0
105 6 1071 1 0 106
4 1190 175 0 1201 374 0 1196 93 1 1206 376 0 106 6 1071 0 0 105
4 1206 377 1 1196 100 0 1201 379 1 1190 178 1 1071 2 9 0 203 0
1 105 
0

  1 106 
0

0
_sim_empty
-1
0 0 0 0 0 0
0
-1 0
0.0668998433817697 0.051097685108549097 0.015675261670796348
-2.3592239273284572e-16 -0.93002644362147679 -0.36749260423141594
1 -9.0205620750793932e-17 -4.1980308118638712e-16
1.0000000000000002 1.0000000000000004 1
107 6 1075 1 0 108
4 1218 95 1 1223 382 0 1212 173 0 1228 384 0 108 6 1075 0 0 107
4 1228 385 1 1212 180 1 1223 387 1 1218 98 0 1075 2 9 0 203 0
1 107 
0

  1 108 
0

0
_sim_empty
-1
0 0 0 0 0 0
0
1 2
0.0668998433817697 0.1240526990408372 0.0087607323669450198
-3.8245871911299651e-16 0 -1
-1 0 3.8245871911299651e-16
0.043180000000000003 1 0
109 6 1079 1 0 110
4 1152 89 1 1157 390 0 1146 171 0 1162 392 0 110 6 1079 0 0 109
4 1162 393 1 1146 182 1 1157 395 1 1152 104 0 1079 2 9 0 203 0
1 109 
0

  1 110 
0

0
_sim_empty
-1
0 0 0 0 0 0
0
-1 0
0.0668998433817697 0.088415646300558801 -0.0156219022730323
-9.7144514654701148e-17 0.98857364355387056 -0.15073868538177196
1 4.1633363423443346e-17 -3.8857805861880454e-16
1.0000000000000004 1.0000000000000007 1
111 6 1083 1 0 112
4 1168 169 0 1179 398 0 1174 91 1 1184 400 0 112 6 1083 0 0 111
4 1184 401 1 1174 102 0 1179 403 1 1168 184 1 1083 2 9 0 203 0
1 111 
0

  1 112 
0

0
_sim_empty
-1
0 0 0 0 0 0
0
-1 0
0.0668998433817697 0.051097685108549097 0.015675261670796348
-6.5225602696727947e-16 8.1185058675714572e-16 -1
1 0 -6.5572547391923308e-16
1 1 1
113 6 1360 1 0 114
4 1241 90 1 1162 392 1 1233 170 1 1184 400 1 114 6 1360 0 0 113
4 1184 401 0 1233 183 0 1162 393 0 1241 103 0 1360 2 9 0 203 0
1 113 
0

  1 114 
0

0
_sim_empty
-1
0 0 0 0 0 0
0
-1 2
0.0668998433817697 0.057447685108549203 -0.0044764809572991606
3.8245871911299651e-16 0 1
1 0 -3.8245871911299651e-16
0.0063499999999999997 1 0
115 6 1381 1 0 116
4 1258 92 1 1179 398 1 1250 176 1 1206 376 1 116 6 1381 0 0 115
4 1206 377 0 1250 177 0 1179 403 0 1258 101 0 1381 2 9 0 203 0
1 115 
0

  1 116 
0

0
_sim_empty
-1
0 0 0 0 0 0
0
-1 2
0.0668998433817697 0.057447685108549099 0.011356651172485402
3.8245871911299651e-16 0 1
1 -9.4170606245629299e-47 -3.8245871911299651e-16
0.0063499999999999997 1 0
117 6 1402 1 0 118
4 1275 96 1 1228 384 1 1267 172 1 1157 390 1 118 6 1402 0 0 117
4 1157 395 0 1267 181 0 1228 385 0 1275 97 0 1402 2 9 0 203 0
1 117 
0

  1 118 
0

0
_sim_empty
-1
0 0 0 0 0 0
0
-1 2
0.0668998433817697 0.077267507681492792 -0.0074986270752203099
-3.8245871911299651e-16 0 -1
-1 0 3.8245871911299651e-16
0.0063499999999999997 1 0
119 6 1423 1 0 120
4 1292 94 1 1201 374 1 1284 174 1 1223 382 1 120 6 1423 0 0 119
4 1223 387 0 1284 179 0 1201 379 0 1292 99 0 1423 2 9 0 203 0
1 119 
0

  1 120 
0

0
_sim_empty
-1
0 0 0 0 0 0
0
-1 2
0.0668998433817697 0.075486582158492702 0.018484578877995102
-3.8245871911299651e-16 0 -1
-1 0 3.8245871911299651e-16
0.0063499999999999997 1 0
121 6 2201 1 0 122
4 2405 75 1 2416 438 0 2411 327 1 2421 440 0 122 6 2201 0 0 121
4 2421 441 1 2411 334 0 2416 443 1 2405 82 0 2201 2 9 0 203 0
1 121 
0

  1 122 
0

0
_sim_empty
-1
0 0 0 0 0 0
0
-1 0
0.0668998433817697 0.1713838301151325 -0.015807720038199451
-8.3266726846886741e-17 -0.991325841109714 -0.13142707768233319
1 -2.7755575615628914e-17 -3.8857805861880479e-16
1 1 1
123 6 2205 1 0 124
4 2317 77 1 2328 446 0 2323 325 1 2333 448 0 124 6 2205 0 0 123
4 2333 449 1 2323 336 0 2328 451 1 2317 80 0 2205 2 9 0 203 0
1 123 
0

  1 124 
0

0
_sim_empty
-1
0 0 0 0 0 0
0
-1 0
0.0668998433817697 0.19054249726974098 -0.013267720038199459
6.1062266354383639e-16 0.36915670524711164 0.92936716477993642
1 -8.326672684688679e-17 -6.1756155744774372e-16
0.99999999999999967 0.99999999999999944 1
125 6 2209 1 0 126
4 2345 323 1 2350 454 0 2339 69 1 2355 456 0 126 6 2209 0 0 125
4 2355 457 1 2339 88 0 2350 459 1 2345 338 0 2209 2 9 0 203 0
1 125 
0

  1 126 
0

0
_sim_empty
-1
0 0 0 0 0 0
0
-1 0
0.0668998433817697 0.17432852588424849 -0.054087058823529398
1 0 -3.8163916471489756e-16
0 -1 0
1 1 1
127 6 2213 1 0 128
4 2367 321 1 2372 462 0 2361 71 1 2377 464 0 128 6 2213 0 0 127
4 2377 465 1 2361 86 0 2372 467 1 2367 340 0 2213 2 9 0 203 0
1 127 
0

  1 128 
0

0
_sim_empty
-1
0 0 0 0 0 0
0
-1 0
0.0668998433817697 0.1656919655297 -0.054087058823529398
-3.3306690738754681e-16 0.85947334923908369 -0.51118055709088972
1 1.1102230246251553e-16 -4.5102810375396935e-16
1.0000000000000004 1.0000000000000011 1
129 6 2217 1 0 130
4 2389 329 1 2394 470 0 2383 73 1 2399 472 0 130 6 2217 0 0 129
4 2399 473 1 2383 84 0 2394 475 1 2389 332 0 2217 2 9 0 203 0
1 129 
0

  1 130 
0

0
_sim_empty
-1
0 0 0 0 0 0
0
1 2
0.0668998433817697 0.13222978909249458 0.0023986928868547698
-3.8245871911299651e-16 0 -1
-1 0 3.8245871911299651e-16
0.043180000000000003 1 0
131 6 2544 1 0 132
4 2430 78 1 2333 448 1 2426 324 1 2355 456 1 132 6 2544 0 0 131
4 2355 457 0 2426 337 0 2333 449 0 2430 79 0 2544 2 9 0 203 0
1 131 
0

  1 132 
0

0
_sim_empty
-1
0 0 0 0 0 0
0
-1 2
0.0668998433817697 0.17001822197693398 -0.047737058823529403
3.8245871911299651e-16 0 1
1 0 -3.8245871911299651e-16
0.0063499999999999997 1 0
133 6 2565 1 0 134
4 2443 70 1 2350 454 1 2439 322 1 2377 464 1 134 6 2565 0 0 133
4 2377 465 0 2439 339 0 2350 459 0 2443 87 0 2565 2 9 0 203 0
1 133 
0

  1 134 
0

0
_sim_empty
-1
0 0 0 0 0 0
0
-1 2
0.0668998433817697 0.16743761923259151 -0.047737058823529403
3.8245871911299651e-16 0 1
1 9.6450864361703094e-32 -3.8245871911299651e-16
0.0063499999999999997 1 0
135 6 2586 1 0 136
4 2456 72 1 2372 462 1 2452 330 1 2399 472 1 136 6 2586 0 0 135
4 2399 473 0 2452 331 0 2372 467 0 2456 85 0 2586 2 9 0 203 0
1 135 
0

  1 136 
0

0
_sim_empty
-1
0 0 0 0 0 0
0
-1 2
0.0668998433817697 0.156105206527516 -0.040996990565574799
-3.8245871911299651e-16 0 -1
-1 0 3.8245871911299651e-16
0.0063499999999999997 1 0
137 6 2607 1 0 138
4 2469 76 1 2421 440 1 2465 326 1 2328 446 1 138 6 2607 0 0 137
4 2328 451 0 2465 335 0 2421 441 0 2469 81 0 2607 2 9 0 203 0
1 137 
0

  1 138 
0

0
_sim_empty
-1
0 0 0 0 0 0
0
-1 2
0.0668998433817697 0.18064426399120648 -0.020985561697054202
3.8245871911299651e-16 0 1
1 0 -3.8245871911299651e-16
0.0063499999999999997 1 0
139 6 2628 1 0 140
4 2482 74 1 2394 470 1 2478 328 1 2416 438 1 140 6 2628 0 0 139
4 2416 443 0 2478 333 0 2394 475 0 2482 83 0 2628 2 9 0 203 0
1 139 
0

  1 140 
0

0
_sim_empty
-1
0 0 0 0 0 0
0
-1 2
0.0668998433817697 0.17552150866102448 -0.02166472160069775
-3.8245871911299651e-16 0 -1
-1 0 3.8245871911299651e-16
0.0063499999999999997 1 0
141 6 2813 1 0 142
4 2957 351 1 2962 518 0 2951 111 1 2967 520 0 142 6 2813 0 0 141
4 2967 521 1 2951 118 0 2962 523 1 2957 358 0 2813 2 9 0 203 0
1 141 
0

  1 142 
0

0
_sim_empty
-1
0 0 0 0 0 0
0
-1 0
0.0668998433817697 0.071135086212017598 -0.052817058823529398
1 0 -3.8163916471489756e-16
0 -1 0
1 1 1
143 6 2817 1 0 144
4 2979 349 1 2984 526 0 2973 113 1 2989 528 0 144 6 2817 0 0 143
4 2989 529 1 2973 116 0 2984 531 1 2979 360 0 2817 2 9 0 203 0
1 143 
0

  1 144 
0

0
_sim_empty
-1
0 0 0 0 0 0
0
-1 0
0.0668998433817697 0.037552876615309302 -0.02267171301153955
-4.4408920985006242e-16 0.74416004573176764 -0.66800136701693469
1 1.3877787807814444e-16 -5.0306980803327356e-16
1.0000000000000004 1.0000000000000009 1
145 6 2821 1 0 146
4 3001 347 1 3006 534 0 2995 105 1 3011 536 0 146 6 2821 0 0 145
4 3011 537 1 2995 124 0 3006 539 1 3001 362 0 2821 2 9 0 203 0
1 145 
0

  1 146 
0

0
_sim_empty
-1
0 0 0 0 0 0
0
-1 0
0.0668998433817697 0.093859901492372805 -0.031257463767765101
9.7144514654701173e-17 -0.98857364355387067 0.15073868538177199
1 4.1633363423443346e-17 -3.8857805861880454e-16
1.0000000000000002 1.0000000000000007 1
147 6 2825 1 0 148
4 3017 107 1 3028 542 0 3023 345 1 3033 544 0 148 6 2825 0 0 147
4 3033 545 1 3023 364 0 3028 547 1 3017 122 0 2825 2 9 0 203 0
1 147 
0

  1 148 
0

0
_sim_empty
-1
0 0 0 0 0 0
0
-1 0
0.0668998433817697 0.093859901492372805 -0.031257463767765101
3.3306690738754711e-16 -0.86671056559993831 0.49881138266626923
1 1.2490009027033018e-16 -4.5102810375397014e-16
0.99999999999999967 0.99999999999999944 1
149 6 2829 1 0 150
4 2929 109 1 2940 550 0 2935 353 1 2945 552 0 150 6 2829 0 0 149
4 2945 553 1 2935 356 0 2940 555 1 2929 120 0 2829 2 9 0 203 0
1 149 
0

  1 150 
0

0
_sim_empty
-1
0 0 0 0 0 0
0
-1 0
0.0668998433817697 0.1089223062895124 -0.039926215784119652
3.6082248300317588e-16 0.82876215050218194 0.55960101670297102
1 -1.2490009027033009e-16 -4.649058915617842e-16
1 1.0000000000000002 1
151 6 3156 1 0 152
4 3042 110 1 2945 552 1 3038 352 1 2967 520 1 152 6 3156 0 0 151
4 2967 521 0 3038 357 0 2945 553 0 3042 119 0 3156 2 9 0 203 0
1 151 
0

  1 152 
0

0
_sim_empty
-1
0 0 0 0 0 0
0
-1 2
0.0668998433817697 0.087888028666521095 -0.046467058823529403
3.8245871911299651e-16 0 1
1 0 -3.8245871911299651e-16
0.0063499999999999997 1 0
153 6 3177 1 0 154
4 3055 112 1 2962 518 1 3051 350 1 2989 528 1 154 6 3177 0 0 153
4 2989 529 0 3051 359 0 2962 523 0 3055 117 0 3177 2 9 0 203 0
1 153 
0

  1 154 
0

0
_sim_empty
-1
0 0 0 0 0 0
0
-1 2
0.0668998433817697 0.073567092776402401 -0.046467058823529403
3.8245871911299651e-16 0 1
1 0 -3.8245871911299651e-16
0.0063499999999999997 1 0
155 6 3198 1 0 156
4 3068 114 1 2984 526 1 3064 348 1 3011 536 1 156 6 3198 0 0 155
4 3011 537 0 3064 361 0 2984 531 0 3068 115 0 3198 2 9 0 203 0
1 155 
0

  1 156 
0

0
_sim_empty
-1
0 0 0 0 0 0
0
-1 2
0.0668998433817697 0.057623950179979802 -0.032155566141221295
3.8245871911299651e-16 0 1
1 -2.3260907822785048e-32 -3.8245871911299651e-16
0.0063499999999999997 1 0
157 6 3219 1 0 158
4 3081 108 1 3033 544 1 3077 354 1 2940 550 1 158 6 3219 0 0 157
4 2940 555 0 3077 355 0 3033 545 0 3081 121 0 3219 2 9 0 203 0
1 157 
0

  1 158 
0

0
_sim_empty
-1
0 0 0 0 0 0
0
-1 2
0.0668998433817697 0.096938607953875905 -0.040355880401728099
3.8245871911299651e-16 0 1
1 1.368715381854134e-32 -3.8245871911299651e-16
0.0063499999999999997 1 0
159 6 3240 1 0 160
4 3094 106 1 3006 534 1 3090 346 1 3028 542 1 160 6 3240 0 0 159
4 3028 547 0 3090 363 0 3006 539 0 3094 123 0 3240 2 9 0 203 0
1 159 
0

  1 160 
0

0
_sim_empty
-1
0 0 0 0 0 0
0
-1 2
0.0668998433817697 0.091724990262522094 -0.037355326407653502
3.8245871911299651e-16 0 1
1 1.183652913881834e-32 -3.8245871911299651e-16
0.0063499999999999997 1 0
161 6 3305 1 0 162
1 3302 139 0 163 6 3305 1 0 164
1 3298 9 1 162 6 3305 0 0 161
1 3302 140 1 164 6 3305 0 0 163
1 3298 10 0 3305 2 9 0 203 0
2 161 163 
0

  2 162 164 
0

0
_sim_empty
-1
0 0 0 0 0 0
0
-1 2
0.033682347347256496 0.021379685108549151 -0.082027058823529397
-1 0 6.5564351847942307e-16
6.5564351847942307e-16 0 1
0.0031749999999999999 1 0
165 6 3349 1 0 166
1 3346 141 0 167 6 3349 1 0 168
1 3342 11 1 166 6 3349 0 0 165
1 3346 142 1 168 6 3349 0 0 167
1 3342 12 0 3349 2 9 0 203 0
2 165 167 
0

  2 166 168 
0

0
_sim_empty
-1
0 0 0 0 0 0
0
-1 2
0.045112347347256498 0.016807685108549152 -0.082027058823529397
-1 0 6.5564351847942307e-16
6.5564351847942307e-16 0 1
0.0031749999999999999 1 0
169 6 3398 1 0 170
1 3392 605 1 171 6 3398 1 0 172
1 3395 247 0 170 6 3398 0 0 169
1 3392 606 0 172 6 3398 0 0 171
1 3395 248 1 3398 2 9 0 203 0
2 169 171 
0

  2 170 172 
0

0
_sim_empty
-1
0 0 0 0 0 0
0
-1 2
0.03956749603451315 0.17432731489145101 0.0151384
6.5564351847942307e-16 -0 1
0 1 0
0.0033734375000000001 1 0
173 6 3403 1 0 174
1 3392 605 0 174 6 3403 0 0 173
1 3392 606 1 3403 2 9 0 203 0
1 173 
0

  1 174 
0

0
_sim_empty
-1
0 0 0 0 0 0
0
1 0
0.03956749603451315 0.17432731489145101 0.0151384
6.5225602696727947e-16 0 1
1 0 -6.5572547391923308e-16
1 1 1
175 6 3439 1 0 176
1 3433 611 1 177 6 3439 1 0 178
1 3436 203 0 176 6 3439 0 0 175
1 3433 612 0 178 6 3439 0 0 177
1 3436 204 1 3439 2 9 0 203 0
2 175 177 
0

  2 176 178 
0

0
_sim_empty
-1
0 0 0 0 0 0
0
-1 2
0.0546646946945131 0.041572685108549147 -1.7920276383056999e-17
-6.5564351847942307e-16 -0 -1
0 -1 0
0.0033734375000000001 1 0
179 6 3444 1 0 180
1 3433 611 0 180 6 3444 0 0 179
1 3433 612 1 3444 2 9 0 203 0
1 179 
0

  1 180 
0

0
_sim_empty
-1
0 0 0 0 0 0
0
1 0
0.0546646946945131 0.041572685108549147 -1.7920276383056999e-17
-6.5225602696727947e-16 0 -1
1 0 -6.5564351847942307e-16
1 1 1
1 8 95 61
678 0 670 0 662 0 654 0 646 0 85 0 83 0 81 0 43 0 153 0 158 0 222 0 323 0 332 0 344 0 348 0 352 0 358 0 497 0 803 0 807 0 811 0 815 0 819 0 823 0 833 0 838 0 1071 0 1075 0 1079 0 1083 0 1360 0 1381 0 1402 0 1423 0 2201 0 2205 0 2209 0 2213 0 2217 0 2544 0 2565 0 2586 0 2607 0 2628 0 2813 0 2817 0 2821 0 2825 0 2829 0 3156 0 3177 0 3198 0 3219 0 3240 0 3305 0 3349 0 3398 0 3403 0 3439 0 3444 0 95 3 9 0 205 0 1 
1 
0
0
_sim_empty
-1
0 -1
3 8 96 61
678 1 3349 1 83 1 3305 1 222 1 81 1 1381 1 1071 1 85 1 833 1 823 1 3219 1 2829 1 3156 1 2813 1 3177 1 2817 1 3198 1 2821 1 3240 1 2825 1 838 1 2586 1 2217 1 2628 1 2201 1 2607 1 2205 1 2544 1 2209 1 2565 1 2213 1 803 1 807 1 811 1 815 1 819 1 344 1 348 1 352 1 3398 1 3403 1 662 1 654 1 646 1 670 1 332 1 358 1 323 1 43 1 153 1 158 1 3439 1 3444 1 497 1 1402 1 1079 1 1360 1 1083 1 1075 1 1423 1 96 3 8 0 303 0 1 
3 
0
0
_sim_empty
-1
0
0 -1
0 -1
0 -1
0 -1
0 -1
<part> auxmm 3
0
0
<part> attributes 10
AttDBVersion 10 8
0 1 0 17 21
1 2 7
0 
16 FixIntersections
0 
0 0 1
0
0
1 1
0 
1
1 2 3
0 
18 MeshRepresentation
0 
0 0 1
0
0
1 1
0 
0
1 2 4
0 
9 Smoothing
0 
0 0 1
0
0
1 1
0 
2
1 2 5
0 
13 SmoothingType
0 
0 0 1
0
0
1 1
0 
0
1 2 6
0 
12 Optimization
0 
0 0 1
0
0
1 1
0 
1
1 2 8
0 
16 EnforceGradation
0 
0 0 1
0
0
1 1
0 
0
1 3 9
0 
17 FaceRotationLimit
0 
0 0 1
0
0
2 1
0 
15
1 2 10
0 
12 DiscreteSnap
0 
0 0 1
0
0
1 1
0 
0
1 7 2
0 
13 SurfaceMesher
0 
0 0 1
0
8 3 4 5 6 7 8 9 10
1 2 15
0 
12 Optimization
0 
0 0 1
0
0
1 1
0 
1
1 2 12
0 
11 EnforceSize
0 
0 0 1
0
0
1 1
0 
0
1 2 13
0 
9 Smoothing
0 
0 0 1
0
0
1 1
0 
1
1 2 14
0 
13 SmoothingType
0 
0 0 1
0
0
1 1
0 
0
1 2 16
0 
8 ModifyBL
0 
0 0 1
0
0
1 1
0 
0
1 7 11
0 
12 VolumeMesher
0 
0 0 1
0
5 12 13 14 15 16
1 3 21
0 
8 MeshSize
8 Absolute
0 0 1
0
0
2 -1
0 
6 0.0075
1 10 17
0 
9 parasolid
0 
0 0 1
0
0
1
4
125 file:///lore/cwsmith/geometries/pumi-meshes/upright/mfemPumiDemo/atpesc2021/no_ring_v1/mesh_model/upright_no_ring_geomsim.smd24 model.nonmanifold.simple6 # 1 0 0 3 1 1
3 10k
7 Meshing
0 
7 0 1
0
3 2 11 21
17
1 4
4
1
9 1  1 21
<index>
3
smd 8
auxmm 91588
attributes 91607
</index>
<header>
4
125 file:///lore/cwsmith/geometries/pumi-meshes/upright/mfemPumiDemo/atpesc2021/no_ring_v1/mesh_model/upright_no_ring_geomsim.smd24 model.nonmanifold.simple6 # 1 0 0 
0
0
</header>
92722 92776                                                                                                                    
